G04 #@! TF.FileFunction,Legend,Bot*
%FSLAX46Y46*%
G04 Gerber Fmt 4.6, Leading zero omitted, Abs format (unit mm)*
G04 Created by KiCad (PCBNEW 4.0.1-stable) date 2016 January 26, Tuesday 13:40:38*
%MOMM*%
G01*
G04 APERTURE LIST*
%ADD10C,0.100000*%
%ADD11C,0.010000*%
G04 APERTURE END LIST*
D10*
D11*
G36*
X113396004Y-70004003D02*
X113324693Y-70061840D01*
X113262322Y-70111191D01*
X113213649Y-70148385D01*
X113183438Y-70169752D01*
X113176180Y-70173449D01*
X113157621Y-70184412D01*
X113117353Y-70215396D01*
X113058668Y-70263547D01*
X112984858Y-70326007D01*
X112899217Y-70399920D01*
X112805036Y-70482432D01*
X112705609Y-70570685D01*
X112604228Y-70661824D01*
X112504185Y-70752994D01*
X112443762Y-70808756D01*
X111900148Y-71336064D01*
X111382190Y-71885085D01*
X110890436Y-72454933D01*
X110425430Y-73044722D01*
X109987718Y-73653563D01*
X109577845Y-74280571D01*
X109196358Y-74924860D01*
X108843801Y-75585542D01*
X108520721Y-76261730D01*
X108227662Y-76952539D01*
X107965171Y-77657081D01*
X107733792Y-78374471D01*
X107684201Y-78544096D01*
X107518726Y-79166512D01*
X107377422Y-79796211D01*
X107259443Y-80437885D01*
X107163943Y-81096224D01*
X107090075Y-81775921D01*
X107079162Y-81899133D01*
X107070698Y-82019200D01*
X107063162Y-82167802D01*
X107056615Y-82339598D01*
X107051118Y-82529243D01*
X107046731Y-82731395D01*
X107043516Y-82940711D01*
X107041532Y-83151850D01*
X107040841Y-83359467D01*
X107041503Y-83558220D01*
X107043580Y-83742766D01*
X107047132Y-83907764D01*
X107052220Y-84047869D01*
X107054267Y-84088108D01*
X107113494Y-84857081D01*
X107205045Y-85616535D01*
X107328522Y-86365778D01*
X107483530Y-87104118D01*
X107669672Y-87830864D01*
X107886551Y-88545324D01*
X108133772Y-89246805D01*
X108410938Y-89934617D01*
X108717653Y-90608068D01*
X109053521Y-91266465D01*
X109418144Y-91909117D01*
X109811127Y-92535332D01*
X110232074Y-93144418D01*
X110680588Y-93735685D01*
X111156273Y-94308439D01*
X111658732Y-94861989D01*
X112187569Y-95395643D01*
X112742388Y-95908710D01*
X113322793Y-96400498D01*
X113928387Y-96870315D01*
X114558774Y-97317469D01*
X114680453Y-97399234D01*
X115263876Y-97768787D01*
X115869780Y-98115692D01*
X116495390Y-98438966D01*
X117137930Y-98737629D01*
X117794627Y-99010700D01*
X118462704Y-99257199D01*
X119139387Y-99476146D01*
X119821901Y-99666559D01*
X120507470Y-99827458D01*
X121193319Y-99957862D01*
X121876673Y-100056791D01*
X122339426Y-100105665D01*
X122597818Y-100126063D01*
X122877987Y-100143312D01*
X123172902Y-100157248D01*
X123475530Y-100167708D01*
X123778838Y-100174528D01*
X124075793Y-100177544D01*
X124359363Y-100176594D01*
X124622515Y-100171513D01*
X124830287Y-100163562D01*
X125588606Y-100109533D01*
X126339414Y-100022583D01*
X127082047Y-99902983D01*
X127815843Y-99751003D01*
X128540139Y-99566910D01*
X129254271Y-99350976D01*
X129957578Y-99103470D01*
X130649396Y-98824661D01*
X131329063Y-98514820D01*
X131995916Y-98174215D01*
X132649292Y-97803117D01*
X133288528Y-97401794D01*
X133912962Y-96970517D01*
X134521931Y-96509556D01*
X135114771Y-96019180D01*
X135200400Y-95944735D01*
X135310897Y-95845678D01*
X135439632Y-95726255D01*
X135582061Y-95590983D01*
X135733637Y-95444378D01*
X135889815Y-95290956D01*
X136046048Y-95135233D01*
X136197793Y-94981724D01*
X136340501Y-94834946D01*
X136469628Y-94699415D01*
X136580628Y-94579646D01*
X136631637Y-94522882D01*
X137130008Y-93935267D01*
X137599309Y-93330286D01*
X138039764Y-92707583D01*
X138451602Y-92066802D01*
X138835049Y-91407588D01*
X139190332Y-90729583D01*
X139517678Y-90032431D01*
X139577073Y-89896998D01*
X139857206Y-89208889D01*
X140105567Y-88510056D01*
X140321806Y-87801804D01*
X140505574Y-87085439D01*
X140656522Y-86362266D01*
X140774302Y-85633590D01*
X140825063Y-85228753D01*
X140895433Y-84456978D01*
X140932544Y-83688933D01*
X140934666Y-83276849D01*
X131419750Y-83276849D01*
X131419410Y-83387640D01*
X131415979Y-83517293D01*
X131409660Y-83662108D01*
X131400655Y-83818383D01*
X131389169Y-83982420D01*
X131375403Y-84150517D01*
X131359562Y-84318973D01*
X131341846Y-84484089D01*
X131322461Y-84642164D01*
X131310571Y-84728886D01*
X131209255Y-85318734D01*
X131075812Y-85898811D01*
X130910782Y-86468019D01*
X130714709Y-87025261D01*
X130488132Y-87569440D01*
X130231594Y-88099458D01*
X129945636Y-88614219D01*
X129630798Y-89112625D01*
X129287624Y-89593579D01*
X128916653Y-90055984D01*
X128518427Y-90498743D01*
X128406308Y-90614773D01*
X128006175Y-91004378D01*
X127599053Y-91363790D01*
X127180129Y-91696634D01*
X126744588Y-92006536D01*
X126287617Y-92297123D01*
X125816499Y-92565494D01*
X125367400Y-92793683D01*
X124907918Y-92998285D01*
X124435461Y-93180073D01*
X123947439Y-93339821D01*
X123441260Y-93478304D01*
X122914333Y-93596297D01*
X122364068Y-93694573D01*
X121787873Y-93773907D01*
X121763309Y-93776807D01*
X121721054Y-93779666D01*
X121648793Y-93782126D01*
X121550408Y-93784148D01*
X121429781Y-93785696D01*
X121290793Y-93786731D01*
X121137325Y-93787216D01*
X120973260Y-93787113D01*
X120802479Y-93786383D01*
X120788992Y-93786299D01*
X120574227Y-93784659D01*
X120390054Y-93782629D01*
X120233174Y-93780107D01*
X120100292Y-93776992D01*
X119988110Y-93773182D01*
X119893331Y-93768575D01*
X119812660Y-93763071D01*
X119742798Y-93756568D01*
X119713008Y-93753167D01*
X119185817Y-93678619D01*
X118682912Y-93585751D01*
X118227450Y-93480347D01*
X117652987Y-93315807D01*
X117091535Y-93120289D01*
X116544082Y-92894500D01*
X116011615Y-92639148D01*
X115495124Y-92354939D01*
X114995597Y-92042582D01*
X114514023Y-91702783D01*
X114051389Y-91336250D01*
X113608685Y-90943690D01*
X113186899Y-90525811D01*
X112787019Y-90083319D01*
X112410034Y-89616922D01*
X112056932Y-89127328D01*
X111976482Y-89007405D01*
X111720609Y-88596137D01*
X111476992Y-88154885D01*
X111246611Y-87685619D01*
X111030443Y-87190314D01*
X110863036Y-86762242D01*
X110698764Y-86275119D01*
X110560338Y-85768992D01*
X110447984Y-85247037D01*
X110361927Y-84712431D01*
X110302393Y-84168351D01*
X110269608Y-83617975D01*
X110263797Y-83064479D01*
X110285185Y-82511040D01*
X110333998Y-81960837D01*
X110410461Y-81417045D01*
X110463136Y-81128152D01*
X110591384Y-80565672D01*
X110752526Y-80009790D01*
X110946013Y-79461639D01*
X111171292Y-78922352D01*
X111427814Y-78393059D01*
X111715027Y-77874895D01*
X112032382Y-77368989D01*
X112379326Y-76876476D01*
X112755309Y-76398488D01*
X112776038Y-76373579D01*
X112888932Y-76242566D01*
X113021414Y-76095915D01*
X113167420Y-75939852D01*
X113320888Y-75780605D01*
X113475753Y-75624399D01*
X113625951Y-75477461D01*
X113765418Y-75346017D01*
X113858639Y-75261955D01*
X114301839Y-74894350D01*
X114767651Y-74550955D01*
X115254012Y-74232746D01*
X115758859Y-73940701D01*
X116280130Y-73675800D01*
X116815761Y-73439020D01*
X117363690Y-73231339D01*
X117921855Y-73053735D01*
X118488192Y-72907187D01*
X119060639Y-72792673D01*
X119068971Y-72791253D01*
X119373436Y-72743466D01*
X119665624Y-72706229D01*
X119954897Y-72678786D01*
X120250619Y-72660381D01*
X120562152Y-72650259D01*
X120848299Y-72647602D01*
X121170466Y-72651029D01*
X121475704Y-72661972D01*
X121770170Y-72681216D01*
X122060020Y-72709547D01*
X122351410Y-72747749D01*
X122650497Y-72796609D01*
X122963438Y-72856912D01*
X123296388Y-72929444D01*
X123577346Y-72995842D01*
X123676124Y-73020084D01*
X123762582Y-73041708D01*
X123831722Y-73059429D01*
X123878548Y-73071965D01*
X123898062Y-73078031D01*
X123898332Y-73078276D01*
X123891857Y-73103643D01*
X123874177Y-73153388D01*
X123847910Y-73220948D01*
X123815675Y-73299758D01*
X123780089Y-73383256D01*
X123746624Y-73458610D01*
X123626282Y-73737060D01*
X123523909Y-74005152D01*
X123434410Y-74277300D01*
X123352690Y-74567918D01*
X123347595Y-74587525D01*
X123296466Y-74791575D01*
X123254788Y-74974328D01*
X123221474Y-75143627D01*
X123195437Y-75307312D01*
X123175592Y-75473226D01*
X123160850Y-75649210D01*
X123150125Y-75843105D01*
X123142331Y-76062754D01*
X123142122Y-76070152D01*
X123140728Y-76528731D01*
X123163498Y-76966634D01*
X123211248Y-77387745D01*
X123284792Y-77795949D01*
X123384944Y-78195131D01*
X123512517Y-78589173D01*
X123668327Y-78981961D01*
X123822262Y-79315077D01*
X124019537Y-79691132D01*
X124230662Y-80042203D01*
X124460010Y-80374384D01*
X124711952Y-80693774D01*
X124990859Y-81006468D01*
X125159612Y-81180081D01*
X125512969Y-81512031D01*
X125877760Y-81812361D01*
X126254968Y-82081687D01*
X126645572Y-82320625D01*
X127050554Y-82529791D01*
X127470896Y-82709801D01*
X127761708Y-82814438D01*
X128157612Y-82935133D01*
X128548245Y-83030448D01*
X128941153Y-83101669D01*
X129343886Y-83150086D01*
X129763989Y-83176983D01*
X129913676Y-83181490D01*
X130094933Y-83184531D01*
X130251718Y-83184625D01*
X130392918Y-83181201D01*
X130527424Y-83173690D01*
X130664123Y-83161523D01*
X130811905Y-83144129D01*
X130979658Y-83120939D01*
X131072188Y-83107235D01*
X131179695Y-83091182D01*
X131258632Y-83080030D01*
X131313935Y-83073592D01*
X131350539Y-83071677D01*
X131373379Y-83074095D01*
X131387389Y-83080659D01*
X131397506Y-83091178D01*
X131400195Y-83094653D01*
X131410346Y-83126655D01*
X131416796Y-83188621D01*
X131419750Y-83276849D01*
X140934666Y-83276849D01*
X140936478Y-82925211D01*
X140907320Y-82166406D01*
X140845154Y-81413113D01*
X140750063Y-80665925D01*
X140622133Y-79925436D01*
X140461447Y-79192241D01*
X140268088Y-78466933D01*
X140042142Y-77750106D01*
X139783691Y-77042355D01*
X139605290Y-76603936D01*
X139296610Y-75917940D01*
X138958281Y-75248275D01*
X138590490Y-74595196D01*
X138193423Y-73958961D01*
X137767264Y-73339825D01*
X137312201Y-72738044D01*
X136828418Y-72153875D01*
X136316102Y-71587572D01*
X135775438Y-71039394D01*
X135206613Y-70509595D01*
X135138548Y-70449103D01*
X135040865Y-70362136D01*
X134935621Y-70267458D01*
X134831369Y-70172830D01*
X134736666Y-70086013D01*
X134668903Y-70023068D01*
X134467827Y-69834557D01*
X113602579Y-69834557D01*
X113396004Y-70004003D01*
X113396004Y-70004003D01*
G37*
X113396004Y-70004003D02*
X113324693Y-70061840D01*
X113262322Y-70111191D01*
X113213649Y-70148385D01*
X113183438Y-70169752D01*
X113176180Y-70173449D01*
X113157621Y-70184412D01*
X113117353Y-70215396D01*
X113058668Y-70263547D01*
X112984858Y-70326007D01*
X112899217Y-70399920D01*
X112805036Y-70482432D01*
X112705609Y-70570685D01*
X112604228Y-70661824D01*
X112504185Y-70752994D01*
X112443762Y-70808756D01*
X111900148Y-71336064D01*
X111382190Y-71885085D01*
X110890436Y-72454933D01*
X110425430Y-73044722D01*
X109987718Y-73653563D01*
X109577845Y-74280571D01*
X109196358Y-74924860D01*
X108843801Y-75585542D01*
X108520721Y-76261730D01*
X108227662Y-76952539D01*
X107965171Y-77657081D01*
X107733792Y-78374471D01*
X107684201Y-78544096D01*
X107518726Y-79166512D01*
X107377422Y-79796211D01*
X107259443Y-80437885D01*
X107163943Y-81096224D01*
X107090075Y-81775921D01*
X107079162Y-81899133D01*
X107070698Y-82019200D01*
X107063162Y-82167802D01*
X107056615Y-82339598D01*
X107051118Y-82529243D01*
X107046731Y-82731395D01*
X107043516Y-82940711D01*
X107041532Y-83151850D01*
X107040841Y-83359467D01*
X107041503Y-83558220D01*
X107043580Y-83742766D01*
X107047132Y-83907764D01*
X107052220Y-84047869D01*
X107054267Y-84088108D01*
X107113494Y-84857081D01*
X107205045Y-85616535D01*
X107328522Y-86365778D01*
X107483530Y-87104118D01*
X107669672Y-87830864D01*
X107886551Y-88545324D01*
X108133772Y-89246805D01*
X108410938Y-89934617D01*
X108717653Y-90608068D01*
X109053521Y-91266465D01*
X109418144Y-91909117D01*
X109811127Y-92535332D01*
X110232074Y-93144418D01*
X110680588Y-93735685D01*
X111156273Y-94308439D01*
X111658732Y-94861989D01*
X112187569Y-95395643D01*
X112742388Y-95908710D01*
X113322793Y-96400498D01*
X113928387Y-96870315D01*
X114558774Y-97317469D01*
X114680453Y-97399234D01*
X115263876Y-97768787D01*
X115869780Y-98115692D01*
X116495390Y-98438966D01*
X117137930Y-98737629D01*
X117794627Y-99010700D01*
X118462704Y-99257199D01*
X119139387Y-99476146D01*
X119821901Y-99666559D01*
X120507470Y-99827458D01*
X121193319Y-99957862D01*
X121876673Y-100056791D01*
X122339426Y-100105665D01*
X122597818Y-100126063D01*
X122877987Y-100143312D01*
X123172902Y-100157248D01*
X123475530Y-100167708D01*
X123778838Y-100174528D01*
X124075793Y-100177544D01*
X124359363Y-100176594D01*
X124622515Y-100171513D01*
X124830287Y-100163562D01*
X125588606Y-100109533D01*
X126339414Y-100022583D01*
X127082047Y-99902983D01*
X127815843Y-99751003D01*
X128540139Y-99566910D01*
X129254271Y-99350976D01*
X129957578Y-99103470D01*
X130649396Y-98824661D01*
X131329063Y-98514820D01*
X131995916Y-98174215D01*
X132649292Y-97803117D01*
X133288528Y-97401794D01*
X133912962Y-96970517D01*
X134521931Y-96509556D01*
X135114771Y-96019180D01*
X135200400Y-95944735D01*
X135310897Y-95845678D01*
X135439632Y-95726255D01*
X135582061Y-95590983D01*
X135733637Y-95444378D01*
X135889815Y-95290956D01*
X136046048Y-95135233D01*
X136197793Y-94981724D01*
X136340501Y-94834946D01*
X136469628Y-94699415D01*
X136580628Y-94579646D01*
X136631637Y-94522882D01*
X137130008Y-93935267D01*
X137599309Y-93330286D01*
X138039764Y-92707583D01*
X138451602Y-92066802D01*
X138835049Y-91407588D01*
X139190332Y-90729583D01*
X139517678Y-90032431D01*
X139577073Y-89896998D01*
X139857206Y-89208889D01*
X140105567Y-88510056D01*
X140321806Y-87801804D01*
X140505574Y-87085439D01*
X140656522Y-86362266D01*
X140774302Y-85633590D01*
X140825063Y-85228753D01*
X140895433Y-84456978D01*
X140932544Y-83688933D01*
X140934666Y-83276849D01*
X131419750Y-83276849D01*
X131419410Y-83387640D01*
X131415979Y-83517293D01*
X131409660Y-83662108D01*
X131400655Y-83818383D01*
X131389169Y-83982420D01*
X131375403Y-84150517D01*
X131359562Y-84318973D01*
X131341846Y-84484089D01*
X131322461Y-84642164D01*
X131310571Y-84728886D01*
X131209255Y-85318734D01*
X131075812Y-85898811D01*
X130910782Y-86468019D01*
X130714709Y-87025261D01*
X130488132Y-87569440D01*
X130231594Y-88099458D01*
X129945636Y-88614219D01*
X129630798Y-89112625D01*
X129287624Y-89593579D01*
X128916653Y-90055984D01*
X128518427Y-90498743D01*
X128406308Y-90614773D01*
X128006175Y-91004378D01*
X127599053Y-91363790D01*
X127180129Y-91696634D01*
X126744588Y-92006536D01*
X126287617Y-92297123D01*
X125816499Y-92565494D01*
X125367400Y-92793683D01*
X124907918Y-92998285D01*
X124435461Y-93180073D01*
X123947439Y-93339821D01*
X123441260Y-93478304D01*
X122914333Y-93596297D01*
X122364068Y-93694573D01*
X121787873Y-93773907D01*
X121763309Y-93776807D01*
X121721054Y-93779666D01*
X121648793Y-93782126D01*
X121550408Y-93784148D01*
X121429781Y-93785696D01*
X121290793Y-93786731D01*
X121137325Y-93787216D01*
X120973260Y-93787113D01*
X120802479Y-93786383D01*
X120788992Y-93786299D01*
X120574227Y-93784659D01*
X120390054Y-93782629D01*
X120233174Y-93780107D01*
X120100292Y-93776992D01*
X119988110Y-93773182D01*
X119893331Y-93768575D01*
X119812660Y-93763071D01*
X119742798Y-93756568D01*
X119713008Y-93753167D01*
X119185817Y-93678619D01*
X118682912Y-93585751D01*
X118227450Y-93480347D01*
X117652987Y-93315807D01*
X117091535Y-93120289D01*
X116544082Y-92894500D01*
X116011615Y-92639148D01*
X115495124Y-92354939D01*
X114995597Y-92042582D01*
X114514023Y-91702783D01*
X114051389Y-91336250D01*
X113608685Y-90943690D01*
X113186899Y-90525811D01*
X112787019Y-90083319D01*
X112410034Y-89616922D01*
X112056932Y-89127328D01*
X111976482Y-89007405D01*
X111720609Y-88596137D01*
X111476992Y-88154885D01*
X111246611Y-87685619D01*
X111030443Y-87190314D01*
X110863036Y-86762242D01*
X110698764Y-86275119D01*
X110560338Y-85768992D01*
X110447984Y-85247037D01*
X110361927Y-84712431D01*
X110302393Y-84168351D01*
X110269608Y-83617975D01*
X110263797Y-83064479D01*
X110285185Y-82511040D01*
X110333998Y-81960837D01*
X110410461Y-81417045D01*
X110463136Y-81128152D01*
X110591384Y-80565672D01*
X110752526Y-80009790D01*
X110946013Y-79461639D01*
X111171292Y-78922352D01*
X111427814Y-78393059D01*
X111715027Y-77874895D01*
X112032382Y-77368989D01*
X112379326Y-76876476D01*
X112755309Y-76398488D01*
X112776038Y-76373579D01*
X112888932Y-76242566D01*
X113021414Y-76095915D01*
X113167420Y-75939852D01*
X113320888Y-75780605D01*
X113475753Y-75624399D01*
X113625951Y-75477461D01*
X113765418Y-75346017D01*
X113858639Y-75261955D01*
X114301839Y-74894350D01*
X114767651Y-74550955D01*
X115254012Y-74232746D01*
X115758859Y-73940701D01*
X116280130Y-73675800D01*
X116815761Y-73439020D01*
X117363690Y-73231339D01*
X117921855Y-73053735D01*
X118488192Y-72907187D01*
X119060639Y-72792673D01*
X119068971Y-72791253D01*
X119373436Y-72743466D01*
X119665624Y-72706229D01*
X119954897Y-72678786D01*
X120250619Y-72660381D01*
X120562152Y-72650259D01*
X120848299Y-72647602D01*
X121170466Y-72651029D01*
X121475704Y-72661972D01*
X121770170Y-72681216D01*
X122060020Y-72709547D01*
X122351410Y-72747749D01*
X122650497Y-72796609D01*
X122963438Y-72856912D01*
X123296388Y-72929444D01*
X123577346Y-72995842D01*
X123676124Y-73020084D01*
X123762582Y-73041708D01*
X123831722Y-73059429D01*
X123878548Y-73071965D01*
X123898062Y-73078031D01*
X123898332Y-73078276D01*
X123891857Y-73103643D01*
X123874177Y-73153388D01*
X123847910Y-73220948D01*
X123815675Y-73299758D01*
X123780089Y-73383256D01*
X123746624Y-73458610D01*
X123626282Y-73737060D01*
X123523909Y-74005152D01*
X123434410Y-74277300D01*
X123352690Y-74567918D01*
X123347595Y-74587525D01*
X123296466Y-74791575D01*
X123254788Y-74974328D01*
X123221474Y-75143627D01*
X123195437Y-75307312D01*
X123175592Y-75473226D01*
X123160850Y-75649210D01*
X123150125Y-75843105D01*
X123142331Y-76062754D01*
X123142122Y-76070152D01*
X123140728Y-76528731D01*
X123163498Y-76966634D01*
X123211248Y-77387745D01*
X123284792Y-77795949D01*
X123384944Y-78195131D01*
X123512517Y-78589173D01*
X123668327Y-78981961D01*
X123822262Y-79315077D01*
X124019537Y-79691132D01*
X124230662Y-80042203D01*
X124460010Y-80374384D01*
X124711952Y-80693774D01*
X124990859Y-81006468D01*
X125159612Y-81180081D01*
X125512969Y-81512031D01*
X125877760Y-81812361D01*
X126254968Y-82081687D01*
X126645572Y-82320625D01*
X127050554Y-82529791D01*
X127470896Y-82709801D01*
X127761708Y-82814438D01*
X128157612Y-82935133D01*
X128548245Y-83030448D01*
X128941153Y-83101669D01*
X129343886Y-83150086D01*
X129763989Y-83176983D01*
X129913676Y-83181490D01*
X130094933Y-83184531D01*
X130251718Y-83184625D01*
X130392918Y-83181201D01*
X130527424Y-83173690D01*
X130664123Y-83161523D01*
X130811905Y-83144129D01*
X130979658Y-83120939D01*
X131072188Y-83107235D01*
X131179695Y-83091182D01*
X131258632Y-83080030D01*
X131313935Y-83073592D01*
X131350539Y-83071677D01*
X131373379Y-83074095D01*
X131387389Y-83080659D01*
X131397506Y-83091178D01*
X131400195Y-83094653D01*
X131410346Y-83126655D01*
X131416796Y-83188621D01*
X131419750Y-83276849D01*
X140934666Y-83276849D01*
X140936478Y-82925211D01*
X140907320Y-82166406D01*
X140845154Y-81413113D01*
X140750063Y-80665925D01*
X140622133Y-79925436D01*
X140461447Y-79192241D01*
X140268088Y-78466933D01*
X140042142Y-77750106D01*
X139783691Y-77042355D01*
X139605290Y-76603936D01*
X139296610Y-75917940D01*
X138958281Y-75248275D01*
X138590490Y-74595196D01*
X138193423Y-73958961D01*
X137767264Y-73339825D01*
X137312201Y-72738044D01*
X136828418Y-72153875D01*
X136316102Y-71587572D01*
X135775438Y-71039394D01*
X135206613Y-70509595D01*
X135138548Y-70449103D01*
X135040865Y-70362136D01*
X134935621Y-70267458D01*
X134831369Y-70172830D01*
X134736666Y-70086013D01*
X134668903Y-70023068D01*
X134467827Y-69834557D01*
X113602579Y-69834557D01*
X113396004Y-70004003D01*
M02*
