<?xml version="1.0" encoding="UTF-8" standalone="no"?>
<!-- Created with Inkscape (http://www.inkscape.org/) -->

<svg
   xmlns:dc="http://purl.org/dc/elements/1.1/"
   xmlns:cc="http://creativecommons.org/ns#"
   xmlns:rdf="http://www.w3.org/1999/02/22-rdf-syntax-ns#"
   xmlns:svg="http://www.w3.org/2000/svg"
   xmlns="http://www.w3.org/2000/svg"
   xmlns:xlink="http://www.w3.org/1999/xlink"
   xmlns:sodipodi="http://sodipodi.sourceforge.net/DTD/sodipodi-0.dtd"
   xmlns:inkscape="http://www.inkscape.org/namespaces/inkscape"
   width="9.9800205mm"
   height="9.9800205mm"
   viewBox="0 0 35.362278 35.362278"
   id="svg3456"
   version="1.1"
   inkscape:version="0.92.2 5c3e80d, 2017-08-06"
   sodipodi:docname="eye_without_edges.svg">
  <defs
     id="defs3458">
    <color-profile
       name="Generic-CMYK-Profile"
       xlink:href="/System/Library/ColorSync/Profiles/Generic CMYK Profile.icc"
       id="color-profile815" />
    <inkscape:path-effect
       effect="bend_path"
       id="path-effect4857"
       is_visible="true"
       bendpath="m 661.67214,703.4823 c 10.72522,3.71132 21.78421,4.26888 33.61565,0"
       prop_scale="1"
       scale_y_rel="false"
       vertical="false"
       bendpath-nodetypes="cc" />
  </defs>
  <sodipodi:namedview
     id="base"
     pagecolor="#ffffff"
     bordercolor="#666666"
     borderopacity="1.0"
     inkscape:pageopacity="0.0"
     inkscape:pageshadow="2"
     inkscape:zoom="22.4"
     inkscape:cx="2.6992326"
     inkscape:cy="27.666149"
     inkscape:document-units="px"
     inkscape:current-layer="g4949-0-86-4"
     showgrid="false"
     fit-margin-top="0"
     fit-margin-left="0"
     fit-margin-right="0"
     fit-margin-bottom="0"
     inkscape:window-width="1280"
     inkscape:window-height="756"
     inkscape:window-x="-2"
     inkscape:window-y="0"
     inkscape:window-maximized="0" />
  <metadata
     id="metadata3461">
    <rdf:RDF>
      <cc:Work
         rdf:about="">
        <dc:format>image/svg+xml</dc:format>
        <dc:type
           rdf:resource="http://purl.org/dc/dcmitype/StillImage" />
        <dc:title></dc:title>
      </cc:Work>
    </rdf:RDF>
  </metadata>
  <g
     inkscape:label="Layer 1"
     inkscape:groupmode="layer"
     id="layer1"
     transform="translate(-563.40163,-614.39372)">
    <g
       transform="matrix(2.1517896,0,0,2.1517896,-1439.7458,41.032144)"
       style="font-style:normal;font-weight:normal;font-size:40px;line-height:125%;font-family:sans-serif;letter-spacing:0px;word-spacing:0px;fill:#333333;fill-opacity:1;stroke:none;stroke-width:1px;stroke-linecap:butt;stroke-linejoin:miter;stroke-opacity:1"
       id="g4949-0-86-4"
       inkscape:export-xdpi="414.48999"
       inkscape:export-ydpi="414.48999">
      <circle
         style="opacity:1;fill:#ffffff;fill-opacity:1;stroke:none;stroke-width:0.03290081;stroke-linejoin:miter;stroke-miterlimit:4;stroke-dasharray:none;stroke-opacity:1"
         id="path4143"
         cx="939.13855"
         cy="274.67496"
         inkscape:export-xdpi="5090.1699"
         inkscape:export-ydpi="5090.1699"
         r="8.2169456" />
      <g
         transform="matrix(0.22408412,0,0,0.22408412,677.63839,219.89824)"
         id="g4188-0-0-1-4-6-4-8-9-3-41-4-9-6"
         style="font-style:normal;font-weight:normal;font-size:40px;line-height:125%;font-family:sans-serif;letter-spacing:0px;word-spacing:0px;fill:#1a1a1a;fill-opacity:1;stroke:none;stroke-width:1px;stroke-linecap:butt;stroke-linejoin:miter;stroke-opacity:1"
         inkscape:export-xdpi="5090.1699"
         inkscape:export-ydpi="5090.1699">
        <path
           sodipodi:nodetypes="ccssscccccscccsccc"
           style="fill:#1a1a1a;fill-opacity:1"
           d="m 1176.4101,268.18951 c 7.3411,-0.69615 13.885,-4.72977 17.8594,-11.00838 1.007,-1.59088 2.1072,-4.0347 2.6392,-5.862 1.2757,-4.38257 1.2236,-9.39848 -0.1429,-13.72045 -1.3676,-4.32634 -4.2094,-8.4953 -7.6893,-11.28046 -5.7784,-4.62478 -13.3277,-6.30163 -20.4699,-4.54687 -0.594,0.14586 -1.1105,0.27464 -1.1484,0.28604 -0.037,0.0115 0.073,0.31764 0.2478,0.68047 0.6152,1.28388 1.0835,2.82814 1.3141,4.33338 0.1499,0.9851 0.1521,3.32471 0,4.36392 -0.7798,5.40627 -4.4701,10.10262 -9.5123,12.1056 -2.396,0.95175 -5.4915,1.3249 -7.8192,0.94244 -0.4455,-0.0732 -0.8667,-0.13388 -0.9363,-0.13434 -0.106,-9.1e-4 -0.1175,0.21983 -0.072,1.32994 0.3229,7.86459 4.5413,15.02776 11.2793,19.15301 3.1151,1.9072 6.4451,2.99464 10.3787,3.38922 0.7229,0.0726 3.1734,0.0537 4.0691,-0.0311 z"
           id="path5352-2-2-0-3-2-9-2-3-4-2-4-3-3-2"
           inkscape:connector-curvature="0" />
      </g>
    </g>
  </g>
</svg>
