<?xml version="1.0" encoding="UTF-8" standalone="no"?>
<!-- Created with Inkscape (http://www.inkscape.org/) -->

<svg
   xmlns:dc="http://purl.org/dc/elements/1.1/"
   xmlns:cc="http://creativecommons.org/ns#"
   xmlns:rdf="http://www.w3.org/1999/02/22-rdf-syntax-ns#"
   xmlns:svg="http://www.w3.org/2000/svg"
   xmlns="http://www.w3.org/2000/svg"
   xmlns:xlink="http://www.w3.org/1999/xlink"
   xmlns:sodipodi="http://sodipodi.sourceforge.net/DTD/sodipodi-0.dtd"
   xmlns:inkscape="http://www.inkscape.org/namespaces/inkscape"
   width="42.95388mm"
   height="42.953861mm"
   viewBox="0 0 152.19879 152.19872"
   id="svg3456"
   version="1.1"
   inkscape:version="0.92.2 5c3e80d, 2017-08-06"
   sodipodi:docname="Eye-with-text.svg">
  <defs
     id="defs3458">
    <color-profile
       name="Generic-CMYK-Profile"
       xlink:href="/System/Library/ColorSync/Profiles/Generic CMYK Profile.icc"
       id="color-profile2416" />
    <inkscape:path-effect
       effect="bend_path"
       id="path-effect4857"
       is_visible="true"
       bendpath="m 661.67214,703.4823 c 10.72522,3.71132 21.78421,4.26888 33.61565,0"
       prop_scale="1"
       scale_y_rel="false"
       vertical="false"
       bendpath-nodetypes="cc" />
    <style
       id="style3057">.a{fill:#aaa;}</style>
  </defs>
  <sodipodi:namedview
     id="base"
     pagecolor="#ffffff"
     bordercolor="#666666"
     borderopacity="1.0"
     inkscape:pageopacity="0.0"
     inkscape:pageshadow="2"
     inkscape:zoom="3.6203867"
     inkscape:cx="75.078361"
     inkscape:cy="72.948729"
     inkscape:document-units="px"
     inkscape:current-layer="g4949-0-86-4"
     showgrid="false"
     fit-margin-top="0"
     fit-margin-left="0"
     fit-margin-right="0"
     fit-margin-bottom="0"
     inkscape:window-width="1280"
     inkscape:window-height="756"
     inkscape:window-x="1"
     inkscape:window-y="0"
     inkscape:window-maximized="0" />
  <metadata
     id="metadata3461">
    <rdf:RDF>
      <cc:Work
         rdf:about="">
        <dc:format>image/svg+xml</dc:format>
        <dc:type
           rdf:resource="http://purl.org/dc/dcmitype/StillImage" />
        <dc:title />
      </cc:Work>
    </rdf:RDF>
  </metadata>
  <g
     inkscape:label="Layer 1"
     inkscape:groupmode="layer"
     id="layer1"
     transform="translate(-549.22039,-511.73682)">
    <g
       transform="matrix(2.1517896,0,0,2.1517896,-1439.7458,41.032144)"
       style="font-style:normal;font-weight:normal;font-size:40px;line-height:125%;font-family:sans-serif;letter-spacing:0px;word-spacing:0px;fill:#333333;fill-opacity:1;stroke:none;stroke-width:1px;stroke-linecap:butt;stroke-linejoin:miter;stroke-opacity:1"
       id="g4949-0-86-4"
       inkscape:export-xdpi="414.48999"
       inkscape:export-ydpi="414.48999">
      <circle
         style="opacity:1;fill:#ffffff;fill-opacity:1;stroke:none;stroke-width:0.27883768;stroke-linejoin:miter;stroke-miterlimit:4;stroke-dasharray:none;stroke-opacity:1"
         id="path4143"
         cx="959.69727"
         cy="254.11621"
         ry="30.338053"
         rx="30.748821" />
      <path
         style="color:#000000;font-style:normal;font-variant:normal;font-weight:normal;font-stretch:normal;font-size:medium;line-height:125%;font-family:sans-serif;text-indent:0;text-align:start;text-decoration:none;text-decoration-line:none;text-decoration-style:solid;text-decoration-color:#000000;letter-spacing:0px;word-spacing:0px;text-transform:none;direction:ltr;block-progression:tb;writing-mode:lr-tb;baseline-shift:baseline;text-anchor:start;white-space:normal;clip-rule:nonzero;display:inline;overflow:visible;visibility:visible;opacity:1;isolation:auto;mix-blend-mode:normal;color-interpolation:sRGB;color-interpolation-filters:linearRGB;solid-color:#000000;solid-opacity:1;fill:#1a1a1a;fill-opacity:1;fill-rule:nonzero;stroke:none;stroke-width:6.66787004;stroke-linecap:butt;stroke-linejoin:miter;stroke-miterlimit:4;stroke-dasharray:none;stroke-dashoffset:46.09842682;stroke-opacity:1;color-rendering:auto;image-rendering:auto;shape-rendering:auto;text-rendering:auto;enable-background:accumulate"
         d="m 959.69727,218.75 c -19.4924,0 -35.36524,15.87283 -35.36524,35.36523 0,19.4924 15.87284,35.36719 35.36524,35.36719 19.49241,2e-5 35.36523,-15.87477 35.36523,-35.36719 0,-19.49241 -15.87282,-35.36525 -35.36523,-35.36523 z m 0,6.66797 c 15.88882,-2e-5 28.69726,12.80844 28.69726,28.69726 0,15.88883 -12.80844,28.69924 -28.69726,28.69922 -15.88882,0 -28.69727,-12.8104 -28.69727,-28.69922 0,-15.88881 12.80845,-28.69726 28.69727,-28.69726 z"
         id="path4584-7-0-5-2"
         inkscape:connector-curvature="0" />
      <g
         transform="matrix(0.78124733,0,0,0.78124733,47.97404,63.171149)"
         id="g4188-0-0-1-4-6-4-8-9-3-41-4-9-6"
         style="font-style:normal;font-weight:normal;font-size:40px;line-height:125%;font-family:sans-serif;letter-spacing:0px;word-spacing:0px;fill:#1a1a1a;fill-opacity:1;stroke:none;stroke-width:1px;stroke-linecap:butt;stroke-linejoin:miter;stroke-opacity:1">
        <path
           sodipodi:nodetypes="ccssscccccscccsccc"
           style="fill:#1a1a1a;fill-opacity:1"
           d="m 1176.4101,268.18951 c 7.3411,-0.69615 13.885,-4.72977 17.8594,-11.00838 1.007,-1.59088 2.1072,-4.0347 2.6392,-5.862 1.2757,-4.38257 1.2236,-9.39848 -0.1429,-13.72045 -1.3676,-4.32634 -4.2094,-8.4953 -7.6893,-11.28046 -5.7784,-4.62478 -13.3277,-6.30163 -20.4699,-4.54687 -0.594,0.14586 -1.1105,0.27464 -1.1484,0.28604 -0.037,0.0115 0.073,0.31764 0.2478,0.68047 0.6152,1.28388 1.0835,2.82814 1.3141,4.33338 0.1499,0.9851 0.1521,3.32471 0,4.36392 -0.7798,5.40627 -4.4701,10.10262 -9.5123,12.1056 -2.396,0.95175 -5.4915,1.3249 -7.8192,0.94244 -0.4455,-0.0732 -0.8667,-0.13388 -0.9363,-0.13434 -0.106,-9.1e-4 -0.1175,0.21983 -0.072,1.32994 0.3229,7.86459 4.5413,15.02776 11.2793,19.15301 3.1151,1.9072 6.4451,2.99464 10.3787,3.38922 0.7229,0.0726 3.1734,0.0537 4.0691,-0.0311 z"
           id="path5352-2-2-0-3-2-9-2-3-4-2-4-3-3-2"
           inkscape:connector-curvature="0" />
      </g>
      <g
         id="g3082"
         transform="matrix(0.41238068,-0.14057957,0.14057957,0.41238068,940.70151,310.09429)">
        <path
           id="path3069"
           d="m 79.154486,-39.084211 a 5.0946097,5.0946097 0 1 0 0.05519,0 z m 1.061377,8.491016 a 3.2647957,3.2647957 0 0 1 -3.264796,-3.230832 2.2586103,2.2586103 0 0 0 2.691653,-3.247814 3.2647957,3.2647957 0 1 1 0.573143,6.461664 v 0 z"
           class="a"
           inkscape:connector-curvature="0"
           style="opacity:1;fill:#333333;fill-opacity:1;stroke-width:0.4245508px" />
      </g>
    </g>
    <g
       transform="rotate(3.5041524,1448.4688,-244.52484)"
       id="layer1-6"
       inkscape:label="Layer 1"
       style="fill:#4d4d4d;fill-opacity:1">
      <g
         id="g4850"
         style="fill:#4d4d4d;fill-opacity:1">
        <path
           transform="translate(602.14284,559.20889)"
           style="font-style:normal;font-weight:normal;font-size:medium;line-height:125%;font-family:sans-serif;letter-spacing:0px;word-spacing:0px;fill:#333333;fill-opacity:1;stroke:none;stroke-width:1px;stroke-linecap:butt;stroke-linejoin:miter;stroke-opacity:1"
           d="m 90.368053,140.50087 c -0.255818,0.10712 -0.465673,0.30581 -0.609762,0.58122 -0.126575,0.24197 -0.180656,0.46282 -0.169911,0.71799 0.0072,0.16884 0.116513,0.52454 0.206348,0.66893 0.268874,0.43202 0.722064,0.66393 1.228377,0.61934 0.149482,-0.0131 0.476346,-0.13336 0.600476,-0.22097 0.248879,-0.17574 0.441688,-0.47899 0.51303,-0.8028 0.113455,-0.5158 -0.118443,-1.08745 -0.529587,-1.37431 -0.317819,-0.22178 -0.655861,-0.31395 -0.96796,-0.26517 -0.09507,0.0149 -0.185693,0.04 -0.271043,0.0757 1.1e-5,2e-5 2.1e-5,3e-5 3.2e-5,5e-5 z m -2.677312,0.82847 c -0.104784,0.0207 -0.21006,0.0544 -0.284161,0.0918 -0.205578,0.10389 -0.363629,0.30819 -0.436077,0.56249 -0.02634,0.0924 -0.105386,0.77847 -0.351311,2.323 -0.192137,1.20632 -0.38775,2.19674 -0.392924,2.20423 -0.0043,0.007 -0.469413,-0.69135 -1.005247,-1.56209 -1.381983,-2.24547 -1.322344,-2.24286 -1.404844,-2.34831 -0.09535,-0.12175 -0.264089,-0.25174 -0.383531,-0.29705 -0.200215,-0.0759 -0.496283,-0.0692 -0.719229,0.0168 -0.334083,0.1288 -0.602242,0.45902 -0.660042,0.81802 -0.02007,0.12355 -0.03444,0.29109 0.05927,0.51467 0.04034,0.10281 0.837209,1.63886 1.789983,3.26127 0.956706,1.62911 1.923299,3.09399 2.00971,3.20119 0.129032,0.16017 0.226536,0.24724 0.385281,0.34432 0.157671,0.0964 0.308963,0.14463 0.483679,0.14929 7.27e-4,-1.3e-4 0.0015,-2.7e-4 0.0022,-4.1e-4 0.133853,0.003 0.341179,-0.038 0.464087,-0.0909 0.299173,-0.12879 0.510135,-0.39671 0.623965,-0.79027 0.04794,-0.16576 0.388333,-1.88501 0.65488,-3.75668 0.264052,-1.85415 0.414657,-3.57926 0.409654,-3.67973 -0.0044,-0.24321 -0.07328,-0.36793 -0.130558,-0.46948 -0.0834,-0.14834 -0.174484,-0.24034 -0.336686,-0.34161 -0.170799,-0.10664 -0.312572,-0.15761 -0.491424,-0.17469 -0.07653,-0.007 -0.181929,0.003 -0.286643,0.0242 z M 64.154249,141.0837 c -0.930717,-0.21023 -1.790886,-0.081 -2.649248,0.40373 -0.681544,0.38485 -1.205505,0.93203 -1.572159,1.67936 -0.05547,0.11249 -0.235365,0.62061 -0.826998,2.33035 -0.708814,2.04838 -0.756148,2.19124 -0.762429,2.2948 -0.0087,0.14223 0.02824,0.35702 0.08084,0.47167 0.09349,0.2039 0.333288,0.42036 0.592232,0.53098 0.246757,0.10538 0.554307,0.15917 0.758915,0.1332 0.318214,-0.0404 0.546669,-0.18271 0.722438,-0.44492 0.02302,-0.0345 0.04601,-0.0691 0.06897,-0.10369 0.222411,-0.72984 0.44468,-1.45973 0.666808,-2.18965 0.5056,-1.66448 0.67326,-2.20267 0.701802,-2.24851 0.07488,-0.12021 0.155404,-0.23489 0.211829,-0.29558 0.211864,-0.22793 0.516805,-0.39046 0.848877,-0.46012 0.251116,-0.0526 0.409252,-0.055 0.725989,-0.0117 0.226937,0.0311 0.341727,0.0349 0.485355,0.0179 0.397828,-0.0471 0.65353,-0.28477 0.788231,-0.72079 0.04956,-0.16032 0.07068,-0.37585 0.05188,-0.50999 -0.0386,-0.27578 -0.18283,-0.52766 -0.387109,-0.67714 -0.133479,-0.0972 -0.250387,-0.14218 -0.506218,-0.19987 0,0 -9e-6,-6e-5 -9e-6,-6e-5 z m 15.944746,1.5114 c -0.112173,0.009 -0.225057,0.0273 -0.287546,0.0504 -0.270565,0.10009 -0.478492,0.3035 -0.582047,0.57195 -0.08716,0.22331 -0.08828,0.0975 0.04325,2.46227 0.0745,1.33753 0.114843,2.18205 0.110168,2.26923 -0.01264,0.20756 -0.05052,0.36693 -0.13517,0.55559 -0.127262,0.28348 -0.334124,0.5198 -0.596984,0.68122 -0.553748,0.33999 -1.338784,0.37327 -1.882214,0.0157 -0.348878,-0.2043 -0.647392,-0.59731 -0.670512,-1.0672 0.0026,-0.75383 0.0054,-1.50766 0.0083,-2.26148 0.0093,-2.06055 0.0095,-2.27001 -0.0122,-2.35722 -0.09213,-0.372 -0.328877,-0.63595 -0.663825,-0.74623 -0.145353,-0.0481 -0.445665,-0.0625 -0.588001,-0.0278 -0.270479,0.0663 -0.491994,0.23649 -0.613836,0.47157 -0.154177,0.31872 -0.113001,0.0548 -0.239642,2.4446 -0.117821,2.22504 -0.126847,2.48145 -0.08173,2.83523 0.09008,0.70555 0.372699,1.31929 0.884442,1.86994 0.700685,0.75394 1.662147,1.17375 2.777421,1.19869 1.169542,0.0257 2.141547,-0.3132 2.88086,-0.98538 0.60821,-0.55295 0.976707,-1.22979 1.10032,-1.96992 0.08046,-0.47722 0.08778,-0.34533 -0.170822,-2.962 l -0.230455,-2.33184 c -0.02903,-0.15004 -0.137132,-0.34913 -0.324946,-0.50516 -0.132414,-0.11137 -0.278425,-0.17406 -0.434827,-0.2063 -0.0648,-0.0133 -0.177863,-0.0147 -0.290049,-0.006 1.7e-5,7e-5 3.5e-5,1.3e-4 5.2e-5,1.9e-4 z m 11.627882,1.24623 c -0.279161,0.0582 -0.506501,0.17296 -0.678497,0.34441 -0.120259,0.11985 -0.232856,0.3333 -0.260274,0.49703 -0.04341,0.26288 -0.07445,0.13619 0.512966,2.08193 0.489532,1.62152 0.52659,1.74378 0.581877,1.83084 0.07826,0.12269 0.234133,0.27379 0.343076,0.33417 0.198585,0.11014 0.521551,0.14393 0.797883,0.0814 0.263547,-0.0597 0.544319,-0.19626 0.69603,-0.33766 0.233795,-0.21794 0.337276,-0.47217 0.325618,-0.78664 -0.0053,-0.1209 -0.0075,-0.1313 -0.562964,-1.72281 -0.363606,-1.03884 -0.587053,-1.65801 -0.635027,-1.76169 -0.237319,-0.51582 -0.570365,-0.67566 -1.120693,-0.56102 2e-6,0 3e-6,0 5e-6,0 z"
           id="path4874"
           inkscape:connector-curvature="0" />
      </g>
      <path
         style="font-style:normal;font-weight:normal;font-size:30.69309235px;line-height:125%;font-family:sans-serif;letter-spacing:0px;word-spacing:0px;fill:#333333;fill-opacity:1;stroke:none;stroke-width:1px;stroke-linecap:butt;stroke-linejoin:miter;stroke-opacity:1"
         d="m 670.31611,710.18083 c -1.09551,-0.21108 -1.97269,-0.7849 -2.53884,-1.64598 -0.4135,-0.62893 -0.59134,-1.28204 -0.56307,-1.99363 0.0142,-0.35686 0.0648,-0.60919 0.55084,-2.78641 0.52208,-2.33832 0.43754,-2.08369 0.64285,-2.37274 0.15948,-0.21187 0.40768,-0.34234 0.68615,-0.36298 0.14658,-0.0109 0.44106,0.0524 0.57685,0.12409 0.31293,0.16461 0.50305,0.46438 0.53219,0.84705 0.007,0.0897 -0.0274,0.29626 -0.37987,2.32928 0,10e-6 -0.3859,2.23182 -0.3859,2.23182 -0.0555,0.46781 0.17276,0.9062 0.483,1.16616 0.47669,0.44383 1.25695,0.54222 1.86032,0.29934 0.28644,-0.11533 0.53042,-0.31489 0.70362,-0.57342 0.11533,-0.17206 0.17959,-0.32166 0.22695,-0.52449 0.0192,-0.0852 0.12106,-0.92683 0.2722,-2.25989 0.2674,-2.35696 0.24763,-2.23242 0.37154,-2.43821 0.1476,-0.24762 0.38825,-0.41355 0.67309,-0.46675 0.13046,-0.0243 0.45618,0.006 0.57895,0.0537 0.14945,0.0583 0.28417,0.14536 0.39645,0.27774 0.15958,0.18585 0.23254,0.39982 0.23585,0.55283 l -0.16712,2.34075 c -0.18753,2.62671 -0.17149,2.49685 -0.33155,2.95437 -0.24705,0.70969 -0.72543,1.31463 -1.41796,1.7582 -0.8424,0.5396 -1.85692,0.71097 -3.0068,0.48947 9e-5,-9e-5 1.7e-4,-1.7e-4 2.6e-4,-2.6e-4 z"
         id="path4874-8"
         inkscape:connector-curvature="0" />
      <g
         style="fill:#4d4d4d;fill-opacity:1"
         id="g3087">
        <path
           transform="translate(602.14284,559.20889)"
           style="font-style:normal;font-weight:normal;font-size:medium;line-height:125%;font-family:sans-serif;letter-spacing:0px;word-spacing:0px;fill:#333333;fill-opacity:1;stroke:none;stroke-width:1px;stroke-linecap:butt;stroke-linejoin:miter;stroke-opacity:1"
           d="m 90.368053,140.50087 c -0.255818,0.10712 -0.465673,0.30581 -0.609762,0.58122 -0.126575,0.24197 -0.180656,0.46282 -0.169911,0.71799 0.0072,0.16884 0.116513,0.52454 0.206348,0.66893 0.268874,0.43202 0.722064,0.66393 1.228377,0.61934 0.149482,-0.0131 0.476346,-0.13336 0.600476,-0.22097 0.248879,-0.17574 0.441688,-0.47899 0.51303,-0.8028 0.113455,-0.5158 -0.118443,-1.08745 -0.529587,-1.37431 -0.317819,-0.22178 -0.655861,-0.31395 -0.96796,-0.26517 -0.09507,0.0149 -0.185693,0.04 -0.271043,0.0757 1.1e-5,2e-5 2.1e-5,3e-5 3.2e-5,5e-5 z m -2.677312,0.82847 c -0.104784,0.0207 -0.21006,0.0544 -0.284161,0.0918 -0.205578,0.10389 -0.363629,0.30819 -0.436077,0.56249 -0.02634,0.0924 -0.105386,0.77847 -0.351311,2.323 -0.192137,1.20632 -0.38775,2.19674 -0.392924,2.20423 -0.0043,0.007 -0.469413,-0.69135 -1.005247,-1.56209 -1.381983,-2.24547 -1.322344,-2.24286 -1.404844,-2.34831 -0.09535,-0.12175 -0.264089,-0.25174 -0.383531,-0.29705 -0.200215,-0.0759 -0.496283,-0.0692 -0.719229,0.0168 -0.334083,0.1288 -0.602242,0.45902 -0.660042,0.81802 -0.02007,0.12355 -0.03444,0.29109 0.05927,0.51467 0.04034,0.10281 0.837209,1.63886 1.789983,3.26127 0.956706,1.62911 1.923299,3.09399 2.00971,3.20119 0.129032,0.16017 0.226536,0.24724 0.385281,0.34432 0.157671,0.0964 0.308963,0.14463 0.483679,0.14929 7.27e-4,-1.3e-4 0.0015,-2.7e-4 0.0022,-4.1e-4 0.133853,0.003 0.341179,-0.038 0.464087,-0.0909 0.299173,-0.12879 0.510135,-0.39671 0.623965,-0.79027 0.04794,-0.16576 0.388333,-1.88501 0.65488,-3.75668 0.264052,-1.85415 0.414657,-3.57926 0.409654,-3.67973 -0.0044,-0.24321 -0.07328,-0.36793 -0.130558,-0.46948 -0.0834,-0.14834 -0.174484,-0.24034 -0.336686,-0.34161 -0.170799,-0.10664 -0.312572,-0.15761 -0.491424,-0.17469 -0.07653,-0.007 -0.181929,0.003 -0.286643,0.0242 z M 64.154249,141.0837 c -0.930717,-0.21023 -1.790886,-0.081 -2.649248,0.40373 -0.681544,0.38485 -1.205505,0.93203 -1.572159,1.67936 -0.05547,0.11249 -0.235365,0.62061 -0.826998,2.33035 -0.708814,2.04838 -0.756148,2.19124 -0.762429,2.2948 -0.0087,0.14223 0.02824,0.35702 0.08084,0.47167 0.09349,0.2039 0.333288,0.42036 0.592232,0.53098 0.246757,0.10538 0.554307,0.15917 0.758915,0.1332 0.318214,-0.0404 0.546669,-0.18271 0.722438,-0.44492 0.02302,-0.0345 0.04601,-0.0691 0.06897,-0.10369 0.222411,-0.72984 0.44468,-1.45973 0.666808,-2.18965 0.5056,-1.66448 0.67326,-2.20267 0.701802,-2.24851 0.07488,-0.12021 0.155404,-0.23489 0.211829,-0.29558 0.211864,-0.22793 0.516805,-0.39046 0.848877,-0.46012 0.251116,-0.0526 0.409252,-0.055 0.725989,-0.0117 0.226937,0.0311 0.341727,0.0349 0.485355,0.0179 0.397828,-0.0471 0.65353,-0.28477 0.788231,-0.72079 0.04956,-0.16032 0.07068,-0.37585 0.05188,-0.50999 -0.0386,-0.27578 -0.18283,-0.52766 -0.387109,-0.67714 -0.133479,-0.0972 -0.250387,-0.14218 -0.506218,-0.19987 0,0 -9e-6,-6e-5 -9e-6,-6e-5 z m 15.944746,1.5114 c -0.112173,0.009 -0.225057,0.0273 -0.287546,0.0504 -0.270565,0.10009 -0.478492,0.3035 -0.582047,0.57195 -0.08716,0.22331 -0.08828,0.0975 0.04325,2.46227 0.0745,1.33753 0.114843,2.18205 0.110168,2.26923 -0.01264,0.20756 -0.05052,0.36693 -0.13517,0.55559 -0.127262,0.28348 -0.334124,0.5198 -0.596984,0.68122 -0.553748,0.33999 -1.338784,0.37327 -1.882214,0.0157 -0.348878,-0.2043 -0.647392,-0.59731 -0.670512,-1.0672 0.0026,-0.75383 0.0054,-1.50766 0.0083,-2.26148 0.0093,-2.06055 0.0095,-2.27001 -0.0122,-2.35722 -0.09213,-0.372 -0.328877,-0.63595 -0.663825,-0.74623 -0.145353,-0.0481 -0.445665,-0.0625 -0.588001,-0.0278 -0.270479,0.0663 -0.491994,0.23649 -0.613836,0.47157 -0.154177,0.31872 -0.113001,0.0548 -0.239642,2.4446 -0.117821,2.22504 -0.126847,2.48145 -0.08173,2.83523 0.09008,0.70555 0.372699,1.31929 0.884442,1.86994 0.700685,0.75394 1.662147,1.17375 2.777421,1.19869 1.169542,0.0257 2.141547,-0.3132 2.88086,-0.98538 0.60821,-0.55295 0.976707,-1.22979 1.10032,-1.96992 0.08046,-0.47722 0.08778,-0.34533 -0.170822,-2.962 l -0.230455,-2.33184 c -0.02903,-0.15004 -0.137132,-0.34913 -0.324946,-0.50516 -0.132414,-0.11137 -0.278425,-0.17406 -0.434827,-0.2063 -0.0648,-0.0133 -0.177863,-0.0147 -0.290049,-0.006 1.7e-5,7e-5 3.5e-5,1.3e-4 5.2e-5,1.9e-4 z m 11.627882,1.24623 c -0.279161,0.0582 -0.506501,0.17296 -0.678497,0.34441 -0.120259,0.11985 -0.232856,0.3333 -0.260274,0.49703 -0.04341,0.26288 -0.07445,0.13619 0.512966,2.08193 0.489532,1.62152 0.52659,1.74378 0.581877,1.83084 0.07826,0.12269 0.234133,0.27379 0.343076,0.33417 0.198585,0.11014 0.521551,0.14393 0.797883,0.0814 0.263547,-0.0597 0.544319,-0.19626 0.69603,-0.33766 0.233795,-0.21794 0.337276,-0.47217 0.325618,-0.78664 -0.0053,-0.1209 -0.0075,-0.1313 -0.562964,-1.72281 -0.363606,-1.03884 -0.587053,-1.65801 -0.635027,-1.76169 -0.237319,-0.51582 -0.570365,-0.67566 -1.120693,-0.56102 2e-6,0 3e-6,0 5e-6,0 z"
           id="path3085"
           inkscape:connector-curvature="0" />
      </g>
    </g>
  </g>
</svg>
