<?xml version="1.0" encoding="UTF-8" standalone="no"?>
<!-- Created with Inkscape (http://www.inkscape.org/) -->

<svg
   xmlns:dc="http://purl.org/dc/elements/1.1/"
   xmlns:cc="http://creativecommons.org/ns#"
   xmlns:rdf="http://www.w3.org/1999/02/22-rdf-syntax-ns#"
   xmlns:svg="http://www.w3.org/2000/svg"
   xmlns="http://www.w3.org/2000/svg"
   xmlns:sodipodi="http://sodipodi.sourceforge.net/DTD/sodipodi-0.dtd"
   xmlns:inkscape="http://www.inkscape.org/namespaces/inkscape"
   id="svg4136"
   version="1.1"
   inkscape:version="0.91 r13725"
   xml:space="preserve"
   width="658.5119"
   height="159.28792"
   viewBox="0 0 658.5119 159.28792"
   sodipodi:docname="Logo.svg"><title
     id="title4160">Ruuvi logo black</title><metadata
     id="metadata4142"><rdf:RDF><cc:Work
         rdf:about=""><dc:format>image/svg+xml</dc:format><dc:type
           rdf:resource="http://purl.org/dc/dcmitype/StillImage" /><dc:title>Ruuvi logo black</dc:title></cc:Work></rdf:RDF></metadata><defs
     id="defs4140" /><sodipodi:namedview
     pagecolor="#ffffff"
     bordercolor="#666666"
     borderopacity="1"
     objecttolerance="10"
     gridtolerance="10"
     guidetolerance="10"
     inkscape:pageopacity="0"
     inkscape:pageshadow="2"
     inkscape:window-width="1920"
     inkscape:window-height="1027"
     id="namedview4138"
     showgrid="false"
     inkscape:zoom="2.2095273"
     inkscape:cx="329.25595"
     inkscape:cy="79.643959"
     inkscape:window-x="-8"
     inkscape:window-y="-8"
     inkscape:window-maximized="1"
     inkscape:current-layer="g4146" /><g
     id="g4144"
     inkscape:groupmode="layer"
     inkscape:label="Logo"
     transform="matrix(1.25,0,0,-1.25,0,159.28792)"><g
       id="g4146"><path
         d="m 463.117,124.618 c -33.555,0 -60.879,-27.324 -60.879,-60.879 0,-33.555 27.324,-60.883 60.879,-60.883 33.555,0 60.879,27.328 60.879,60.883 0,33.555 -27.324,60.879 -60.879,60.879 z m 0,-11.477 c 27.352,0 49.403,-22.051 49.403,-49.402 0,-27.352 -22.051,-49.402 -49.403,-49.402 -27.351,0 -49.398,22.05 -49.398,49.402 0,27.351 22.047,49.402 49.398,49.402 z"
         style="fill:#333333;fill-opacity:1;fill-rule:nonzero;stroke:none"
         id="path4150"
         inkscape:connector-curvature="0" /><path
         d="m 475.762,31.758 c 9.871,0.938 18.672,6.36 24.015,14.805 1.356,2.141 2.836,5.426 3.551,7.883 1.715,5.894 1.645,12.641 -0.191,18.453 -1.84,5.816 -5.66,11.426 -10.34,15.172 -7.774,6.219 -17.926,8.473 -27.531,6.113 -0.797,-0.195 -1.493,-0.371 -1.543,-0.383 -0.051,-0.015 0.097,-0.429 0.332,-0.918 0.828,-1.726 1.457,-3.8 1.765,-5.828 0.203,-1.324 0.207,-4.468 0,-5.867 -1.047,-7.269 -6.011,-13.586 -12.789,-16.281 -3.222,-1.281 -7.386,-1.781 -10.519,-1.266 -0.598,0.098 -1.164,0.18 -1.258,0.18 -0.141,0 -0.156,-0.297 -0.098,-1.789 0.438,-10.578 6.11,-20.211 15.172,-25.758 4.188,-2.566 8.668,-4.027 13.957,-4.559 0.973,-0.097 4.266,-0.07 5.473,0.043 l 0.004,0 z"
         style="fill:#333333;fill-opacity:1;fill-rule:nonzero;stroke:none"
         id="path4152"
         inkscape:connector-curvature="0" /><path
         d="m 297.605,19.579 c -0.851,1.703 -31.226,78.789 -31.636,80.297 -0.809,2.699 -0.422,4.605 0.004,6 1.218,4.047 4.992,7.441 9.339,8.398 2.895,0.641 6.547,0.238 8.868,-0.98 1.386,-0.727 3.187,-2.516 4.113,-4.082 0.797,-1.352 0.691,-1.09 11.863,-29.465 4.332,-11.004 7.93,-19.953 7.992,-19.887 0.067,0.07 4.344,10.887 9.52,24.039 6.625,16.844 9.648,24.316 10.223,25.285 1.586,2.672 4.097,4.539 6.898,5.133 2.02,0.426 5.434,0.258 7.234,-0.355 2.094,-0.715 3.657,-1.715 5.344,-3.418 1.606,-1.621 2.383,-2.93 2.883,-4.836 0.344,-1.313 0.738,-2.907 0,-5.629 C 349.91,98.649 319.73,21.965 318.582,19.622 314,8.95 301.27,10.977 297.605,19.575 l 0,0.004 z M 13.199,12.255 c -2.906,0.285 -6,1.765 -7.609,3.636 -0.902,1.051 -2.008,3.278 -2.41,4.852 -0.418,1.984 -0.309,2.887 -0.309,27.855 0,20.848 0.047,27.028 0.227,28.469 1.183,9.516 4.906,17.457 11.293,24.106 8.031,8.351 17.793,12.695 29.558,13.144 3.223,0.125 4.778,-0.055 6.656,-0.754 2.903,-1.086 5.368,-3.496 6.622,-6.48 0.613,-1.45 0.968,-3.922 0.847,-5.852 -0.336,-5.254 -2.625,-8.586 -7.035,-10.246 -1.609,-0.605 -2.906,-0.887 -5.601,-1.219 -3.723,-0.453 -5.575,-0.98 -8.231,-2.34 -3.543,-1.812 -6.406,-4.605 -8.012,-7.82 -0.429,-0.859 -0.961,-2.367 -1.39,-3.941 C 27.438,73.45 27.566,68.548 27.488,48.512 27.625,24.985 27.68,23.169 27,20.77 c -0.98,-3.476 -2.832,-5.785 -5.871,-7.32 -1.945,-0.981 -5.16,-1.465 -7.93,-1.195 z m 196.035,0.007 c -11.57,0.539 -21.582,5.207 -29.277,13.649 -5.621,6.164 -9.008,13.062 -10.379,21.148 -0.687,4.047 -0.75,7.02 -0.687,32.719 0.066,27.582 -0.262,24.559 1.418,28.293 1.351,2.777 3.992,4.852 7.304,5.73 1.754,0.469 5.442,0.414 7.266,-0.101 4.176,-1.18 7.117,-4.195 8.277,-8.477 0.27,-0.996 0.305,-3.425 0.391,-27.195 l 0.101,-26.102 c 0.297,-5.41 3.606,-9.949 7.372,-12.316 5.859,-4.141 14.312,-3.965 20.449,-0.312 5.082,3.417 8.054,8.441 8.691,13.851 0.11,0.988 0.176,10.789 0.176,26.246 0,27.34 -0.066,25.903 1.148,28.414 1.457,3.028 4.176,5.231 7.614,6.164 1.586,0.434 5.593,0.434 7.168,0.004 1.898,-0.523 3.64,-1.398 5.14,-2.816 2.129,-1.996 3.196,-4.399 3.367,-6.156 l 0,-27.067 c 0,-30.398 0.071,-28.836 -1.312,-34.262 -2.125,-8.367 -6.758,-15.738 -13.578,-21.586 -8.313,-7.128 -18.496,-10.394 -30.656,-9.828 l 0.007,0 z m 163.09,-0.007 c -2.906,0.285 -5.984,1.757 -7.617,3.636 -1.652,2.09 -1.988,3.242 -2.402,4.852 -0.391,1.801 -0.309,2.621 -0.309,22.16 0,23.441 0,21.297 1.274,24.703 0.843,1.719 2.773,3.684 4.511,4.59 2.473,1.289 5.395,1.754 8.657,1.375 6.441,-0.75 9.417,-3.82 10.007,-10.32 0.121,-1.325 0.16,-8.875 0.125,-21.571 -0.066,-19.429 -0.066,-18.531 -0.437,-20.882 -0.977,-3.465 -2.867,-5.829 -5.875,-7.348 -1.949,-0.981 -5.164,-1.465 -7.93,-1.195 l -0.004,0 z"
         style="fill:#333333;fill-opacity:1;fill-rule:nonzero;stroke:none"
         id="path4154"
         inkscape:connector-curvature="0" /><path
         d="m 111.172,12.059 c -11.57,0.539 -21.582,5.207 -29.277,13.649 -5.622,6.164 -9.008,13.066 -10.379,21.148 -0.688,4.047 -0.75,7.024 -0.688,32.719 0.07,27.582 -0.262,24.558 1.422,28.293 1.348,2.777 3.988,4.851 7.301,5.73 1.754,0.469 5.441,0.418 7.265,-0.097 4.176,-1.184 7.118,-4.196 8.278,-8.481 0.269,-0.996 0.304,-3.426 0.39,-27.195 l 0.102,-26.102 c 0.297,-5.41 3.609,-9.949 7.371,-12.316 5.863,-4.141 14.316,-3.965 20.453,-0.313 2.918,1.739 5.301,4.356 6.86,7.547 1.042,2.129 1.558,3.918 1.828,6.309 0.109,0.984 0.175,10.785 0.175,26.242 0.004,27.34 -0.066,25.902 1.153,28.414 1.453,3.027 4.172,5.231 7.609,6.164 1.59,0.434 5.594,0.434 7.168,0.004 1.899,-0.519 3.641,-1.394 5.141,-2.816 2.129,-1.996 3.199,-4.399 3.371,-6.157 l 0,-27.066 c 0,-30.398 0.066,-28.836 -1.317,-34.258 -2.121,-8.371 -6.757,-15.742 -13.574,-21.59 -8.312,-7.129 -18.5,-10.394 -30.656,-9.828 l 0.004,0 z"
         style="fill:#333333;fill-opacity:1;fill-rule:nonzero;stroke:none"
         id="path4156"
         inkscape:connector-curvature="0" /><path
         d="m 389.441,99.501 c 0,-8.52 -6.91,-15.426 -15.429,-15.426 -8.52,0 -15.43,6.906 -15.43,15.426 0,8.523 6.91,15.429 15.43,15.429 8.519,0 15.429,-6.906 15.429,-15.429 z"
         style="fill:#333333;fill-opacity:1;fill-rule:nonzero;stroke:none"
         id="path4158"
         inkscape:connector-curvature="0" /></g></g></svg>