<?xml version="1.0" encoding="UTF-8" standalone="no"?>
<!-- Created with Inkscape (http://www.inkscape.org/) -->

<svg
   xmlns:dc="http://purl.org/dc/elements/1.1/"
   xmlns:cc="http://creativecommons.org/ns#"
   xmlns:rdf="http://www.w3.org/1999/02/22-rdf-syntax-ns#"
   xmlns:svg="http://www.w3.org/2000/svg"
   xmlns="http://www.w3.org/2000/svg"
   xmlns:xlink="http://www.w3.org/1999/xlink"
   xmlns:sodipodi="http://sodipodi.sourceforge.net/DTD/sodipodi-0.dtd"
   xmlns:inkscape="http://www.inkscape.org/namespaces/inkscape"
   width="185.84668mm"
   height="44.95459mm"
   viewBox="0 0 658.51185 159.28792"
   id="svg3456"
   version="1.1"
   inkscape:version="0.91 r13725"
   sodipodi:docname="Logo.svg">
  <defs
     id="defs3458">
    <color-profile
       name="Generic-CMYK-Profile"
       xlink:href="/System/Library/ColorSync/Profiles/Generic CMYK Profile.icc"
       id="color-profile5846" />
  </defs>
  <sodipodi:namedview
     id="base"
     pagecolor="#ffffff"
     bordercolor="#666666"
     borderopacity="1.0"
     inkscape:pageopacity="0.0"
     inkscape:pageshadow="2"
     inkscape:zoom="1.4"
     inkscape:cx="245.61325"
     inkscape:cy="86.784181"
     inkscape:document-units="px"
     inkscape:current-layer="layer1"
     showgrid="false"
     fit-margin-top="0"
     fit-margin-left="0"
     fit-margin-right="0"
     fit-margin-bottom="0"
     inkscape:window-width="1280"
     inkscape:window-height="756"
     inkscape:window-x="1"
     inkscape:window-y="0"
     inkscape:window-maximized="0" />
  <metadata
     id="metadata3461">
    <rdf:RDF>
      <cc:Work
         rdf:about="">
        <dc:format>image/svg+xml</dc:format>
        <dc:type
           rdf:resource="http://purl.org/dc/dcmitype/StillImage" />
        <dc:title />
      </cc:Work>
    </rdf:RDF>
  </metadata>
  <g
     inkscape:label="Layer 1"
     inkscape:groupmode="layer"
     id="layer1"
     transform="translate(-49.994111,-504.64949)">
    <ellipse
       style="opacity:1;fill:#ffffff;fill-opacity:1;stroke:none;stroke-width:0.2;stroke-miterlimit:4;stroke-dasharray:none;stroke-opacity:1"
       id="path5501"
       cx="628.58075"
       cy="583.93555"
       rx="69.285713"
       ry="67.85714" />
    <g
       transform="matrix(2.1517896,0,0,2.1517896,-1436.1744,37.460715)"
       style="font-style:normal;font-weight:normal;font-size:40px;line-height:125%;font-family:sans-serif;letter-spacing:0px;word-spacing:0px;fill:#333333;fill-opacity:1;stroke:none;stroke-width:1px;stroke-linecap:butt;stroke-linejoin:miter;stroke-opacity:1"
       id="g4949-0-86-4"
       inkscape:export-xdpi="18395.668"
       inkscape:export-ydpi="18395.668">
      <path
         style="color:#000000;font-style:normal;font-variant:normal;font-weight:normal;font-stretch:normal;font-size:medium;line-height:125%;font-family:sans-serif;text-indent:0;text-align:start;text-decoration:none;text-decoration-line:none;text-decoration-style:solid;text-decoration-color:#000000;letter-spacing:0px;word-spacing:0px;text-transform:none;direction:ltr;block-progression:tb;writing-mode:lr-tb;baseline-shift:baseline;text-anchor:start;white-space:normal;clip-rule:nonzero;display:inline;overflow:visible;visibility:visible;opacity:1;isolation:auto;mix-blend-mode:normal;color-interpolation:sRGB;color-interpolation-filters:linearRGB;solid-color:#000000;solid-opacity:1;fill:#1a1a1a;fill-opacity:1;fill-rule:nonzero;stroke:none;stroke-width:6.66787004;stroke-linecap:butt;stroke-linejoin:miter;stroke-miterlimit:4;stroke-dasharray:none;stroke-dashoffset:46.09842682;stroke-opacity:1;color-rendering:auto;image-rendering:auto;shape-rendering:auto;text-rendering:auto;enable-background:accumulate"
         d="m 959.69727,218.75 c -19.4924,0 -35.36524,15.87283 -35.36524,35.36523 0,19.4924 15.87284,35.36719 35.36524,35.36719 19.49241,2e-5 35.36523,-15.87477 35.36523,-35.36719 0,-19.49241 -15.87282,-35.36525 -35.36523,-35.36523 z m 0,6.66797 c 15.88882,-2e-5 28.69726,12.80844 28.69726,28.69726 0,15.88883 -12.80844,28.69924 -28.69726,28.69922 -15.88882,0 -28.69727,-12.8104 -28.69727,-28.69922 0,-15.88881 12.80845,-28.69726 28.69727,-28.69726 z"
         id="path4584-7-0-5-2"
         inkscape:connector-curvature="0" />
      <g
         transform="matrix(0.78124733,0,0,0.78124733,47.97404,63.171149)"
         id="g4188-0-0-1-4-6-4-8-9-3-41-4-9-6"
         style="font-style:normal;font-weight:normal;font-size:40px;line-height:125%;font-family:sans-serif;letter-spacing:0px;word-spacing:0px;fill:#333333;fill-opacity:1;stroke:none;stroke-width:1px;stroke-linecap:butt;stroke-linejoin:miter;stroke-opacity:1">
        <path
           sodipodi:nodetypes="ccssscccccscccsccc"
           style="fill:#1a1a1a;fill-opacity:1"
           d="m 1176.4101,268.18951 c 7.3411,-0.69615 13.885,-4.72977 17.8594,-11.00838 1.007,-1.59088 2.1072,-4.0347 2.6392,-5.862 1.2757,-4.38257 1.2236,-9.39848 -0.1429,-13.72045 -1.3676,-4.32634 -4.2094,-8.4953 -7.6893,-11.28046 -5.7784,-4.62478 -13.3277,-6.30163 -20.4699,-4.54687 -0.594,0.14586 -1.1105,0.27464 -1.1484,0.28604 -0.037,0.0115 0.073,0.31764 0.2478,0.68047 0.6152,1.28388 1.0835,2.82814 1.3141,4.33338 0.1499,0.9851 0.1521,3.32471 0,4.36392 -0.7798,5.40627 -4.4701,10.10262 -9.5123,12.1056 -2.396,0.95175 -5.4915,1.3249 -7.8192,0.94244 -0.4455,-0.0732 -0.8667,-0.13388 -0.9363,-0.13434 -0.106,-9.1e-4 -0.1175,0.21983 -0.072,1.32994 0.3229,7.86459 4.5413,15.02776 11.2793,19.15301 3.1151,1.9072 6.4451,2.99464 10.3787,3.38922 0.7229,0.0726 3.1734,0.0537 4.0691,-0.0311 z"
           id="path5352-2-2-0-3-2-9-2-3-4-2-4-3-3-2"
           inkscape:connector-curvature="0" />
      </g>
    </g>
    <g
       transform="matrix(8.446169,0,0,8.446169,-8198.3212,-1704.7493)"
       style="font-style:normal;font-weight:normal;font-size:30.69309235px;line-height:125%;font-family:sans-serif;letter-spacing:0px;word-spacing:0px;fill:#333333;fill-opacity:1;stroke:none;stroke-width:1px;stroke-linecap:butt;stroke-linejoin:miter;stroke-opacity:1"
       id="g4920"
       inkscape:export-xdpi="5730.8101"
       inkscape:export-ydpi="5730.8101">
      <g
         id="g4931"
         style="fill:#333333;fill-opacity:1" />
      <g
         id="g5364"
         style="fill:#1a1a1a;fill-opacity:1">
        <g
           id="g5368"
           style="fill:#1a1a1a;fill-opacity:1">
          <g
             id="g4726"
             style="fill:#1a1a1a;fill-opacity:1">
            <path
               sodipodi:nodetypes="cccccccccccccccccccscsccccccccccccccccscccccccccccccccscccccccsccccccccccc"
               inkscape:connector-curvature="0"
               id="path4874"
               d="m 1020.6193,277.54759 c -0.1263,-0.25222 -4.6214,-11.66059 -4.6824,-11.88377 -0.1195,-0.3992 -0.062,-0.68128 6e-4,-0.88786 0.1807,-0.59883 0.7392,-1.10112 1.3824,-1.24323 0.4285,-0.0947 0.969,-0.0348 1.3123,0.14541 0.2052,0.10776 0.4715,0.37215 0.6085,0.60411 0.1182,0.20025 0.1025,0.16136 1.7562,4.36089 0.6412,1.62847 1.1734,2.95266 1.1825,2.94263 0.01,-0.01 0.6431,-1.61076 1.4089,-3.55717 0.9808,-2.49327 1.4279,-3.59908 1.5131,-3.7425 0.2346,-0.39507 0.6064,-0.6715 1.021,-0.7592 0.2988,-0.0632 0.804,-0.0385 1.0703,0.0524 0.3103,0.10588 0.5411,0.25349 0.7911,0.50595 0.2374,0.23975 0.3528,0.43348 0.4263,0.7154 0.051,0.19441 0.1095,0.4304 0,0.83344 -0.05,0.21128 -4.5164,11.56016 -4.6862,11.90694 -0.6783,1.57957 -2.5624,1.27972 -3.1046,0.007 z m -42.0911,1.08373 c -0.43019,-0.0423 -0.88804,-0.26104 -1.12607,-0.53806 -0.13361,-0.1555 -0.29714,-0.48492 -0.35654,-0.71822 -0.062,-0.29351 -0.0462,-0.42729 -0.0462,-4.12228 0,-3.08535 0.007,-3.99988 0.0338,-4.21302 0.17509,-1.40846 0.72589,-2.58408 1.67156,-3.56778 1.18845,-1.23623 2.63297,-1.87866 4.37431,-1.94539 0.47669,-0.0183 0.70698,0.008 0.9852,0.11185 0.42934,0.16045 0.79401,0.5172 0.97994,0.95866 0.0905,0.21485 0.14329,0.58052 0.12511,0.86643 -0.0494,0.77706 -0.38835,1.27067 -1.04126,1.51642 -0.23791,0.0896 -0.42966,0.13118 -0.82862,0.1799 -0.55092,0.0673 -0.82505,0.14522 -1.21805,0.34628 -0.52424,0.26822 -0.94809,0.68198 -1.1859,1.1577 -0.0634,0.12682 -0.1422,0.3501 -0.2059,0.58334 -0.0541,0.3279 -0.0354,1.05294 -0.0468,4.01857 0.0201,3.48164 0.0287,3.75045 -0.0722,4.10522 -0.14499,0.51458 -0.41918,0.85655 -0.86875,1.08349 -0.28819,0.14548 -0.7638,0.21716 -1.17363,0.17689 z m 29.0123,-0.001 c -1.7121,-0.0799 -3.1939,-0.77066 -4.3327,-2.01983 -0.8319,-0.91252 -1.3331,-1.9335 -1.5363,-3.12995 -0.1016,-0.59869 -0.1109,-1.03917 -0.1016,-4.84237 0.01,-4.08187 -0.039,-3.63429 0.2101,-4.1871 0.1997,-0.41124 0.5904,-0.71791 1.0808,-0.84823 0.2597,-0.069 0.8055,-0.0614 1.0751,0.0149 0.618,0.17499 1.0533,0.62083 1.2251,1.25485 0.04,0.1474 0.045,0.50671 0.058,4.02486 l 0.015,3.86301 c 0.044,0.8003 0.5338,1.47212 1.0907,1.82246 0.8676,0.61297 2.1186,0.5867 3.0268,0.0465 0.7519,-0.50595 1.1919,-1.24972 1.286,-2.05041 0.016,-0.1462 0.026,-1.59657 0.026,-3.88382 3e-4,-4.04657 -0.01,-3.83347 0.1703,-4.20518 0.2154,-0.44817 0.6177,-0.77417 1.1263,-0.91267 0.2351,-0.064 0.8278,-0.0641 1.0611,-2.3e-4 0.2809,0.077 0.5387,0.20649 0.7605,0.41687 0.315,0.29515 0.4733,0.65089 0.4988,0.91085 l 0,4.00561 c 0,4.49911 0.01,4.2677 -0.1947,5.07048 -0.3142,1.23859 -1.0001,2.32942 -2.0091,3.19484 -1.2303,1.0553 -2.7376,1.53855 -4.5371,1.45461 z m 24.1366,0.001 c -0.4297,-0.0422 -0.8856,-0.25986 -1.1272,-0.53806 -0.2444,-0.30927 -0.2943,-0.47987 -0.3552,-0.71822 -0.058,-0.26658 -0.046,-0.38766 -0.046,-3.27968 0,-3.46911 0,-3.15175 0.1883,-3.6556 0.125,-0.25453 0.4107,-0.54517 0.6677,-0.67932 0.3661,-0.19101 0.7985,-0.25975 1.2811,-0.20364 0.9534,0.11083 1.3943,0.56564 1.4811,1.52767 0.018,0.19603 0.024,1.31349 0.019,3.19238 -0.01,2.87529 -0.01,2.74235 -0.065,3.09032 -0.1447,0.51297 -0.4242,0.86237 -0.8697,1.08726 -0.2882,0.14548 -0.7638,0.21716 -1.1736,0.17689 z"
               style="font-style:normal;font-weight:normal;font-size:30.69309235px;line-height:125%;font-family:sans-serif;letter-spacing:0px;word-spacing:0px;fill:#1a1a1a;fill-opacity:1;stroke:none;stroke-width:1px;stroke-linecap:butt;stroke-linejoin:miter;stroke-opacity:1"
               inkscape:export-xdpi="5720.4502"
               inkscape:export-ydpi="5720.4502"
               transform="translate(-4.6174781e-6,2.3679374e-6)" />
            <path
               inkscape:export-ydpi="5720.4502"
               inkscape:export-xdpi="5720.4502"
               style="font-style:normal;font-weight:normal;font-size:30.69309235px;line-height:125%;font-family:sans-serif;letter-spacing:0px;word-spacing:0px;fill:#1a1a1a;fill-opacity:1;stroke:none;stroke-width:1px;stroke-linecap:butt;stroke-linejoin:miter;stroke-opacity:1"
               d="m 993.02771,278.66028 c -1.7121,-0.0799 -3.1939,-0.77066 -4.33272,-2.01983 -0.8319,-0.91252 -1.3331,-1.9335 -1.5363,-3.12995 -0.1016,-0.59869 -0.1109,-1.03917 -0.1016,-4.84237 0.0101,-4.08187 -0.039,-3.63429 0.21009,-4.1871 0.1997,-0.41124 0.5904,-0.71791 1.0808,-0.84823 0.2597,-0.069 0.8055,-0.0614 1.0751,0.0149 0.61803,0.17499 1.05333,0.62083 1.22513,1.25485 0.04,0.1474 0.045,0.50671 0.058,4.02486 l 0.015,3.86301 c 0.044,0.8003 0.5338,1.47212 1.0907,1.82246 0.8676,0.61297 2.1186,0.5867 3.0268,0.0465 0.4322,-0.25709 0.7849,-0.64495 1.0157,-1.11707 0.1539,-0.31472 0.2306,-0.57995 0.2703,-0.93333 0.016,-0.1462 0.026,-1.59657 0.026,-3.88382 3e-4,-4.04657 -0.01,-3.83347 0.1704,-4.20519 0.2153,-0.44816 0.6177,-0.77416 1.1263,-0.91266 0.2351,-0.064 0.8278,-0.0641 1.0611,-2.3e-4 0.2809,0.077 0.5387,0.20648 0.7605,0.41687 0.315,0.29515 0.4733,0.65089 0.4988,0.91085 l 0,4.00561 c 0,4.4991 0.01,4.2677 -0.1947,5.07048 -0.3142,1.23859 -1.0001,2.32941 -2.0091,3.19483 -1.2303,1.0553 -2.7376,1.53855 -4.5371,1.45461 z"
               id="path4874-8"
               inkscape:connector-curvature="0"
               sodipodi:nodetypes="cscsccccccccccccccccscccc" />
            <circle
               r="2.2833683"
               cy="265.71927"
               cx="1031.927"
               id="path4724"
               style="opacity:1;fill:#1a1a1a;fill-opacity:1;stroke:none;stroke-width:0.02367937;stroke-miterlimit:4;stroke-dasharray:none;stroke-opacity:1" />
          </g>
        </g>
      </g>
    </g>
  </g>
</svg>
