<svg xmlns="http://www.w3.org/2000/svg" viewBox="0 0 1189.41 240.5"><defs><style>.a{fill:#fff;}</style></defs><title>ruuvi-logo-nega</title><path class="a" d="M1171.16,270a117.27,117.27,0,1,0,117.25,117.29A117.09,117.09,0,0,0,1171.16,270m24.24,194a74.7,74.7,0,0,1-74.7-74,50.9,50.9,0,0,0,16.6,2.72,51.72,51.72,0,0,0,45.07-77,77.17,77.17,0,0,1,13-1.17,74.72,74.72,0,1,1,0,149.43" transform="translate(-99 -264)"/><path class="a" d="M961.62,503.72c-6.74-.66-13.92-4.12-17.77-8.46a25.34,25.34,0,0,1-5.58-11.36c-.94-4.18-.71-6.13-.71-51.75,0-54.7,0-49.73,3-57.65A27.05,27.05,0,0,1,951,363.75c5.79-3,12.59-4.06,20.22-3.18,15,1.73,22,8.91,23.34,24.07.27,3.12.38,20.72.33,50.4-.17,45.34-.17,43.22-1.06,48.74-2.28,8.07-6.69,13.59-13.7,17.15-4.56,2.28-12,3.39-18.49,2.78Zm-380.75,0c-27-1.27-50.4-12.19-68.34-31.85a94.47,94.47,0,0,1-24.23-49.41c-1.61-9.47-1.78-16.37-1.61-76.41.16-64.39-.61-57.32,3.28-66,3.18-6.52,9.35-11.36,17-13.42,4.12-1.07,12.76-1,17,.27,9.74,2.72,16.6,9.75,19.32,19.78.61,2.34.73,8,.9,63.49l.27,60.93c.67,12.65,8.41,23.23,17.21,28.75,13.65,9.7,33.42,9.24,47.74.73,11.86-8,18.82-19.72,20.28-32.31.27-2.34.44-25.22.44-61.27,0-63.88-.17-60.49,2.68-66.33a27.25,27.25,0,0,1,17.77-14.43c3.66-1,13-1,16.7,0a27.56,27.56,0,0,1,12,6.57c5,4.68,7.47,10.25,7.86,14.37v63.22c0,71,.17,67.27-3.07,80a97.26,97.26,0,0,1-31.7,50.4C633,497.43,609.22,505,580.87,503.72Zm-457.68,0c-6.79-.66-14-4.12-17.77-8.46a32.88,32.88,0,0,1-5.62-11.36c-1-4.62-.78-6.74-.78-65,0-48.68.11-63.11.56-66.5,2.78-22.22,11.48-40.77,26.41-56.25,18.71-19.49,41.49-29.63,69-30.68,7.53-.34,11.15.1,15.54,1.73A27.94,27.94,0,0,1,226,282.32,34.21,34.21,0,0,1,228,296c-.78,12.26-6.13,20-16.43,24-3.79,1.38-6.8,2.05-13.09,2.84-8.7,1.06-13,2.28-19.22,5.46a42.22,42.22,0,0,0-18.72,18.27,56.65,56.65,0,0,0-3.22,9.2c-.9,5.18-.56,16.6-.78,63.38.34,54.92.5,59.15-1.11,64.78-2.28,8.13-6.63,13.53-13.7,17.1C137.12,503.22,129.65,504.33,123.19,503.72Zm664-17.1c-2-3.95-72.92-184-73.86-187.48a22.92,22.92,0,0,1,0-14c2.89-9.47,11.69-17.37,21.83-19.66,6.74-1.44,15.27-.5,20.72,2.34,3.24,1.68,7.41,5.86,9.58,9.52,1.84,3.12,1.63,2.51,27.69,68.8,10.14,25.67,18.54,46.56,18.65,46.4s10.14-25.41,22.23-56.09c15.49-39.33,22.56-56.81,23.9-59a25,25,0,0,1,16.1-12c4.73-1,12.69-.61,16.87.83a29.37,29.37,0,0,1,12.48,8c3.79,3.78,5.58,6.84,6.74,11.31a22.26,22.26,0,0,1,0,13.15c-.78,3.28-71.24,182.36-73.92,187.8C825.5,511.46,795.75,506.73,787.18,486.62Z" transform="translate(-99 -264)"/><path class="a" d="M351.89,504.18c-27-1.23-50.35-12.15-68.34-31.87A95.16,95.16,0,0,1,259.32,423c-1.61-9.47-1.73-16.43-1.61-76.41.17-64.39-.61-57.32,3.34-66.06,3.12-6.46,9.31-11.31,17.05-13.36,4.06-1.11,12.69-1,16.93.21a27.21,27.21,0,0,1,19.33,19.78c.66,2.34.71,8,.94,63.49l.23,61c.71,12.58,8.4,23.21,17.21,28.73,13.7,9.64,33.41,9.25,47.72.73a41.6,41.6,0,0,0,16-17.6,42.6,42.6,0,0,0,4.29-14.77c.23-2.28.38-25.17.38-61.26,0-63.84-.16-60.5,2.68-66.35a27.17,27.17,0,0,1,17.77-14.37c3.74-1.06,13.09-1.06,16.77-.06a27.89,27.89,0,0,1,12,6.63c4.95,4.63,7.46,10.25,7.84,14.37v63.17c0,71,.17,67.33-3.05,80a97.44,97.44,0,0,1-31.7,50.4C404.09,497.87,380.31,505.5,351.89,504.18Z" transform="translate(-99 -264)"/><path class="a" d="M1001.62,300a36,36,0,1,1-36-36A36,36,0,0,1,1001.62,300Z" transform="translate(-99 -264)"/></svg>