<?xml version="1.0" encoding="UTF-8" standalone="no"?>
<!-- Created with Inkscape (http://www.inkscape.org/) -->

<svg
   xmlns:dc="http://purl.org/dc/elements/1.1/"
   xmlns:cc="http://creativecommons.org/ns#"
   xmlns:rdf="http://www.w3.org/1999/02/22-rdf-syntax-ns#"
   xmlns:svg="http://www.w3.org/2000/svg"
   xmlns="http://www.w3.org/2000/svg"
   xmlns:sodipodi="http://sodipodi.sourceforge.net/DTD/sodipodi-0.dtd"
   xmlns:inkscape="http://www.inkscape.org/namespaces/inkscape"
   width="210mm"
   height="297mm"
   viewBox="0 0 744.09448819 1052.3622047"
   id="svg2"
   version="1.1"
   inkscape:version="0.91 r13725"
   sodipodi:docname="coming-soon-kickstarter.svg">
  <defs
     id="defs4" />
  <sodipodi:namedview
     id="base"
     pagecolor="#ffffff"
     bordercolor="#666666"
     borderopacity="1.0"
     inkscape:pageopacity="0.0"
     inkscape:pageshadow="2"
     inkscape:zoom="0.7"
     inkscape:cx="363.70237"
     inkscape:cy="744.83052"
     inkscape:document-units="px"
     inkscape:current-layer="layer1"
     showgrid="false"
     inkscape:window-width="1436"
     inkscape:window-height="855"
     inkscape:window-x="4"
     inkscape:window-y="0"
     inkscape:window-maximized="1" />
  <metadata
     id="metadata7">
    <rdf:RDF>
      <cc:Work
         rdf:about="">
        <dc:format>image/svg+xml</dc:format>
        <dc:type
           rdf:resource="http://purl.org/dc/dcmitype/StillImage" />
        <dc:title></dc:title>
      </cc:Work>
    </rdf:RDF>
  </metadata>
  <g
     inkscape:label="Layer 1"
     inkscape:groupmode="layer"
     id="layer1">
    <path
       style="fill:#000000;fill-opacity:1;fill-rule:evenodd;stroke:none;stroke-width:1px;stroke-linecap:butt;stroke-linejoin:miter;stroke-opacity:1"
       d="m 263.69908,371.84094 0.0587,101.64289 194.9008,-193.06169 -101.52033,0 z"
       id="path4216"
       inkscape:connector-curvature="0"
       sodipodi:nodetypes="ccccc"
       inkscape:export-xdpi="923.27002"
       inkscape:export-ydpi="923.27002" />
    <flowRoot
       xml:space="preserve"
       id="flowRoot4195"
       style="font-style:normal;font-variant:normal;font-weight:normal;font-stretch:normal;font-size:6.25px;line-height:125%;font-family:Lato;-inkscape-font-specification:'Lato, Normal';text-align:start;letter-spacing:0px;word-spacing:0px;writing-mode:lr-tb;text-anchor:start;fill:#ffffff;fill-opacity:1;stroke:none;stroke-width:1px;stroke-linecap:butt;stroke-linejoin:miter;stroke-opacity:1"
       transform="matrix(0.70710678,-0.70710678,0.70710678,0.70710678,112.93694,356.7263)"
       inkscape:export-xdpi="923.27002"
       inkscape:export-ydpi="923.27002"><flowRegion
         id="flowRegion4197"><rect
           id="rect4199"
           width="297.14285"
           height="72.14286"
           x="89.285713"
           y="130.21935"
           style="fill:#ffffff;fill-opacity:1" /></flowRegion><flowPara
         id="flowPara4201"
         style="font-size:16.25px;fill:#ffffff;fill-opacity:1">COMING SOON TO</flowPara></flowRoot>    <path
       style="fill:#14e06e;fill-opacity:1"
       d="m 336.52909,374.41741 c -0.93683,0.67119 -2.51356,1.2359 -3.60541,1.29129 -2.65861,0.13487 -4.38456,-2.06666 -3.21411,-4.09973 0.4421,-0.76792 1.10711,-1.10876 2.77473,-1.42213 1.78093,-0.33467 2.4457,-0.95996 1.75494,-1.65072 -0.37203,-0.37203 -0.89907,-0.26379 -2.72163,0.55893 -2.52437,1.13954 -3.69574,1.29421 -5.25507,0.69391 -1.04322,-0.40161 -2.33061,-1.64 -2.89418,-2.784 -0.87394,-1.77403 -0.49792,-4.26151 0.93664,-6.19612 1.56602,-2.1119 4.48289,-3.39583 6.26885,-2.75938 0.77731,0.277 1.61611,1.1521 1.78939,1.86681 0.22711,0.93679 0.047,1.43595 -0.77452,2.14665 -0.61395,0.53112 -0.90173,0.65406 -2.00626,0.85706 -0.70922,0.13035 -1.39235,0.33987 -1.51807,0.46559 -0.48964,0.48964 -0.0829,1.26553 0.64439,1.22925 0.21531,-0.0107 0.86128,-0.25085 1.43548,-0.53359 3.37964,-1.66414 5.40902,-1.74487 7.41049,-0.29479 3.68936,2.67297 3.21468,7.59295 -1.02566,10.63097 z m 16.95954,-17.27144 c -0.0798,0.0436 -0.3135,0.18689 -0.51928,0.31835 -0.97718,0.6243 -2.85221,0.20724 -3.57885,-0.79602 -0.42341,-0.5846 -4.96074,-12.96637 -5.10672,-13.93555 -0.12938,-0.85901 0.13645,-1.60325 0.81502,-2.28183 0.6214,-0.6214 1.29354,-0.89697 2.11905,-0.86878 0.59468,0.0203 13.1172,4.47745 13.97488,4.97409 0.69405,0.40188 1.16671,1.15179 1.28639,2.04097 0.12432,0.92361 -0.13316,1.65049 -0.83228,2.34961 -0.78059,0.78059 -1.63694,0.96995 -2.8539,0.63106 l -0.94509,-0.26319 -1.94119,1.9412 c -1.91916,1.91916 -1.93906,1.94479 -1.75316,2.2582 0.25849,0.43578 0.36495,1.76899 0.18472,2.31315 -0.16056,0.48473 -0.6154,1.19075 -0.84959,1.31874 z M 366.23971,344.308 c -0.92698,0.56264 -2.03221,0.58758 -2.95375,0.0667 -0.70886,-0.4007 -9.18344,-8.87158 -9.58345,-9.57927 -0.17063,-0.30187 -0.27817,-0.8749 -0.25392,-1.35297 0.0587,-1.15781 0.62497,-1.9655 2.91602,-4.15947 0.92695,-1.115 1.80873,-1.75973 3.12876,-2.20642 2.32443,-0.78656 4.44178,-0.3777 6.26874,1.2105 1.10102,0.95713 1.67736,1.99957 1.96837,3.56023 l 0.22192,1.19009 1.629,0.38134 c 1.47085,0.34431 1.70419,0.44874 2.40356,1.07564 0.65957,0.59122 0.79242,0.79004 0.89483,1.33904 0.23943,1.28358 -0.22495,2.42302 -1.25203,3.07207 -0.83749,0.52924 -1.31971,0.51844 -3.8457,-0.0861 -1.29499,-0.30994 -2.44908,-0.56493 -2.56465,-0.56664 -0.12878,-0.002 0.15677,0.36428 0.73761,0.94588 1.19079,1.19237 1.52145,1.77566 1.53191,2.70233 0.0117,1.04034 -0.44377,1.91946 -1.24722,2.40712 z m 30.13865,-30.15788 c -0.65736,0.40691 -1.36556,0.47836 -2.26785,0.22883 l -0.7757,-0.21453 -4.49227,-4.4265 c -3.10373,-3.0583 -4.5995,-4.61277 -4.83921,-5.02913 -0.20335,-0.35322 -0.34694,-0.9432 -0.34694,-1.42551 0,-1.15157 0.55472,-1.95034 2.90074,-4.17699 2.26507,-2.14983 2.97845,-2.52481 4.9475,-2.60065 3.40696,-0.13123 6.07629,2.1403 6.53863,5.56416 0.0455,0.33658 0.11711,0.64643 0.15924,0.68856 0.0421,0.0421 0.80349,0.25672 1.69191,0.47684 1.77044,0.43867 2.46704,0.83481 2.95332,1.67948 0.32284,0.56077 0.39036,1.64083 0.14958,2.39259 -0.19242,0.60073 -1.06011,1.42225 -1.7655,1.67155 -0.62289,0.22014 -1.71663,0.0493 -4.62248,-0.72209 -0.65665,-0.17431 -1.23276,-0.28002 -1.28024,-0.2349 -0.0475,0.0451 0.37753,0.54587 0.94446,1.1128 0.82101,0.82102 1.0824,1.17929 1.28448,1.76061 0.41965,1.20717 -0.0746,2.57082 -1.17967,3.25488 z m -49.78618,49.36277 c -0.82003,0.19877 -1.53542,0.0643 -2.30481,-0.43341 -0.3972,-0.25692 -2.0365,-1.79539 -3.92003,-3.67892 l -3.23735,-3.23734 -0.91376,0.82584 c -1.55576,1.40606 -2.7506,1.56147 -3.98275,0.51804 -0.53317,-0.45152 -0.67922,-0.68057 -0.84901,-1.33089 -0.37583,-1.43995 -0.33442,-1.50017 4.03827,-5.87286 3.40585,-3.40585 3.87491,-3.83318 4.36492,-3.97659 1.70927,-0.50026 3.40158,0.75074 3.40158,2.51454 0,0.85801 -0.39151,1.6037 -1.34181,2.55569 l -0.70083,0.70208 3.49874,3.51582 c 3.5275,3.54472 3.82795,3.91163 3.98149,4.86228 0.19159,1.18623 -0.85662,2.75017 -2.03465,3.03572 z m 31.87409,-31.87409 c -0.82003,0.19878 -1.53542,0.0643 -2.30481,-0.43341 -0.3972,-0.25692 -2.0365,-1.79539 -3.92004,-3.67892 l -3.23734,-3.23734 -0.91376,0.82584 c -1.55576,1.40606 -2.7506,1.56147 -3.98275,0.51804 -0.53317,-0.45152 -0.67922,-0.68057 -0.84901,-1.33089 -0.37583,-1.43995 -0.33442,-1.50017 4.03827,-5.87286 3.40585,-3.40585 3.87491,-3.83318 4.36492,-3.97659 1.70927,-0.50026 3.40158,0.75074 3.40158,2.51454 0,0.85801 -0.39151,1.6037 -1.34181,2.55569 l -0.70083,0.70209 3.49874,3.51581 c 3.5275,3.54472 3.82795,3.91163 3.98149,4.86228 0.19159,1.18623 -0.85662,2.75017 -2.03465,3.03572 z m 8.71813,-8.52289 c -0.71821,0.47215 -1.55608,0.62401 -2.27758,0.41279 -0.49296,-0.14431 -1.04173,-0.64543 -5.24048,-4.7854 -5.21592,-5.14291 -5.36573,-5.33251 -5.19797,-6.57884 0.12868,-0.95601 0.66462,-1.6726 2.99094,-3.99907 2.74666,-2.74683 3.29587,-3.08349 4.69823,-2.88004 1.28421,0.18631 2.30448,1.71791 2.03323,3.05223 -0.14488,0.71271 -0.24412,0.85404 -1.61084,2.29409 l -1.45646,1.53458 0.42519,0.42519 0.42519,0.42519 1.19515,-1.10562 c 1.31411,-1.21567 1.84443,-1.44275 2.71917,-1.16433 0.70952,0.22583 1.34408,0.93242 1.42182,1.58321 0.0997,0.83439 -0.23857,1.47619 -1.37893,2.61655 l -1.0137,1.0137 0.50505,0.50505 0.50505,0.50505 1.20713,-1.20588 c 1.48776,-1.48621 2.1134,-1.85081 3.17597,-1.85081 1.76891,0 2.91862,1.63567 2.397,3.41014 -0.13476,0.45842 -0.53272,0.92275 -2.55162,2.97717 -1.31558,1.33872 -2.65278,2.60549 -2.97154,2.81505 z"
       id="path4220"
       inkscape:connector-curvature="0"
       sodipodi:nodetypes="sssssssssscssscsssccssscsssscssccccscccsscssssscscccsccscssscssscsscsssscscsccsssscsssscscsccsssscssscssssssscccsscscccssssc"
       inkscape:export-xdpi="923.27002"
       inkscape:export-ydpi="923.27002" />
    <path
       style="fill:#ffffff;fill-opacity:1"
       d="m 313.63001,397.43148 c -2.49159,1.57837 -5.27152,1.94406 -7.9837,1.05022 -3.42841,-1.12988 -5.71356,-3.89998 -6.21684,-7.53618 -0.19357,-1.39851 0.0144,-3.25945 0.50989,-4.56232 0.71202,-1.8723 2.38781,-3.79908 4.1082,-4.72349 1.86174,-1.00037 4.858,-1.4357 6.29143,-0.91407 1.59934,0.582 2.4147,1.923 2.04063,3.35619 -0.43482,1.66598 -1.17208,2.13566 -3.45071,2.19828 -1.72367,0.0474 -2.13681,0.23066 -3.10978,1.37959 -1.96744,2.32326 0.27535,6.00791 3.33396,5.47733 0.65952,-0.11441 0.95358,-0.27124 1.61341,-0.86049 0.96328,-0.86024 1.15265,-1.32968 1.23294,-3.05633 0.0302,-0.64884 0.15687,-1.42818 0.28155,-1.73188 0.51404,-1.25212 2.13328,-1.91239 3.51337,-1.43264 1.70802,0.59375 2.34928,2.4863 1.81127,5.34557 -0.46261,2.45852 -1.97266,4.74138 -3.97562,6.01022 z m -19.89021,19.67673 c -0.0822,0.0413 -0.31778,0.18261 -0.52356,0.31407 -0.63569,0.40613 -1.77544,0.37697 -2.59327,-0.0663 -1.0755,-0.58299 -9.11183,-8.61293 -9.69326,-9.68557 -0.64408,-1.1882 -0.46293,-2.38258 0.50873,-3.35424 0.45543,-0.45543 0.76842,-0.62871 1.34912,-0.7469 1.30974,-0.26658 1.7067,-0.0818 3.34735,1.55785 0.78726,0.7868 1.46822,1.39163 1.51324,1.34405 0.045,-0.0476 -0.17639,-1.45585 -0.49203,-3.1295 -0.64612,-3.42601 -0.61405,-4.10826 0.23404,-4.97876 1.33541,-1.37073 3.56523,-1.17078 4.47535,0.4013 0.17804,0.30753 0.5471,1.78967 0.82015,3.29365 0.33258,1.83196 0.57349,2.74436 0.72989,2.76435 0.1284,0.0164 1.35083,0.16141 2.71652,0.32224 3.50371,0.4126 3.7317,0.46724 4.29323,1.02876 0.60994,0.60994 0.87062,1.18625 0.89238,1.97288 0.0241,0.87151 -0.21476,1.52447 -0.76529,2.0919 -0.87126,0.89801 -1.25398,0.93558 -5.14459,0.50506 -2.00971,-0.22239 -3.71657,-0.37546 -3.79304,-0.34015 -0.0784,0.0362 0.47884,0.68207 1.27684,1.48007 1.78737,1.78737 2.18694,2.63571 1.79823,3.81789 -0.15085,0.45879 -0.7097,1.28668 -0.95003,1.40739 z m 11.09463,-11.24789 c -0.75548,0.41925 -1.54159,0.49288 -2.28458,0.21398 -0.61836,-0.23212 -1.02542,-0.60758 -5.38273,-4.96489 -4.39105,-4.39105 -4.73132,-4.76052 -4.97015,-5.39653 -0.88461,-2.35582 1.96054,-4.65703 4.0662,-3.2888 0.27841,0.18091 2.55165,2.37437 5.05163,4.87435 4.22579,4.22579 4.55829,4.58781 4.7283,5.14818 0.10058,0.33152 0.19426,0.77848 0.20816,0.99326 0.0565,0.87223 -0.57695,1.95436 -1.41683,2.42045 z m 18.31034,-18.15708 c -0.0822,0.0413 -0.31778,0.18261 -0.52356,0.31407 -0.65199,0.41655 -1.78033,0.37842 -2.63071,-0.0889 -1.06297,-0.58415 -9.67851,-9.28394 -9.87946,-9.97609 -0.33904,-1.16777 -0.11977,-2.17116 0.64627,-2.95731 0.67037,-0.68796 1.61316,-1.00105 2.55914,-0.84986 0.754,0.12051 0.80123,0.15392 2.21263,1.56532 0.7932,0.7932 1.4784,1.40264 1.52266,1.35431 0.0443,-0.0483 -0.17779,-1.45725 -0.49346,-3.13093 -0.6496,-3.44421 -0.61606,-4.10917 0.25097,-4.9762 1.22062,-1.22062 2.93703,-1.22448 4.11917,-0.009 0.53346,0.54839 0.64459,0.91467 1.19612,3.94244 0.30884,1.69539 0.53069,2.50557 0.69178,2.52625 0.13043,0.0168 1.52181,0.18578 3.09196,0.37561 1.57015,0.18983 3.0332,0.42525 3.25124,0.52316 1.25353,0.56292 1.87437,2.10897 1.42346,3.54477 -0.20585,0.65551 -1.06344,1.49997 -1.74291,1.71624 -0.32428,0.10321 -1.98997,0.007 -4.1509,-0.23994 -1.9851,-0.22678 -3.64988,-0.37718 -3.69952,-0.33422 -0.0496,0.043 0.54269,0.71103 1.31628,1.48462 1.77726,1.77726 2.17696,2.62823 1.78887,3.80853 -0.15085,0.45879 -0.7097,1.28668 -0.95003,1.40739 z"
       id="path4218"
       inkscape:connector-curvature="0"
       inkscape:export-xdpi="923.27002"
       inkscape:export-ydpi="923.27002" />
  </g>
</svg>
