<?xml version="1.0" encoding="UTF-8" standalone="no"?>
<!-- Created with Inkscape (http://www.inkscape.org/) -->

<svg
   xmlns:dc="http://purl.org/dc/elements/1.1/"
   xmlns:cc="http://creativecommons.org/ns#"
   xmlns:rdf="http://www.w3.org/1999/02/22-rdf-syntax-ns#"
   xmlns:svg="http://www.w3.org/2000/svg"
   xmlns="http://www.w3.org/2000/svg"
   xmlns:sodipodi="http://sodipodi.sourceforge.net/DTD/sodipodi-0.dtd"
   xmlns:inkscape="http://www.inkscape.org/namespaces/inkscape"
   width="173.93002mm"
   height="30.433031mm"
   viewBox="0 0 616.28748 107.83357"
   id="svg4506"
   version="1.1"
   inkscape:version="0.91 r13725">
  <defs
     id="defs4508" />
  <sodipodi:namedview
     id="base"
     pagecolor="#ffffff"
     bordercolor="#666666"
     borderopacity="1.0"
     inkscape:pageopacity="0.0"
     inkscape:pageshadow="2"
     inkscape:zoom="0.98994949"
     inkscape:cx="350.99745"
     inkscape:cy="29.240008"
     inkscape:document-units="px"
     inkscape:current-layer="g26"
     showgrid="false"
     fit-margin-top="0"
     fit-margin-left="0"
     fit-margin-right="0"
     fit-margin-bottom="0"
     inkscape:window-width="1436"
     inkscape:window-height="855"
     inkscape:window-x="4"
     inkscape:window-y="0"
     inkscape:window-maximized="1" />
  <metadata
     id="metadata4511">
    <rdf:RDF>
      <cc:Work
         rdf:about="">
        <dc:format>image/svg+xml</dc:format>
        <dc:type
           rdf:resource="http://purl.org/dc/dcmitype/StillImage" />
        <dc:title></dc:title>
      </cc:Work>
    </rdf:RDF>
  </metadata>
  <g
     inkscape:label="Layer 1"
     inkscape:groupmode="layer"
     id="layer1"
     transform="translate(-70.863751,-398.2808)">
    <g
       id="g26"
       transform="matrix(0.91544593,0,0,-0.91544593,126.1457,398.2808)">
      <path
         d="m 0,0 c -33.347,0 -60.388,-27.035 -60.388,-60.388 0,-26.68 17.303,-49.316 41.297,-57.301 3.018,-0.559 4.126,1.31 4.126,2.905 0,1.439 -0.056,6.197 -0.082,11.243 -16.8,-3.653 -20.345,7.125 -20.345,7.125 -2.747,6.979 -6.705,8.836 -6.705,8.836 -5.479,3.748 0.413,3.671 0.413,3.671 6.064,-0.426 9.257,-6.224 9.257,-6.224 5.386,-9.231 14.127,-6.562 17.573,-5.019 0.543,3.902 2.107,6.567 3.834,8.075 -13.413,1.526 -27.513,6.705 -27.513,29.844 0,6.592 2.359,11.98 6.222,16.209 -0.627,1.521 -2.694,7.663 0.586,15.981 0,0 5.071,1.622 16.61,-6.191 4.817,1.338 9.983,2.009 15.115,2.033 5.132,-0.024 10.302,-0.695 15.128,-2.033 11.526,7.813 16.59,6.191 16.59,6.191 3.287,-8.318 1.22,-14.46 0.593,-15.981 3.872,-4.229 6.214,-9.617 6.214,-16.209 0,-23.195 -14.127,-28.301 -27.574,-29.796 2.166,-1.874 4.096,-5.549 4.096,-11.183 0,-8.08 -0.069,-14.583 -0.069,-16.572 0,-1.608 1.086,-3.49 4.147,-2.898 23.982,7.994 41.263,30.622 41.263,57.294 C 60.388,-27.035 33.351,0 0,0"
         style="fill:#1a1a1a;fill-opacity:1;fill-rule:evenodd;stroke:none"
         id="path28"
         inkscape:connector-curvature="0" />
    </g>
    <g
       style="font-style:normal;font-variant:normal;font-weight:normal;font-stretch:normal;font-size:63.69057083px;line-height:125%;font-family:Lato;-inkscape-font-specification:'Lato, Normal';text-align:start;letter-spacing:0px;word-spacing:0px;writing-mode:lr-tb;text-anchor:start;fill:#1a1a1a;fill-opacity:1;stroke:none;stroke-width:1px;stroke-linecap:butt;stroke-linejoin:miter;stroke-opacity:1"
       id="text5062">
      <path
         d="m 220.24759,454.31284 q 3.18453,0 4.7768,-1.62411 1.59226,-1.62411 1.59226,-4.23542 0,-2.675 -1.59226,-4.23542 -1.59227,-1.56042 -4.7768,-1.56042 -3.15268,0 -4.77679,1.56042 -1.59226,1.56042 -1.59226,4.23542 0,1.27381 0.41398,2.35655 0.41399,1.08274 1.21013,1.87887 0.79613,0.76429 1.9744,1.21012 1.21012,0.41399 2.77054,0.41399 z m 9.52174,18.11997 q 0,-1.08274 -0.6369,-1.71965 -0.60506,-0.66875 -1.65596,-1.01904 -1.05089,-0.38215 -2.45208,-0.54137 -1.4012,-0.19108 -2.99346,-0.25477 -1.56042,-0.0955 -3.21637,-0.15922 -1.62411,-0.0955 -3.15269,-0.31846 -1.52857,0.79614 -2.51578,1.91072 -0.95535,1.11459 -0.95535,2.57947 0,0.95536 0.47767,1.78334 0.50953,0.82797 1.52858,1.43303 1.05089,0.60506 2.64316,0.95536 1.62411,0.3503 3.88512,0.3503 4.52203,0 6.78305,-1.40119 2.26101,-1.4012 2.26101,-3.59852 z m 6.87858,-32.89618 0,2.54762 q 0,1.27381 -1.52857,1.56042 l -3.24822,0.54137 q 0.82798,1.84703 0.82798,4.10804 0,2.3884 -0.95536,4.33096 -0.92351,1.94256 -2.57947,3.31191 -1.65595,1.36935 -3.94881,2.10179 -2.29286,0.73244 -4.96787,0.73244 -1.01905,0 -2.00625,-0.0955 -0.95536,-0.12738 -1.87887,-0.31846 -0.92352,0.54137 -1.36935,1.14643 -0.44583,0.60506 -0.44583,1.24197 0,1.05089 0.92351,1.56042 0.92351,0.50952 2.42024,0.73244 1.52858,0.22292 3.47114,0.28661 1.94256,0.0637 3.94881,0.22292 2.00626,0.15922 3.94882,0.54137 1.94256,0.35029 3.43929,1.21012 1.52857,0.82797 2.45209,2.26101 0.92351,1.43304 0.92351,3.7259 0,2.10179 -1.05089,4.10804 -1.0509,2.00625 -3.05715,3.56667 -1.97441,1.56042 -4.84049,2.48394 -2.86607,0.95535 -6.52828,0.95535 -3.63036,0 -6.33721,-0.70059 -2.675,-0.7006 -4.49019,-1.91072 -1.78333,-1.17827 -2.675,-2.73869 -0.85982,-1.56042 -0.85982,-3.24822 0,-2.29286 1.43304,-3.91697 1.46488,-1.62411 3.94881,-2.54763 -1.3375,-0.6369 -2.16548,-1.75149 -0.79613,-1.11458 -0.79613,-2.92976 0,-1.43304 1.05089,-2.99346 1.0509,-1.56042 3.15269,-2.64316 -2.42024,-1.3375 -3.82144,-3.53482 -1.40119,-2.22917 -1.40119,-5.19079 0,-2.42024 0.92351,-4.3628 0.95536,-1.94256 2.64316,-3.31191 1.6878,-1.36935 3.98066,-2.10179 2.32471,-0.73244 5.0634,-0.73244 4.20358,0 7.32442,1.75149 l 9.0759,0 z"
         style="font-style:normal;font-variant:normal;font-weight:600;font-stretch:normal;font-family:Lato;-inkscape-font-specification:'Lato Semi-Bold';fill:#1a1a1a;fill-opacity:1"
         id="path5105" />
      <path
         d="m 249.12728,438.35835 0,32.4822 -6.84673,0 0,-32.4822 6.84673,0 z m 1.14644,-9.80834 q 0,0.92351 -0.38215,1.75149 -0.3503,0.82797 -0.9872,1.46488 -0.63691,0.60506 -1.49673,0.9872 -0.82798,0.3503 -1.78334,0.3503 -0.92351,0 -1.75149,-0.3503 -0.79613,-0.38214 -1.40119,-0.9872 -0.60506,-0.63691 -0.9872,-1.46488 -0.3503,-0.82798 -0.3503,-1.75149 0,-0.95536 0.3503,-1.78334 0.38214,-0.82798 0.9872,-1.43304 0.60506,-0.6369 1.40119,-0.9872 0.82798,-0.38214 1.75149,-0.38214 0.95536,0 1.78334,0.38214 0.85982,0.3503 1.49673,0.9872 0.6369,0.60506 0.9872,1.43304 0.38215,0.82798 0.38215,1.78334 z"
         style="font-style:normal;font-variant:normal;font-weight:600;font-stretch:normal;font-family:Lato;-inkscape-font-specification:'Lato Semi-Bold';fill:#1a1a1a;fill-opacity:1"
         id="path5107" />
      <path
         d="m 268.2056,471.35007 q -4.04435,0 -6.24168,-2.26102 -2.16548,-2.29286 -2.16548,-6.43274 l 0,-18.9161 -3.56667,0 q -0.57322,0 -0.9872,-0.3503 -0.41399,-0.38214 -0.41399,-1.11459 l 0,-2.77054 5.25447,-0.76428 1.49673,-9.39436 q 0.15922,-0.54137 0.54137,-0.85982 0.38214,-0.3503 1.01905,-0.3503 l 3.50298,0 0,10.66817 9.01221,0 0,4.93602 -9.01221,0 0,18.43842 q 0,1.75149 0.85982,2.675 0.85982,0.92352 2.29286,0.92352 0.79613,0 1.36935,-0.19108 0.57321,-0.22291 0.9872,-0.44583 0.41399,-0.25476 0.7006,-0.44583 0.31845,-0.22292 0.60506,-0.22292 0.57321,0 0.92351,0.6369 l 2.0381,3.34376 q -1.59226,1.40119 -3.75774,2.16548 -2.16548,0.73244 -4.45834,0.73244 z"
         style="font-style:normal;font-variant:normal;font-weight:600;font-stretch:normal;font-family:Lato;-inkscape-font-specification:'Lato Semi-Bold';fill:#1a1a1a;fill-opacity:1"
         id="path5109" />
      <path
         d="m 287.90091,442.21163 q 2.00625,-1.9744 4.39465,-3.15268 2.38839,-1.21012 5.57292,-1.21012 2.67501,0 4.68126,0.89167 2.0381,0.89167 3.40744,2.51578 1.4012,1.62411 2.10179,3.91697 0.7006,2.26101 0.7006,4.99971 l 0,20.66759 -6.81489,0 0,-20.66759 q 0,-3.28007 -1.52858,-5.09525 -1.49672,-1.81518 -4.58572,-1.81518 -2.29286,0 -4.26726,1.05089 -1.94257,1.0509 -3.66221,2.86608 l 0,23.66105 -6.84674,0 0,-47.13103 6.84674,0 0,18.50211 z"
         style="font-style:normal;font-variant:normal;font-weight:600;font-stretch:normal;font-family:Lato;-inkscape-font-specification:'Lato Semi-Bold';fill:#1a1a1a;fill-opacity:1"
         id="path5111" />
      <path
         d="m 344.26707,438.35835 0,32.4822 -4.13989,0 q -1.36935,0 -1.75149,-1.30566 l -0.50953,-3.0253 q -1.01904,1.08274 -2.16547,1.9744 -1.11459,0.89167 -2.3884,1.52858 -1.27381,0.6369 -2.7387,0.9872 -1.43303,0.3503 -3.08899,0.3503 -2.675,0 -4.7131,-0.89167 -2.0381,-0.89167 -3.43929,-2.51578 -1.36935,-1.6241 -2.06994,-3.88512 -0.7006,-2.29286 -0.7006,-5.03156 l 0,-20.66759 6.84674,0 0,20.66759 q 0,3.28007 1.49672,5.09525 1.52858,1.81518 4.61757,1.81518 2.26102,0 4.20358,-1.01905 1.97441,-1.05089 3.69405,-2.86607 l 0,-23.6929 6.84674,0 z"
         style="font-style:normal;font-variant:normal;font-weight:600;font-stretch:normal;font-family:Lato;-inkscape-font-specification:'Lato Semi-Bold';fill:#1a1a1a;fill-opacity:1"
         id="path5113" />
      <path
         d="m 359.5528,462.68815 q 1.43304,1.84703 3.12084,2.61132 1.71964,0.73244 3.7259,0.73244 4.04435,0 6.30536,-2.92977 2.26102,-2.92976 2.26102,-9.07591 0,-5.60477 -1.97441,-8.18423 -1.94256,-2.57947 -5.57292,-2.57947 -2.51578,0 -4.39465,1.14643 -1.84703,1.11458 -3.47114,3.21637 l 0,15.06282 z m 0,-20.03068 q 2.00625,-2.19733 4.49019,-3.50298 2.48393,-1.30566 5.66846,-1.30566 2.83423,0 5.09524,1.11458 2.29286,1.08274 3.88513,3.15269 1.59226,2.06994 2.45208,5.03155 0.85983,2.92977 0.85983,6.62382 0,3.94882 -0.98721,7.19704 -0.95536,3.21637 -2.77054,5.54108 -1.81518,2.29286 -4.39465,3.56667 -2.57946,1.24196 -5.76399,1.24196 -1.56042,0 -2.83423,-0.31845 -1.27381,-0.28661 -2.35655,-0.85982 -1.08274,-0.57322 -2.00626,-1.36935 -0.89166,-0.79613 -1.71964,-1.81518 l -0.28661,2.51578 q -0.15923,0.73244 -0.57322,1.05089 -0.41398,0.31846 -1.14643,0.31846 l -4.45834,0 0,-47.13103 6.84674,0 0,18.94795 z"
         style="font-style:normal;font-variant:normal;font-weight:600;font-stretch:normal;font-family:Lato;-inkscape-font-specification:'Lato Semi-Bold';fill:#1a1a1a;fill-opacity:1"
         id="path5115" />
      <path
         d="m 387.60552,466.89173 q 0,-0.92351 0.31845,-1.71965 0.3503,-0.82797 0.92351,-1.43303 0.60506,-0.60506 1.4012,-0.95536 0.82797,-0.3503 1.75149,-0.3503 0.92351,0 1.71964,0.3503 0.82798,0.3503 1.43304,0.95536 0.60506,0.60506 0.95536,1.43303 0.3503,0.79614 0.3503,1.71965 0,0.95536 -0.3503,1.75149 -0.3503,0.79613 -0.95536,1.40119 -0.60506,0.60506 -1.43304,0.92352 -0.79613,0.35029 -1.71964,0.35029 -0.92352,0 -1.75149,-0.35029 -0.79614,-0.31846 -1.4012,-0.92352 -0.57321,-0.60506 -0.92351,-1.40119 -0.31845,-0.79613 -0.31845,-1.75149 z"
         style="font-style:normal;font-variant:normal;font-weight:600;font-stretch:normal;font-family:Lato;-inkscape-font-specification:'Lato Semi-Bold';fill:#1a1a1a;fill-opacity:1"
         id="path5117" />
      <path
         d="m 426.66873,444.72741 q -0.31845,0.41399 -0.60506,0.63691 -0.28661,0.22291 -0.82798,0.22291 -0.54137,0 -1.14643,-0.38214 -0.57322,-0.38214 -1.40119,-0.82798 -0.79613,-0.47768 -1.94257,-0.85982 -1.14643,-0.38214 -2.86607,-0.38214 -2.22917,0 -3.91697,0.79613 -1.65596,0.79613 -2.80239,2.29286 -1.11458,1.46488 -1.6878,3.59852 -0.54137,2.10179 -0.54137,4.74494 0,2.7387 0.60506,4.87233 0.60506,2.13364 1.71965,3.59852 1.14643,1.46488 2.73869,2.22917 1.62411,0.76429 3.63037,0.76429 1.9744,0 3.21637,-0.47768 1.24197,-0.47768 2.06994,-1.0509 0.82798,-0.57321 1.4012,-1.05089 0.60506,-0.47768 1.27381,-0.47768 0.82798,0 1.27381,0.63691 l 1.94256,2.51577 q -1.17827,1.43304 -2.61131,2.42025 -1.43304,0.9872 -3.0253,1.6241 -1.59227,0.60507 -3.31191,0.85983 -1.71965,0.2866 -3.47114,0.2866 -3.0253,0 -5.66846,-1.11458 -2.61131,-1.14643 -4.58572,-3.28006 -1.94256,-2.16548 -3.08899,-5.25448 -1.11459,-3.12083 -1.11459,-7.1015 0,-3.59851 1.01905,-6.65566 1.01905,-3.08899 2.96161,-5.31816 1.97441,-2.22917 4.87233,-3.47114 2.89792,-1.27381 6.68751,-1.27381 3.53483,0 6.20983,1.14643 2.70685,1.14643 4.80864,3.24822 l -1.81518,2.48393 z"
         style="font-style:normal;font-variant:normal;font-weight:600;font-stretch:normal;font-family:Lato;-inkscape-font-specification:'Lato Semi-Bold';fill:#1a1a1a;fill-opacity:1"
         id="path5119" />
      <path
         d="m 447.7314,437.84883 q 3.59852,0 6.49644,1.17828 2.92977,1.17827 4.96787,3.34375 2.06994,2.16548 3.18452,5.25447 1.11459,3.089 1.11459,6.94227 0,3.85328 -1.11459,6.94228 -1.11458,3.08899 -3.18452,5.28631 -2.0381,2.16548 -4.96787,3.34376 -2.89792,1.17827 -6.49644,1.17827 -3.63036,0 -6.56013,-1.17827 -2.89792,-1.17828 -4.96786,-3.34376 -2.06994,-2.19732 -3.18453,-5.28631 -1.11458,-3.089 -1.11458,-6.94228 0,-3.85327 1.11458,-6.94227 1.11459,-3.08899 3.18453,-5.25447 2.06994,-2.16548 4.96786,-3.34375 2.92977,-1.17828 6.56013,-1.17828 z m 0,28.11939 q 4.39465,0 6.52829,-2.92977 2.16548,-2.96161 2.16548,-8.439 0,-5.47739 -2.16548,-8.439 -2.13364,-2.99346 -6.52829,-2.99346 -4.45834,0 -6.62382,2.99346 -2.16548,2.96161 -2.16548,8.439 0,5.47739 2.16548,8.439 2.16548,2.92977 6.62382,2.92977 z"
         style="font-style:normal;font-variant:normal;font-weight:600;font-stretch:normal;font-family:Lato;-inkscape-font-specification:'Lato Semi-Bold';fill:#1a1a1a;fill-opacity:1"
         id="path5121" />
      <path
         d="m 470.01116,470.84055 0,-32.4822 4.13989,0 q 1.40119,0 1.78334,1.30566 l 0.44583,2.83423 q 0.89167,-1.01905 1.84703,-1.84702 0.95536,-0.85983 2.0381,-1.46489 1.11458,-0.6369 2.35655,-0.9872 1.27381,-0.3503 2.73869,-0.3503 1.56042,0 2.86608,0.44583 1.30565,0.44584 2.29286,1.27382 1.01905,0.82797 1.75149,2.00625 0.73244,1.17827 1.21012,2.64316 0.73244,-1.6878 1.84703,-2.89792 1.11458,-1.21012 2.48393,-1.97441 1.36935,-0.76429 2.89792,-1.11459 1.56042,-0.38214 3.15268,-0.38214 2.61132,0 4.64941,0.82798 2.06995,0.82797 3.47114,2.42024 1.43304,1.56042 2.16548,3.85328 0.73244,2.29286 0.73244,5.22263 l 0,20.66759 -6.84674,0 0,-20.66759 q 0,-3.4393 -1.49672,-5.15894 -1.46489,-1.75149 -4.36281,-1.75149 -1.30565,0 -2.45208,0.44583 -1.14643,0.44584 -2.00626,1.30566 -0.85982,0.85982 -1.36934,2.16548 -0.47768,1.27381 -0.47768,2.99346 l 0,20.66759 -6.84674,0 0,-20.66759 q 0,-3.56668 -1.43304,-5.22263 -1.43304,-1.6878 -4.20358,-1.6878 -1.91071,0 -3.53482,0.9872 -1.62411,0.95536 -2.99346,2.64316 l 0,23.94766 -6.84674,0 z"
         style="font-style:normal;font-variant:normal;font-weight:600;font-stretch:normal;font-family:Lato;-inkscape-font-specification:'Lato Semi-Bold';fill:#1a1a1a;fill-opacity:1"
         id="path5123" />
      <path
         d="m 527.36652,471.19084 q -0.47768,1.30566 -1.52857,1.94257 -1.0509,0.66875 -2.13364,0.66875 l -2.89792,0 18.85241,-47.64055 q 0.44584,-1.17828 1.36935,-1.81518 0.95536,-0.63691 2.16548,-0.63691 l 2.89792,0 -18.72503,47.48132 z"
         style="font-style:normal;font-variant:normal;font-weight:600;font-stretch:normal;font-family:Lato;-inkscape-font-specification:'Lato Semi-Bold';fill:#1a1a1a;fill-opacity:1"
         id="path5125" />
      <path
         d="m 556.83535,444.37711 q 1.52857,-3.08899 3.69405,-4.84048 2.16548,-1.78334 5.19078,-1.78334 1.05089,0 1.97441,0.25477 0.92351,0.22291 1.65595,0.70059 l -0.47768,5.15894 q -0.12738,0.54137 -0.41399,0.76429 -0.25476,0.19107 -0.70059,0.19107 -0.47768,0 -1.36935,-0.15923 -0.89167,-0.19107 -1.87887,-0.19107 -1.43304,0 -2.54762,0.41399 -1.08274,0.41399 -1.97441,1.21012 -0.85982,0.79613 -1.52857,1.94256 -0.66876,1.14643 -1.24197,2.61131 l 0,20.18992 -6.84674,0 0,-32.4822 3.98066,0 q 1.08274,0 1.49673,0.41399 0.41399,0.38215 0.57322,1.36935 l 0.41399,4.23542 z"
         style="font-style:normal;font-variant:normal;font-weight:600;font-stretch:normal;font-family:Lato;-inkscape-font-specification:'Lato Semi-Bold';fill:#1a1a1a;fill-opacity:1"
         id="path5127" />
      <path
         d="m 601.26847,438.35835 0,32.4822 -4.13989,0 q -1.36934,0 -1.75149,-1.30566 l -0.50952,-3.0253 q -1.01905,1.08274 -2.16548,1.9744 -1.11459,0.89167 -2.3884,1.52858 -1.27381,0.6369 -2.73869,0.9872 -1.43304,0.3503 -3.08899,0.3503 -2.67501,0 -4.71311,-0.89167 -2.03809,-0.89167 -3.43929,-2.51578 -1.36934,-1.6241 -2.06994,-3.88512 -0.7006,-2.29286 -0.7006,-5.03156 l 0,-20.66759 6.84674,0 0,20.66759 q 0,3.28007 1.49673,5.09525 1.52857,1.81518 4.61756,1.81518 2.26102,0 4.20358,-1.01905 1.97441,-1.05089 3.69405,-2.86607 l 0,-23.6929 6.84674,0 z"
         style="font-style:normal;font-variant:normal;font-weight:600;font-stretch:normal;font-family:Lato;-inkscape-font-specification:'Lato Semi-Bold';fill:#1a1a1a;fill-opacity:1"
         id="path5129" />
      <path
         d="m 637.09443,438.35835 0,32.4822 -4.13989,0 q -1.36935,0 -1.75149,-1.30566 l -0.50952,-3.0253 q -1.01905,1.08274 -2.16548,1.9744 -1.11459,0.89167 -2.3884,1.52858 -1.27381,0.6369 -2.73869,0.9872 -1.43304,0.3503 -3.089,0.3503 -2.675,0 -4.7131,-0.89167 -2.0381,-0.89167 -3.43929,-2.51578 -1.36935,-1.6241 -2.06994,-3.88512 -0.7006,-2.29286 -0.7006,-5.03156 l 0,-20.66759 6.84674,0 0,20.66759 q 0,3.28007 1.49673,5.09525 1.52857,1.81518 4.61756,1.81518 2.26102,0 4.20358,-1.01905 1.97441,-1.05089 3.69405,-2.86607 l 0,-23.6929 6.84674,0 z"
         style="font-style:normal;font-variant:normal;font-weight:600;font-stretch:normal;font-family:Lato;-inkscape-font-specification:'Lato Semi-Bold';fill:#1a1a1a;fill-opacity:1"
         id="path5131" />
      <path
         d="m 674.13048,438.35835 -13.05657,32.4822 -6.17798,0 -13.05657,-32.4822 5.63661,0 q 0.79614,0 1.30566,0.41399 0.54137,0.38215 0.7006,0.92352 l 7.19703,18.9161 q 0.44584,1.3375 0.79613,2.64315 0.3503,1.30566 0.60506,2.64316 0.25477,-1.3375 0.60506,-2.61131 0.38215,-1.30566 0.82798,-2.675 l 7.32442,-18.9161 q 0.19107,-0.57322 0.70059,-0.95536 0.50953,-0.38215 1.24197,-0.38215 l 5.35001,0 z"
         style="font-style:normal;font-variant:normal;font-weight:600;font-stretch:normal;font-family:Lato;-inkscape-font-specification:'Lato Semi-Bold';fill:#1a1a1a;fill-opacity:1"
         id="path5133" />
      <path
         d="m 686.0048,438.35835 0,32.4822 -6.84674,0 0,-32.4822 6.84674,0 z m 1.14643,-9.80834 q 0,0.92351 -0.38214,1.75149 -0.3503,0.82797 -0.98721,1.46488 -0.6369,0.60506 -1.49673,0.9872 -0.82797,0.3503 -1.78333,0.3503 -0.92352,0 -1.75149,-0.3503 -0.79614,-0.38214 -1.4012,-0.9872 -0.60506,-0.63691 -0.9872,-1.46488 -0.3503,-0.82798 -0.3503,-1.75149 0,-0.95536 0.3503,-1.78334 0.38214,-0.82798 0.9872,-1.43304 0.60506,-0.6369 1.4012,-0.9872 0.82797,-0.38214 1.75149,-0.38214 0.95536,0 1.78333,0.38214 0.85983,0.3503 1.49673,0.9872 0.63691,0.60506 0.98721,1.43304 0.38214,0.82798 0.38214,1.78334 z"
         style="font-style:normal;font-variant:normal;font-weight:600;font-stretch:normal;font-family:Lato;-inkscape-font-specification:'Lato Semi-Bold';fill:#1a1a1a;fill-opacity:1"
         id="path5135" />
    </g>
  </g>
</svg>
