<?xml version="1.0" encoding="UTF-8" standalone="no"?>
<!-- Generator: Adobe Illustrator 16.0.0, SVG Export Plug-In . SVG Version: 6.00 Build 0)  -->

<svg
   xmlns:dc="http://purl.org/dc/elements/1.1/"
   xmlns:cc="http://creativecommons.org/ns#"
   xmlns:rdf="http://www.w3.org/1999/02/22-rdf-syntax-ns#"
   xmlns:svg="http://www.w3.org/2000/svg"
   xmlns="http://www.w3.org/2000/svg"
   xmlns:sodipodi="http://sodipodi.sourceforge.net/DTD/sodipodi-0.dtd"
   xmlns:inkscape="http://www.inkscape.org/namespaces/inkscape"
   version="1.1"
   id="Layer_1"
   x="0px"
   y="0px"
   width="514.43384"
   height="187.82986"
   viewBox="1.464 25.444 514.43383 187.82987"
   enable-background="new 1.464 25.444 498.152 149.23"
   xml:space="preserve"
   inkscape:version="0.91 r13725"
   sodipodi:docname="slack.svg"><metadata
     id="metadata51"><rdf:RDF><cc:Work
         rdf:about=""><dc:format>image/svg+xml</dc:format><dc:type
           rdf:resource="http://purl.org/dc/dcmitype/StillImage" /><dc:title>background</dc:title></cc:Work></rdf:RDF></metadata><defs
     id="defs49" /><sodipodi:namedview
     pagecolor="#ffffff"
     bordercolor="#666666"
     borderopacity="1"
     objecttolerance="10"
     gridtolerance="10"
     guidetolerance="10"
     inkscape:pageopacity="0"
     inkscape:pageshadow="2"
     inkscape:window-width="1436"
     inkscape:window-height="855"
     id="namedview47"
     showgrid="false"
     fit-margin-top="0"
     fit-margin-left="0"
     fit-margin-right="0"
     fit-margin-bottom="0"
     inkscape:zoom="1.2686891"
     inkscape:cx="231.26035"
     inkscape:cy="72.105266"
     inkscape:window-x="4"
     inkscape:window-y="0"
     inkscape:window-maximized="1"
     inkscape:current-layer="Layer_1" /><title
     id="title3">background</title><title
     id="title5">Layer 1</title><g
     id="g7"
     transform="translate(6.6643142,2.4662313e-4)"><g
       id="g9"><path
         d="m 178.463,83.987 c 0,-14.818 10.804,-25.165 30.438,-25.165 11.98,0 21.783,3.825 27.094,7.572 0.76,0.535 2.116,1.833 1.303,4.247 -1.042,2.6 -2.953,6.51 -4.324,9.05 -0.798,1.48 -2.836,1.285 -3.88,0.756 -3.783,-1.917 -9.988,-5.16 -15.688,-5.758 -1.399,-0.147 -2.869,-0.227 -4.347,-0.188 -5.02,0.112 -9.214,1.855 -10.691,5.685 -0.297,0.762 -0.457,1.523 -0.477,2.274 -0.138,5.047 6.886,6.872 15.395,8.334 15.819,2.71 27.787,7.348 27.787,23.63 0,13.827 -10.989,26.323 -32.52,25.94 -14.194,-0.287 -24.264,-5.083 -29.66,-9.737 -0.184,-0.158 -2.238,-2.25 -1.137,-4.766 1.26,-3.239 3.387,-6.951 5.056,-8.922 0.928,-1.266 3.377,-1.467 4.65,-0.678 4.448,2.764 11.768,7.196 20.206,7.49 0.666,0.023 1.326,0.027 1.974,0.01 7.59,-0.184 12.182,-3.062 12.086,-7.91 -0.082,-4.271 -6.1,-6.766 -15.683,-8.572 -15.284,-2.879 -27.58,-7.917 -27.58,-23.292"
         id="path11"
         inkscape:connector-curvature="0"
         style="fill:#443642" /><path
         d="m 317.316,105.086 c -10.778,0.141 -20.66,3.087 -20.945,11.51 -0.003,6.684 5.419,9.967 13.029,9.537 7.3,-0.703 12.867,-3.869 15.32,-8.07 0.907,-1.557 1.045,-7.383 0.99,-9.873 -0.014,-0.53 -1.062,-1.533 -1.521,-1.726 -2.29,-0.965 -3.985,-1.263 -6.874,-1.38 M 281.453,71.146 c 5.04,-4.51 15.033,-11.53 30.959,-11.16 21.017,0.437 32.12,10.29 33.154,33.86 0.426,9.72 -0.28,36.832 -0.448,43.587 -0.025,0.969 -0.353,1.639 -1.659,1.664 -3.461,0.139 -11.457,0.084 -15.131,0.036 -1.854,-0.09 -2.069,-1.01 -2.093,-1.973 -0.016,-0.63 -0.07,-2.498 -0.109,-4.021 -0.021,-0.808 -0.78,-0.785 -0.974,-0.578 -4.93,5.264 -13.004,7.806 -21.59,7.806 -13.05,0 -26.06,-7.677 -26.02,-22.88 0.04,-15.57 11.08,-23.25 23.208,-25.061 7.766,-1.156 16.52,-0.128 23.149,2.506 0.424,0.17 1.29,-0.076 1.297,-0.677 0.027,-1.984 -0.069,-5.765 -0.45,-7.557 -0.973,-4.566 -4.782,-8.24 -12.784,-9.23 -1.648,-0.203 -3.307,-0.27 -4.968,-0.138 -6.361,0.5 -14.016,5.46 -17.186,7.317 -0.746,0.436 -1.914,0.117 -2.292,-0.37 -1.85,-2.39 -6.5,-9.38 -6.866,-10.497 -0.366,-1.114 0.15,-2.052 0.801,-2.638 l 0.002,0.004 z"
         id="path13"
         inkscape:connector-curvature="0"
         style="fill:#443642" /><path
         d="m 352.496,100.13 c -0.125,-21.715 15.005,-40.034 39.573,-40.195 15.33,-0.1 26.467,6.85 28.431,10.128 0.399,0.77 0.194,1.413 -0.082,2.188 -1.298,2.74 -4.576,8.034 -6.912,11.034 -0.995,1.278 -2.075,0.183 -3.33,-0.652 -3.483,-2.32 -10.101,-5.157 -16.614,-5.157 -11.816,0.002 -20.615,8.104 -20.517,23.01 0.092,14.304 8.52,22.165 20.558,22.45 6.293,0.158 12.39,-3.459 15.67,-6.422 1.03,-0.899 2.096,-0.449 3.273,0.471 2.31,2.361 5.623,6.006 7.46,8.515 1.203,1.394 0.303,2.758 -0.13,3.306 -4.984,6.307 -14.61,11.615 -27.349,11.687 -26.674,0.187 -39.906,-18.568 -40.029,-40.36"
         id="path15"
         inkscape:connector-curvature="0"
         style="fill:#443642" /><path
         d="m 479.823,139.514 c 1.252,-0.094 14.613,-1.938 18.714,-2.877 1.018,-0.232 1.38,-1.088 0.811,-1.936 -2.29,-3.434 -8.311,-13.186 -14.617,-21.916 -5.8,-8.027 -11.913,-15.087 -13.89,-17.803 -0.482,-0.66 -0.456,-1.31 0.069,-1.822 3.761,-3.68 19.493,-19.105 25.408,-25.475 2.29,-2.478 0.915,-3.544 -1.03,-4.123 -3.757,-1.12 -9.834,-2.516 -13.29,-3.245 -1.457,-0.308 -3.212,-0.2 -4.486,1.11 -5.914,5.515 -23.963,23.63 -29.351,29.045 -0.97,0.977 -1.535,0.76 -1.54,-0.636 -0.044,-10.44 -0.25,-55.138 -0.623,-62.49 -0.026,-0.972 -1.195,-1.71 -1.854,-1.745 -3.388,-0.177 -11.947,-0.228 -15.32,-0.03 -0.945,0.107 -1.848,1.07 -1.93,1.884 -0.778,11.756 0.33,98.054 0.792,110.126 0.033,0.873 0.683,1.55 1.512,1.599 3.365,0.195 11.688,0.182 15.574,0.109 1.912,0 2.146,-1.344 2.146,-1.344 l 0.288,-23.157 c 0,0 0.197,-1.03 0.516,-1.37 1.37,-1.475 5.16,-5.537 6.776,-7.107 0.388,-0.377 1,-0.35 1.396,0.183 1.92,2.59 7.395,11.01 12.47,18.53 4.663,6.908 9.016,13.039 9.32,13.472 0.702,1 1.522,1.04 2.14,1.021 l 0,-0.003 z"
         id="path17"
         inkscape:connector-curvature="0"
         style="fill:#443642" /><path
         d="m 252.59,139.434 c 1.175,0.039 10.09,0.029 14.04,0.024 1.33,0.026 2.021,-0.981 2.065,-1.87 0.839,-16.926 0.48,-97.512 -0.05,-110.237 -0.044,-1.1 -0.515,-1.513 -1.266,-1.613 -3.39,-0.454 -13.024,-0.348 -16.112,0.46 -0.604,0.157 -0.96,0.616 -0.979,1.206 -0.756,32.8 -0.246,108.42 -0.086,109.852 0.159,1.434 0.909,2.128 2.39,2.178 l -0.002,0 z"
         id="path19"
         inkscape:connector-curvature="0"
         style="fill:#443642" /><g
         id="g21"><g
           id="g23"><path
             d="M 13.997,105.78 C 8.503,105.822 3.849,102.548 2.133,97.438 2.067,97.24 2.01,97.048 1.955,96.855 0.085,90.311 3.711,83.465 10.21,81.273 L 114.45,46.35 c 1.267,-0.363 2.543,-0.548 3.807,-0.556 5.64,-0.044 10.422,3.302 12.18,8.52 l 0.156,0.504 c 1.95,6.816 -2.895,12.9 -8.7,14.85 -0.004,0.003 -1.06,0.36 -103.662,35.391 -1.387,0.471 -2.81,0.709 -4.234,0.721 l 0,0 z"
             id="path25"
             inkscape:connector-curvature="0"
             style="fill:#70cadb" /></g><g
           id="g27"><path
             d="m 31.372,157.045 c -5.537,0.04 -10.207,-3.188 -11.903,-8.225 -0.064,-0.192 -0.125,-0.385 -0.18,-0.579 -1.896,-6.622 1.726,-13.54 8.247,-15.735 L 131.78,97.263 c 1.347,-0.45 2.738,-0.68 4.137,-0.693 5.552,-0.042 10.43,3.35 12.151,8.444 l 0.16,0.53 c 1.007,3.521 0.412,7.478 -1.59,10.601 -1.492,2.322 -6.198,4.366 -6.198,4.366 L 35.8,156.29 c -1.458,0.487 -2.945,0.744 -4.428,0.757 l 0,-0.002 z"
             id="path29"
             inkscape:connector-curvature="0"
             style="fill:#e01765" /></g><g
           id="g31"><path
             d="m 118.148,157.268 c -5.56,0.043 -10.483,-3.465 -12.255,-8.723 l -34.79,-103.34 -0.174,-0.58 c -1.885,-6.59 1.74,-13.464 8.237,-15.654 1.3,-0.437 2.644,-0.665 3.997,-0.677 2.01,-0.015 3.955,0.438 5.787,1.343 3.063,1.525 5.354,4.15 6.449,7.392 l 34.787,103.331 0.101,0.332 c 1.954,6.842 -1.663,13.72 -8.16,15.91 -1.287,0.429 -2.627,0.654 -3.979,0.666 l 0,0 z"
             id="path33"
             inkscape:connector-curvature="0"
             style="fill:#e8a723" /></g><g
           id="g35"><path
             d="m 66.435,174.674 c -5.56,0.043 -10.487,-3.465 -12.26,-8.73 L 19.394,62.608 c -0.06,-0.19 -0.12,-0.38 -0.178,-0.575 -1.88,-6.588 1.734,-13.463 8.229,-15.655 1.295,-0.43 2.634,-0.657 3.985,-0.668 5.561,-0.044 10.485,3.463 12.257,8.723 l 34.782,103.34 c 0.065,0.18 0.124,0.379 0.177,0.569 1.884,6.593 -1.732,13.472 -8.237,15.664 -1.292,0.431 -2.629,0.656 -3.978,0.667 l 0.004,0 z"
             id="path37"
             inkscape:connector-curvature="0"
             style="fill:#3eb890" /></g><path
           d="m 100.997,133.996 24.258,-8.294 -7.93,-23.55 -24.286,8.207 7.958,23.637 z"
           id="path39"
           inkscape:connector-curvature="0"
           style="fill:#cc2027" /><path
           d="m 49.364,151.65 24.256,-8.293 -7.99,-23.73 -24.28,8.21 8.014,23.813 z"
           id="path41"
           inkscape:connector-curvature="0"
           style="fill:#361238" /><path
           d="M 83.727,82.7 107.987,74.417 100.15,51.142 75.845,59.285 83.727,82.7 Z"
           id="path43"
           inkscape:connector-curvature="0"
           style="fill:#65863a" /><path
           d="m 32.088,100.33 24.26,-8.283 -7.933,-23.572 -24.305,8.142 7.978,23.713 0,0 z"
           id="path45"
           inkscape:connector-curvature="0"
           style="fill:#1a937d" /></g></g></g><g
     style="font-style:normal;font-variant:normal;font-weight:normal;font-stretch:normal;font-size:21.85140038px;line-height:125%;font-family:Lato;-inkscape-font-specification:'Lato, Normal';text-align:start;letter-spacing:0px;word-spacing:0px;writing-mode:lr-tb;text-anchor:start;fill:#1a1a1a;fill-opacity:1;stroke:none;stroke-width:1px;stroke-linecap:butt;stroke-linejoin:miter;stroke-opacity:1"
     id="text4179"><path
       d="m 6.0309007,201.1245 q 0.8740561,0 1.5295981,-0.20759 0.655542,-0.21852 1.09257,-0.60092 0.437028,-0.3824 0.655542,-0.90683 0.218514,-0.53536 0.218514,-1.17997 0,-1.28924 -0.8522046,-1.96663 -0.8522046,-0.67739 -2.5784653,-0.67739 l -2.075883,0 0,5.53933 2.0103288,0 z m 7.4076243,8.19427 -2.283471,0 q -0.677393,0 -0.983313,-0.52443 l -3.6710352,-5.29897 q -0.1857369,-0.27314 -0.4042509,-0.39332 -0.218514,-0.12018 -0.655542,-0.12018 l -1.420341,0 0,6.3369 -2.5566138,0 0,-15.73301 4.6324968,0 q 1.5514495,0 2.6658709,0.31685 1.1253471,0.31684 1.8464432,0.90683 0.721096,0.57906 1.059793,1.39849 0.349622,0.81943 0.349622,1.82459 0,0.81943 -0.251291,1.5296 -0.240365,0.71017 -0.71017,1.28923 -0.45888,0.57907 -1.136273,1.00517 -0.6773934,0.4261 -1.5405237,0.66647 0.4698051,0.28406 0.8085018,0.79757 l 4.2500969,5.99821 z"
       style="font-style:normal;font-variant:normal;font-weight:600;font-stretch:normal;font-family:Lato;-inkscape-font-specification:'Lato Semi-Bold';text-align:center;text-anchor:middle;fill:#1a1a1a;fill-opacity:1"
       id="path5900" /><path
       d="m 21.481207,202.49021 q 0,-0.58999 -0.174811,-1.09257 -0.163886,-0.51351 -0.491657,-0.88498 -0.327771,-0.3824 -0.819427,-0.58999 -0.480731,-0.21851 -1.114422,-0.21851 -1.278307,0 -2.010329,0.73202 -0.732022,0.73202 -0.928684,2.05403 l 5.53933,0 z m -5.604884,1.44219 q 0.0437,0.95054 0.294993,1.64978 0.251292,0.68832 0.666468,1.1472 0.426102,0.45888 1.005165,0.68832 0.589987,0.21851 1.311084,0.21851 0.688319,0 1.190901,-0.15296 0.502582,-0.16388 0.874056,-0.34962 0.371474,-0.19666 0.633691,-0.34962 0.262216,-0.16389 0.48073,-0.16389 0.284069,0 0.437028,0.21852 l 0.666468,0.86313 q -0.415177,0.49165 -0.93961,0.83035 -0.524434,0.3387 -1.114422,0.55721 -0.589987,0.20759 -1.212752,0.295 -0.622765,0.0983 -1.212753,0.0983 -1.158124,0 -2.152363,-0.3824 -0.983313,-0.39333 -1.715335,-1.1472 -0.721096,-0.75387 -1.136273,-1.8683 -0.404251,-1.11442 -0.404251,-2.56754 0,-1.15812 0.360549,-2.16328 0.371473,-1.00517 1.048867,-1.74812 0.688319,-0.74294 1.660706,-1.16905 0.983313,-0.43702 2.217917,-0.43702 1.027016,0 1.901072,0.33869 0.874056,0.32777 1.507747,0.97239 0.63369,0.64462 0.983313,1.58423 0.360548,0.92868 0.360548,2.11958 0,0.54629 -0.120183,0.73202 -0.120183,0.18574 -0.437028,0.18574 l -7.156333,0 z"
       style="font-style:normal;font-variant:normal;font-weight:600;font-stretch:normal;font-family:Lato;-inkscape-font-specification:'Lato Semi-Bold';text-align:center;text-anchor:middle;fill:#1a1a1a;fill-opacity:1"
       id="path5902" /><path
       d="m 32.893101,200.91691 q -0.491657,-0.62277 -1.081644,-0.87406 -0.589988,-0.26221 -1.278307,-0.26221 -1.376639,0 -2.152363,1.01609 -0.775725,1.00516 -0.775725,2.98271 0,1.02702 0.174811,1.75904 0.174811,0.7211 0.502582,1.17997 0.327771,0.45888 0.797577,0.66647 0.469805,0.20759 1.059792,0.20759 0.895908,0 1.540524,-0.3824 0.655542,-0.39332 1.212753,-1.10349 l 0,-5.18971 z m 2.349025,-2.74235 0,14.84802 -2.349025,0 0,-5.22248 q -0.688319,0.75387 -1.55145,1.22368 -0.852204,0.45888 -1.988477,0.45888 -0.93961,0 -1.704409,-0.37148 -0.764799,-0.3824 -1.311084,-1.10349 -0.546285,-0.7211 -0.852205,-1.78089 -0.294994,-1.07072 -0.294994,-2.44736 0,-1.24553 0.327771,-2.30532 0.338697,-1.05979 0.961462,-1.83552 0.622765,-0.78665 1.507747,-1.22368 0.895907,-0.44795 1.999403,-0.44795 0.535359,0 0.972387,0.0983 0.447954,0.0874 0.819427,0.27314 0.3824,0.17481 0.699245,0.43703 0.316846,0.25129 0.600914,0.57906 l 0.142034,-0.73202 q 0.131108,-0.44795 0.600913,-0.44795 l 1.420341,0 z"
       style="font-style:normal;font-variant:normal;font-weight:600;font-stretch:normal;font-family:Lato;-inkscape-font-specification:'Lato Semi-Bold';text-align:center;text-anchor:middle;fill:#1a1a1a;fill-opacity:1"
       id="path5904" /><path
       d="m 47.510663,198.17456 0,11.14421 -1.420341,0 q -0.469805,0 -0.600913,-0.44795 l -0.174811,-1.03794 q -0.349623,0.37147 -0.742948,0.67739 -0.382399,0.30592 -0.819427,0.52443 -0.437028,0.21852 -0.939611,0.3387 -0.491656,0.12018 -1.059793,0.12018 -0.917758,0 -1.617003,-0.30592 -0.699245,-0.30592 -1.179976,-0.86313 -0.469805,-0.55721 -0.71017,-1.33293 -0.240366,-0.78665 -0.240366,-1.72626 l 0,-7.09078 2.349026,0 0,7.09078 q 0,1.12534 0.513508,1.74811 0.524433,0.62276 1.584226,0.62276 0.775725,0 1.442193,-0.34962 0.677393,-0.36055 1.267381,-0.98331 l 0,-8.12872 2.349025,0 z"
       style="font-style:normal;font-variant:normal;font-weight:600;font-stretch:normal;font-family:Lato;-inkscape-font-specification:'Lato Semi-Bold';text-align:center;text-anchor:middle;fill:#1a1a1a;fill-opacity:1"
       id="path5906" /><path
       d="m 57.715267,202.49021 q 0,-0.58999 -0.174811,-1.09257 -0.163886,-0.51351 -0.491657,-0.88498 -0.327771,-0.3824 -0.819427,-0.58999 -0.480731,-0.21851 -1.114422,-0.21851 -1.278307,0 -2.010328,0.73202 -0.732022,0.73202 -0.928685,2.05403 l 5.53933,0 z m -5.604884,1.44219 q 0.0437,0.95054 0.294994,1.64978 0.251291,0.68832 0.666467,1.1472 0.426103,0.45888 1.005165,0.68832 0.589988,0.21851 1.311084,0.21851 0.688319,0 1.190901,-0.15296 0.502582,-0.16388 0.874056,-0.34962 0.371474,-0.19666 0.633691,-0.34962 0.262217,-0.16389 0.480731,-0.16389 0.284068,0 0.437028,0.21852 l 0.666467,0.86313 q -0.415176,0.49165 -0.93961,0.83035 -0.524433,0.3387 -1.114421,0.55721 -0.589988,0.20759 -1.212753,0.295 -0.622765,0.0983 -1.212753,0.0983 -1.158124,0 -2.152363,-0.3824 -0.983313,-0.39333 -1.715335,-1.1472 -0.721096,-0.75387 -1.136272,-1.8683 -0.404251,-1.11442 -0.404251,-2.56754 0,-1.15812 0.360548,-2.16328 0.371474,-1.00517 1.048867,-1.74812 0.688319,-0.74294 1.660706,-1.16905 0.983313,-0.43702 2.217918,-0.43702 1.027015,0 1.901071,0.33869 0.874056,0.32777 1.507747,0.97239 0.633691,0.64462 0.983313,1.58423 0.360548,0.92868 0.360548,2.11958 0,0.54629 -0.120183,0.73202 -0.120182,0.18574 -0.437028,0.18574 l -7.156333,0 z"
       style="font-style:normal;font-variant:normal;font-weight:600;font-stretch:normal;font-family:Lato;-inkscape-font-specification:'Lato Semi-Bold';text-align:center;text-anchor:middle;fill:#1a1a1a;fill-opacity:1"
       id="path5908" /><path
       d="m 68.668284,200.19581 q -0.08741,0.15296 -0.196663,0.21852 -0.109257,0.0656 -0.273142,0.0656 -0.185737,0 -0.404251,-0.10926 -0.218514,-0.12018 -0.513508,-0.26221 -0.294994,-0.14204 -0.699245,-0.2513 -0.393325,-0.12018 -0.928685,-0.12018 -0.437028,0 -0.797576,0.10926 -0.349622,0.0983 -0.600913,0.29499 -0.240366,0.18574 -0.371474,0.44796 -0.131108,0.25129 -0.131108,0.54628 0,0.39333 0.240365,0.65554 0.240365,0.26222 0.633691,0.45888 0.393325,0.18574 0.895907,0.3387 0.502582,0.15296 1.027016,0.32777 0.524433,0.17481 1.027016,0.40425 0.502582,0.22944 0.895907,0.56814 0.393325,0.32777 0.633691,0.8085 0.240365,0.46981 0.240365,1.1472 0,0.78665 -0.284068,1.45312 -0.284068,0.66646 -0.830353,1.15812 -0.546285,0.49166 -1.365713,0.7648 -0.808502,0.27314 -1.857369,0.27314 -0.579062,0 -1.125347,-0.10925 -0.535359,-0.0983 -1.027016,-0.27315 -0.480731,-0.18573 -0.906833,-0.43702 -0.415177,-0.2513 -0.742948,-0.54629 l 0.546285,-0.89591 q 0.09833,-0.16388 0.240366,-0.25129 0.15296,-0.0983 0.371474,-0.0983 0.229439,0 0.447953,0.15296 0.22944,0.14203 0.524434,0.31685 0.30592,0.17481 0.732022,0.32777 0.426102,0.14203 1.059793,0.14203 0.524433,0 0.906833,-0.12018 0.382399,-0.13111 0.633691,-0.34962 0.251291,-0.21852 0.371473,-0.49166 0.120183,-0.28407 0.120183,-0.60091 0,-0.42611 -0.240365,-0.69925 -0.240366,-0.27314 -0.644617,-0.4698 -0.393325,-0.19667 -0.906833,-0.34963 -0.502582,-0.15296 -1.027016,-0.32777 -0.524433,-0.17481 -1.037941,-0.40425 -0.502582,-0.22944 -0.906833,-0.57906 -0.393325,-0.36055 -0.633691,-0.86313 -0.240365,-0.51351 -0.240365,-1.24553 0,-0.66647 0.262217,-1.26738 0.273142,-0.60092 0.78665,-1.0598 0.524434,-0.45887 1.278307,-0.72109 0.764799,-0.27314 1.759038,-0.27314 1.125347,0 2.043106,0.36054 0.917758,0.36055 1.540523,0.98332 l -0.524433,0.8522 z"
       style="font-style:normal;font-variant:normal;font-weight:600;font-stretch:normal;font-family:Lato;-inkscape-font-specification:'Lato Semi-Bold';text-align:center;text-anchor:middle;fill:#1a1a1a;fill-opacity:1"
       id="path5910" /><path
       d="m 75.104547,209.49358 q -1.387564,0 -2.141437,-0.77572 -0.742948,-0.78665 -0.742948,-2.20699 l 0,-6.48987 -1.223678,0 q -0.196663,0 -0.338697,-0.12018 -0.142034,-0.13111 -0.142034,-0.3824 l 0,-0.95054 1.802741,-0.26221 0.513508,-3.22309 q 0.05463,-0.18573 0.185737,-0.29499 0.131108,-0.12018 0.349622,-0.12018 l 1.201827,0 0,3.66011 3.091973,0 0,1.69348 -3.091973,0 0,6.32598 q 0,0.60091 0.294994,0.91776 0.294994,0.31685 0.78665,0.31685 0.273143,0 0.469805,-0.0656 0.196663,-0.0765 0.338697,-0.15296 0.142034,-0.0874 0.240366,-0.15296 0.109257,-0.0765 0.207588,-0.0765 0.196662,0 0.316845,0.21852 l 0.699245,1.14719 q -0.546285,0.48073 -1.289233,0.74295 -0.742947,0.25129 -1.529598,0.25129 z"
       style="font-style:normal;font-variant:normal;font-weight:600;font-stretch:normal;font-family:Lato;-inkscape-font-specification:'Lato Semi-Bold';text-align:center;text-anchor:middle;fill:#1a1a1a;fill-opacity:1"
       id="path5912" /><path
       d="m 90.887397,204.44591 q -1.256456,0.0437 -2.119586,0.20759 -0.86313,0.15296 -1.39849,0.40425 -0.535359,0.24036 -0.775724,0.57906 -0.22944,0.3387 -0.22944,0.74295 0,0.39332 0.120183,0.67739 0.131108,0.27314 0.349622,0.45888 0.22944,0.17481 0.524434,0.26222 0.305919,0.0765 0.666467,0.0765 0.917759,0 1.573301,-0.3387 0.666468,-0.34962 1.289233,-1.00516 l 0,-2.06496 z m -6.227649,-4.7199 q 1.890146,-1.75904 4.501388,-1.75904 0.961462,0 1.704409,0.31684 0.753874,0.30592 1.256456,0.87406 0.513508,0.56814 0.775725,1.35479 0.273142,0.77572 0.273142,1.72626 l 0,7.07985 -1.048867,0 q -0.338697,0 -0.513508,-0.0983 -0.174811,-0.10926 -0.294994,-0.4261 l -0.22944,-0.90684 q -0.426102,0.3824 -0.841279,0.68832 -0.415176,0.295 -0.86313,0.50259 -0.437028,0.20758 -0.950536,0.30592 -0.502582,0.10925 -1.114421,0.10925 -0.677394,0 -1.267381,-0.18573 -0.579063,-0.18574 -1.005165,-0.55722 -0.426102,-0.38239 -0.677393,-0.93961 -0.240366,-0.55721 -0.240366,-1.31108 0,-0.64462 0.338697,-1.25645 0.349622,-0.61184 1.136273,-1.09257 0.797576,-0.49166 2.086809,-0.80851 1.300158,-0.31684 3.20123,-0.36054 l 0,-0.74295 q 0,-1.20183 -0.513508,-1.79182 -0.513508,-0.58999 -1.507747,-0.58999 -0.677393,0 -1.136273,0.17482 -0.458879,0.16388 -0.797576,0.36054 -0.338696,0.19667 -0.600913,0.37148 -0.262217,0.16388 -0.557211,0.16388 -0.240365,0 -0.415177,-0.12018 -0.163885,-0.13111 -0.273142,-0.31684 l -0.426102,-0.7648 z"
       style="font-style:normal;font-variant:normal;font-weight:600;font-stretch:normal;font-family:Lato;-inkscape-font-specification:'Lato Semi-Bold';text-align:center;text-anchor:middle;fill:#1a1a1a;fill-opacity:1"
       id="path5914" /><path
       d="m 98.140018,199.64953 q 0.360549,-0.37148 0.742948,-0.66647 0.393325,-0.30592 0.830353,-0.52443 0.437031,-0.21852 0.928681,-0.3387 0.49166,-0.12018 1.07072,-0.12018 0.91776,0 1.60608,0.30592 0.69925,0.30592 1.16905,0.86313 0.48073,0.55721 0.7211,1.34386 0.24036,0.77572 0.24036,1.71533 l 0,7.09078 -2.3381,0 0,-7.09078 q 0,-1.12535 -0.52443,-1.74811 -0.51351,-0.62277 -1.5733,-0.62277 -0.78665,0 -1.464046,0.36055 -0.666468,0.36055 -1.256456,0.98332 l 0,8.11779 -2.349025,0 0,-11.14421 1.420341,0 q 0.480731,0 0.611839,0.44795 l 0.163885,1.02702 z"
       style="font-style:normal;font-variant:normal;font-weight:600;font-stretch:normal;font-family:Lato;-inkscape-font-specification:'Lato Semi-Bold';text-align:center;text-anchor:middle;fill:#1a1a1a;fill-opacity:1"
       id="path5916" /><path
       d="m 116.10289,198.17456 0,11.14421 -2.34903,0 0,-11.14421 2.34903,0 z m 0.39332,-3.36512 q 0,0.31685 -0.13111,0.60092 -0.12018,0.28406 -0.33869,0.50258 -0.21852,0.20759 -0.51351,0.33869 -0.28407,0.12019 -0.61184,0.12019 -0.31684,0 -0.60091,-0.12019 -0.27315,-0.1311 -0.48073,-0.33869 -0.20759,-0.21852 -0.3387,-0.50258 -0.12018,-0.28407 -0.12018,-0.60092 0,-0.32777 0.12018,-0.61184 0.13111,-0.28407 0.3387,-0.49165 0.20758,-0.21852 0.48073,-0.3387 0.28407,-0.13111 0.60091,-0.13111 0.32777,0 0.61184,0.13111 0.29499,0.12018 0.51351,0.3387 0.21851,0.20758 0.33869,0.49165 0.13111,0.28407 0.13111,0.61184 z"
       style="font-style:normal;font-variant:normal;font-weight:600;font-stretch:normal;font-family:Lato;-inkscape-font-specification:'Lato Semi-Bold';text-align:center;text-anchor:middle;fill:#1a1a1a;fill-opacity:1"
       id="path5918" /><path
       d="m 121.27177,199.64953 q 0.36055,-0.37148 0.74295,-0.66647 0.39332,-0.30592 0.83035,-0.52443 0.43703,-0.21852 0.92869,-0.3387 0.49165,-0.12018 1.07071,-0.12018 0.91776,0 1.60608,0.30592 0.69925,0.30592 1.16905,0.86313 0.48073,0.55721 0.7211,1.34386 0.24036,0.77572 0.24036,1.71533 l 0,7.09078 -2.3381,0 0,-7.09078 q 0,-1.12535 -0.52443,-1.74811 -0.51351,-0.62277 -1.5733,-0.62277 -0.78665,0 -1.46404,0.36055 -0.66647,0.36055 -1.25646,0.98332 l 0,8.11779 -2.34903,0 0,-11.14421 1.42035,0 q 0.48073,0 0.61184,0.44795 l 0.16388,1.02702 z"
       style="font-style:normal;font-variant:normal;font-weight:600;font-stretch:normal;font-family:Lato;-inkscape-font-specification:'Lato Semi-Bold';text-align:center;text-anchor:middle;fill:#1a1a1a;fill-opacity:1"
       id="path5920" /><path
       d="m 140.92233,198.17456 -4.47954,11.14421 -2.11958,0 -4.47954,-11.14421 1.93385,0 q 0.27314,0 0.44795,0.14203 0.18574,0.13111 0.24037,0.31685 l 2.46921,6.48986 q 0.15296,0.45888 0.27314,0.90684 0.12018,0.44795 0.20759,0.90683 0.0874,-0.45888 0.20759,-0.89591 0.1311,-0.44795 0.28406,-0.91776 l 2.51292,-6.48986 q 0.0655,-0.19667 0.24036,-0.32777 0.17481,-0.13111 0.4261,-0.13111 l 1.83552,0 z"
       style="font-style:normal;font-variant:normal;font-weight:600;font-stretch:normal;font-family:Lato;-inkscape-font-specification:'Lato Semi-Bold';text-align:center;text-anchor:middle;fill:#1a1a1a;fill-opacity:1"
       id="path5922" /><path
       d="m 144.99624,198.17456 0,11.14421 -2.34902,0 0,-11.14421 2.34902,0 z m 0.39333,-3.36512 q 0,0.31685 -0.13111,0.60092 -0.12018,0.28406 -0.3387,0.50258 -0.21851,0.20759 -0.5135,0.33869 -0.28407,0.12019 -0.61184,0.12019 -0.31685,0 -0.60092,-0.12019 -0.27314,-0.1311 -0.48073,-0.33869 -0.20759,-0.21852 -0.33869,-0.50258 -0.12019,-0.28407 -0.12019,-0.60092 0,-0.32777 0.12019,-0.61184 0.1311,-0.28407 0.33869,-0.49165 0.20759,-0.21852 0.48073,-0.3387 0.28407,-0.13111 0.60092,-0.13111 0.32777,0 0.61184,0.13111 0.29499,0.12018 0.5135,0.3387 0.21852,0.20758 0.3387,0.49165 0.13111,0.28407 0.13111,0.61184 z"
       style="font-style:normal;font-variant:normal;font-weight:600;font-stretch:normal;font-family:Lato;-inkscape-font-specification:'Lato Semi-Bold';text-align:center;text-anchor:middle;fill:#1a1a1a;fill-opacity:1"
       id="path5924" /><path
       d="m 151.54177,209.49358 q -1.38756,0 -2.14143,-0.77572 -0.74295,-0.78665 -0.74295,-2.20699 l 0,-6.48987 -1.22368,0 q -0.19666,0 -0.3387,-0.12018 -0.14203,-0.13111 -0.14203,-0.3824 l 0,-0.95054 1.80274,-0.26221 0.51351,-3.22309 q 0.0546,-0.18573 0.18573,-0.29499 0.13111,-0.12018 0.34963,-0.12018 l 1.20182,0 0,3.66011 3.09198,0 0,1.69348 -3.09198,0 0,6.32598 q 0,0.60091 0.295,0.91776 0.29499,0.31685 0.78665,0.31685 0.27314,0 0.4698,-0.0656 0.19667,-0.0765 0.3387,-0.15296 0.14203,-0.0874 0.24036,-0.15296 0.10926,-0.0765 0.20759,-0.0765 0.19667,0 0.31685,0.21852 l 0.69924,1.14719 q -0.54628,0.48073 -1.28923,0.74295 -0.74295,0.25129 -1.5296,0.25129 z"
       style="font-style:normal;font-variant:normal;font-weight:600;font-stretch:normal;font-family:Lato;-inkscape-font-specification:'Lato Semi-Bold';text-align:center;text-anchor:middle;fill:#1a1a1a;fill-opacity:1"
       id="path5926" /><path
       d="m 163.17389,202.49021 q 0,-0.58999 -0.17482,-1.09257 -0.16388,-0.51351 -0.49165,-0.88498 -0.32777,-0.3824 -0.81943,-0.58999 -0.48073,-0.21851 -1.11442,-0.21851 -1.27831,0 -2.01033,0.73202 -0.73202,0.73202 -0.92868,2.05403 l 5.53933,0 z m -5.60489,1.44219 q 0.0437,0.95054 0.29499,1.64978 0.2513,0.68832 0.66647,1.1472 0.4261,0.45888 1.00517,0.68832 0.58998,0.21851 1.31108,0.21851 0.68832,0 1.1909,-0.15296 0.50258,-0.16388 0.87406,-0.34962 0.37147,-0.19666 0.63369,-0.34962 0.26222,-0.16389 0.48073,-0.16389 0.28407,0 0.43703,0.21852 l 0.66647,0.86313 q -0.41518,0.49165 -0.93961,0.83035 -0.52444,0.3387 -1.11443,0.55721 -0.58998,0.20759 -1.21275,0.295 -0.62276,0.0983 -1.21275,0.0983 -1.15813,0 -2.15236,-0.3824 -0.98332,-0.39333 -1.71534,-1.1472 -0.7211,-0.75387 -1.13627,-1.8683 -0.40425,-1.11442 -0.40425,-2.56754 0,-1.15812 0.36054,-2.16328 0.37148,-1.00517 1.04887,-1.74812 0.68832,-0.74294 1.66071,-1.16905 0.98331,-0.43702 2.21792,-0.43702 1.02701,0 1.90107,0.33869 0.87405,0.32777 1.50774,0.97239 0.63369,0.64462 0.98332,1.58423 0.36055,0.92868 0.36055,2.11958 0,0.54629 -0.12019,0.73202 -0.12018,0.18574 -0.43703,0.18574 l -7.15633,0 z"
       style="font-style:normal;font-variant:normal;font-weight:600;font-stretch:normal;font-family:Lato;-inkscape-font-specification:'Lato Semi-Bold';text-align:center;text-anchor:middle;fill:#1a1a1a;fill-opacity:1"
       id="path5928" /><path
       d="m 178.84782,204.44591 q -1.25646,0.0437 -2.11959,0.20759 -0.86313,0.15296 -1.39849,0.40425 -0.53536,0.24036 -0.77572,0.57906 -0.22944,0.3387 -0.22944,0.74295 0,0.39332 0.12018,0.67739 0.13111,0.27314 0.34962,0.45888 0.22944,0.17481 0.52443,0.26222 0.30592,0.0765 0.66647,0.0765 0.91776,0 1.5733,-0.3387 0.66647,-0.34962 1.28924,-1.00516 l 0,-2.06496 z m -6.22765,-4.7199 q 1.89014,-1.75904 4.50138,-1.75904 0.96147,0 1.70441,0.31684 0.75388,0.30592 1.25646,0.87406 0.51351,0.56814 0.77572,1.35479 0.27315,0.77572 0.27315,1.72626 l 0,7.07985 -1.04887,0 q -0.3387,0 -0.51351,-0.0983 -0.17481,-0.10926 -0.29499,-0.4261 l -0.22944,-0.90684 q -0.4261,0.3824 -0.84128,0.68832 -0.41518,0.295 -0.86313,0.50259 -0.43703,0.20758 -0.95054,0.30592 -0.50258,0.10925 -1.11442,0.10925 -0.67739,0 -1.26738,-0.18573 -0.57906,-0.18574 -1.00516,-0.55722 -0.42611,-0.38239 -0.6774,-0.93961 -0.24036,-0.55721 -0.24036,-1.31108 0,-0.64462 0.33869,-1.25645 0.34963,-0.61184 1.13628,-1.09257 0.79757,-0.49166 2.08681,-0.80851 1.30015,-0.31684 3.20123,-0.36054 l 0,-0.74295 q 0,-1.20183 -0.51351,-1.79182 -0.51351,-0.58999 -1.50775,-0.58999 -0.67739,0 -1.13627,0.17482 -0.45888,0.16388 -0.79758,0.36054 -0.33869,0.19667 -0.60091,0.37148 -0.26222,0.16388 -0.55721,0.16388 -0.24037,0 -0.41518,-0.12018 -0.16388,-0.13111 -0.27314,-0.31684 l -0.4261,-0.7648 z"
       style="font-style:normal;font-variant:normal;font-weight:600;font-stretch:normal;font-family:Lato;-inkscape-font-specification:'Lato Semi-Bold';text-align:center;text-anchor:middle;fill:#1a1a1a;fill-opacity:1"
       id="path5930" /><path
       d="m 186.10044,199.64953 q 0.36055,-0.37148 0.74294,-0.66647 0.39333,-0.30592 0.83036,-0.52443 0.43703,-0.21852 0.92868,-0.3387 0.49166,-0.12018 1.07072,-0.12018 0.91776,0 1.60608,0.30592 0.69924,0.30592 1.16905,0.86313 0.48073,0.55721 0.7211,1.34386 0.24036,0.77572 0.24036,1.71533 l 0,7.09078 -2.3381,0 0,-7.09078 q 0,-1.12535 -0.52443,-1.74811 -0.51351,-0.62277 -1.5733,-0.62277 -0.78665,0 -1.46405,0.36055 -0.66647,0.36055 -1.25645,0.98332 l 0,8.11779 -2.34903,0 0,-11.14421 1.42034,0 q 0.48073,0 0.61184,0.44795 l 0.16389,1.02702 z"
       style="font-style:normal;font-variant:normal;font-weight:600;font-stretch:normal;font-family:Lato;-inkscape-font-specification:'Lato Semi-Bold';text-align:center;text-anchor:middle;fill:#1a1a1a;fill-opacity:1"
       id="path5932" /><path
       d="m 203.30841,200.91691 q -0.49165,-0.63369 -1.08164,-0.88498 -0.58999,-0.25129 -1.27831,-0.25129 -1.37663,0 -2.15236,1.01609 -0.77572,1.00516 -0.77572,2.98271 0,1.02702 0.17481,1.75904 0.17481,0.7211 0.50258,1.17997 0.32777,0.45888 0.79758,0.66647 0.4698,0.20759 1.05979,0.20759 0.89591,0 1.54052,-0.3824 0.65554,-0.39332 1.21275,-1.10349 l 0,-5.18971 z m 2.34903,-7.76817 0,16.17003 -1.42034,0 q -0.46981,0 -0.60091,-0.44795 l -0.20759,-1.21276 q -0.69925,0.81943 -1.59515,1.32201 -0.88499,0.50259 -2.06496,0.50259 -0.93961,0 -1.70441,-0.37148 -0.7648,-0.3824 -1.31109,-1.10349 -0.54628,-0.7211 -0.8522,-1.78089 -0.29499,-1.07072 -0.29499,-2.44736 0,-1.24553 0.32777,-2.30532 0.33869,-1.05979 0.96146,-1.83552 0.62276,-0.78665 1.50775,-1.22368 0.8959,-0.44795 1.9994,-0.44795 0.98331,0 1.67163,0.31684 0.68832,0.30592 1.2346,0.86313 l 0,-5.9982 2.34903,0 z"
       style="font-style:normal;font-variant:normal;font-weight:600;font-stretch:normal;font-family:Lato;-inkscape-font-specification:'Lato Semi-Bold';text-align:center;text-anchor:middle;fill:#1a1a1a;fill-opacity:1"
       id="path5934" /><path
       d="m 216.3974,198.17456 0,11.72327 q 0,0.69925 -0.18574,1.31109 -0.18574,0.62276 -0.58999,1.08164 -0.40425,0.45888 -1.04886,0.7211 -0.63369,0.26221 -1.54053,0.26221 -0.3824,0 -0.68832,-0.0546 -0.30592,-0.0546 -0.62276,-0.15296 l 0.0874,-1.27831 q 0.0328,-0.21851 0.18574,-0.25129 0.14203,-0.0328 0.55721,-0.0328 0.83035,0 1.15813,-0.37147 0.33869,-0.36055 0.33869,-1.23461 l 0,-11.72327 2.34903,0 z m 0.3824,-3.36512 q 0,0.31685 -0.13111,0.60092 -0.12018,0.28406 -0.3387,0.50258 -0.21851,0.20759 -0.50258,0.33869 -0.28407,0.12019 -0.61184,0.12019 -0.31684,0 -0.60091,-0.12019 -0.27315,-0.1311 -0.49166,-0.33869 -0.20759,-0.21852 -0.32777,-0.50258 -0.12018,-0.28407 -0.12018,-0.60092 0,-0.32777 0.12018,-0.61184 0.12018,-0.28407 0.32777,-0.49165 0.21851,-0.21852 0.49166,-0.3387 0.28407,-0.13111 0.60091,-0.13111 0.32777,0 0.61184,0.13111 0.28407,0.12018 0.50258,0.3387 0.21852,0.20758 0.3387,0.49165 0.13111,0.28407 0.13111,0.61184 z"
       style="font-style:normal;font-variant:normal;font-weight:600;font-stretch:normal;font-family:Lato;-inkscape-font-specification:'Lato Semi-Bold';text-align:center;text-anchor:middle;fill:#1a1a1a;fill-opacity:1"
       id="path5936" /><path
       d="m 224.18846,197.99975 q 1.2346,0 2.22884,0.40425 1.00516,0.40425 1.70441,1.1472 0.71017,0.74294 1.09257,1.80274 0.3824,1.05979 0.3824,2.3818 0,1.32201 -0.3824,2.3818 -0.3824,1.05979 -1.09257,1.81367 -0.69925,0.74295 -1.70441,1.1472 -0.99424,0.40425 -2.22884,0.40425 -1.24553,0 -2.2507,-0.40425 -0.99424,-0.40425 -1.70441,-1.1472 -0.71017,-0.75388 -1.09257,-1.81367 -0.3824,-1.05979 -0.3824,-2.3818 0,-1.32201 0.3824,-2.3818 0.3824,-1.0598 1.09257,-1.80274 0.71017,-0.74295 1.70441,-1.1472 1.00517,-0.40425 2.2507,-0.40425 z m 0,9.64739 q 1.50774,0 2.23976,-1.00517 0.74295,-1.01609 0.74295,-2.89531 0,-1.87922 -0.74295,-2.89531 -0.73202,-1.02701 -2.23976,-1.02701 -1.5296,0 -2.27255,1.02701 -0.74295,1.01609 -0.74295,2.89531 0,1.87922 0.74295,2.89531 0.74295,1.00517 2.27255,1.00517 z"
       style="font-style:normal;font-variant:normal;font-weight:600;font-stretch:normal;font-family:Lato;-inkscape-font-specification:'Lato Semi-Bold';text-align:center;text-anchor:middle;fill:#1a1a1a;fill-opacity:1"
       id="path5938" /><path
       d="m 234.27971,198.17456 0,11.14421 -2.34903,0 0,-11.14421 2.34903,0 z m 0.39332,-3.36512 q 0,0.31685 -0.13111,0.60092 -0.12018,0.28406 -0.33869,0.50258 -0.21852,0.20759 -0.51351,0.33869 -0.28407,0.12019 -0.61184,0.12019 -0.31685,0 -0.60091,-0.12019 -0.27315,-0.1311 -0.48073,-0.33869 -0.20759,-0.21852 -0.3387,-0.50258 -0.12018,-0.28407 -0.12018,-0.60092 0,-0.32777 0.12018,-0.61184 0.13111,-0.28407 0.3387,-0.49165 0.20758,-0.21852 0.48073,-0.3387 0.28406,-0.13111 0.60091,-0.13111 0.32777,0 0.61184,0.13111 0.29499,0.12018 0.51351,0.3387 0.21851,0.20758 0.33869,0.49165 0.13111,0.28407 0.13111,0.61184 z"
       style="font-style:normal;font-variant:normal;font-weight:600;font-stretch:normal;font-family:Lato;-inkscape-font-specification:'Lato Semi-Bold';text-align:center;text-anchor:middle;fill:#1a1a1a;fill-opacity:1"
       id="path5940" /><path
       d="m 239.44858,199.64953 q 0.36055,-0.37148 0.74295,-0.66647 0.39332,-0.30592 0.83035,-0.52443 0.43703,-0.21852 0.92869,-0.3387 0.49165,-0.12018 1.07072,-0.12018 0.91775,0 1.60607,0.30592 0.69925,0.30592 1.16905,0.86313 0.48073,0.55721 0.7211,1.34386 0.24037,0.77572 0.24037,1.71533 l 0,7.09078 -2.3381,0 0,-7.09078 q 0,-1.12535 -0.52444,-1.74811 -0.51351,-0.62277 -1.5733,-0.62277 -0.78665,0 -1.46404,0.36055 -0.66647,0.36055 -1.25646,0.98332 l 0,8.11779 -2.34902,0 0,-11.14421 1.42034,0 q 0.48073,0 0.61184,0.44795 l 0.16388,1.02702 z"
       style="font-style:normal;font-variant:normal;font-weight:600;font-stretch:normal;font-family:Lato;-inkscape-font-specification:'Lato Semi-Bold';text-align:center;text-anchor:middle;fill:#1a1a1a;fill-opacity:1"
       id="path5942" /><path
       d="m 259.96808,201.1245 q 0.87406,0 1.5296,-0.20759 0.65554,-0.21852 1.09257,-0.60092 0.43703,-0.3824 0.65554,-0.90683 0.21851,-0.53536 0.21851,-1.17997 0,-1.28924 -0.8522,-1.96663 -0.8522,-0.67739 -2.57847,-0.67739 l -2.07588,0 0,5.53933 2.01033,0 z m 7.40763,8.19427 -2.28348,0 q -0.67739,0 -0.98331,-0.52443 l -3.67103,-5.29897 q -0.18574,-0.27314 -0.40426,-0.39332 -0.21851,-0.12018 -0.65554,-0.12018 l -1.42034,0 0,6.3369 -2.55661,0 0,-15.73301 4.63249,0 q 1.55145,0 2.66588,0.31685 1.12534,0.31684 1.84644,0.90683 0.72109,0.57906 1.05979,1.39849 0.34962,0.81943 0.34962,1.82459 0,0.81943 -0.25129,1.5296 -0.24036,0.71017 -0.71017,1.28923 -0.45888,0.57907 -1.13627,1.00517 -0.67739,0.4261 -1.54052,0.66647 0.4698,0.28406 0.8085,0.79757 l 4.2501,5.99821 z"
       style="font-style:normal;font-variant:normal;font-weight:600;font-stretch:normal;font-family:Lato;-inkscape-font-specification:'Lato Semi-Bold';text-align:center;text-anchor:middle;fill:#1a1a1a;fill-opacity:1"
       id="path5944" /><path
       d="m 277.80392,198.17456 0,11.14421 -1.42034,0 q -0.4698,0 -0.60091,-0.44795 l -0.17481,-1.03794 q -0.34963,0.37147 -0.74295,0.67739 -0.3824,0.30592 -0.81943,0.52443 -0.43703,0.21852 -0.93961,0.3387 -0.49166,0.12018 -1.05979,0.12018 -0.91776,0 -1.61701,-0.30592 -0.69924,-0.30592 -1.17997,-0.86313 -0.46981,-0.55721 -0.71017,-1.33293 -0.24037,-0.78665 -0.24037,-1.72626 l 0,-7.09078 2.34903,0 0,7.09078 q 0,1.12534 0.51351,1.74811 0.52443,0.62276 1.58422,0.62276 0.77573,0 1.4422,-0.34962 0.67739,-0.36055 1.26738,-0.98331 l 0,-8.12872 2.34902,0 z"
       style="font-style:normal;font-variant:normal;font-weight:600;font-stretch:normal;font-family:Lato;-inkscape-font-specification:'Lato Semi-Bold';text-align:center;text-anchor:middle;fill:#1a1a1a;fill-opacity:1"
       id="path5946" /><path
       d="m 290.09533,198.17456 0,11.14421 -1.42034,0 q -0.4698,0 -0.60091,-0.44795 l -0.17481,-1.03794 q -0.34962,0.37147 -0.74295,0.67739 -0.3824,0.30592 -0.81943,0.52443 -0.43702,0.21852 -0.93961,0.3387 -0.49165,0.12018 -1.05979,0.12018 -0.91776,0 -1.617,-0.30592 -0.69925,-0.30592 -1.17998,-0.86313 -0.4698,-0.55721 -0.71017,-1.33293 -0.24036,-0.78665 -0.24036,-1.72626 l 0,-7.09078 2.34902,0 0,7.09078 q 0,1.12534 0.51351,1.74811 0.52443,0.62276 1.58423,0.62276 0.77572,0 1.44219,-0.34962 0.67739,-0.36055 1.26738,-0.98331 l 0,-8.12872 2.34902,0 z"
       style="font-style:normal;font-variant:normal;font-weight:600;font-stretch:normal;font-family:Lato;-inkscape-font-specification:'Lato Semi-Bold';text-align:center;text-anchor:middle;fill:#1a1a1a;fill-opacity:1"
       id="path5948" /><path
       d="m 302.80192,198.17456 -4.47953,11.14421 -2.11959,0 -4.47954,-11.14421 1.93385,0 q 0.27314,0 0.44796,0.14203 0.18573,0.13111 0.24036,0.31685 l 2.46921,6.48986 q 0.15296,0.45888 0.27314,0.90684 0.12018,0.44795 0.20759,0.90683 0.0874,-0.45888 0.20759,-0.89591 0.13111,-0.44795 0.28407,-0.91776 l 2.51291,-6.48986 q 0.0656,-0.19667 0.24036,-0.32777 0.17481,-0.13111 0.42611,-0.13111 l 1.83551,0 z"
       style="font-style:normal;font-variant:normal;font-weight:600;font-stretch:normal;font-family:Lato;-inkscape-font-specification:'Lato Semi-Bold';text-align:center;text-anchor:middle;fill:#1a1a1a;fill-opacity:1"
       id="path5950" /><path
       d="m 306.87587,198.17456 0,11.14421 -2.34903,0 0,-11.14421 2.34903,0 z m 0.39332,-3.36512 q 0,0.31685 -0.13111,0.60092 -0.12018,0.28406 -0.33869,0.50258 -0.21852,0.20759 -0.51351,0.33869 -0.28407,0.12019 -0.61184,0.12019 -0.31684,0 -0.60091,-0.12019 -0.27315,-0.1311 -0.48073,-0.33869 -0.20759,-0.21852 -0.3387,-0.50258 -0.12018,-0.28407 -0.12018,-0.60092 0,-0.32777 0.12018,-0.61184 0.13111,-0.28407 0.3387,-0.49165 0.20758,-0.21852 0.48073,-0.3387 0.28407,-0.13111 0.60091,-0.13111 0.32777,0 0.61184,0.13111 0.29499,0.12018 0.51351,0.3387 0.21851,0.20758 0.33869,0.49165 0.13111,0.28407 0.13111,0.61184 z"
       style="font-style:normal;font-variant:normal;font-weight:600;font-stretch:normal;font-family:Lato;-inkscape-font-specification:'Lato Semi-Bold';text-align:center;text-anchor:middle;fill:#1a1a1a;fill-opacity:1"
       id="path5952" /><path
       d="m 326.63157,205.81162 q 0.20759,0 0.36055,0.16389 l 1.01609,1.10349 q -0.96146,1.15813 -2.35995,1.79182 -1.39849,0.62276 -3.34327,0.62276 -1.72626,0 -3.12475,-0.58999 -1.38756,-0.60091 -2.37087,-1.6607 -0.98332,-1.07072 -1.51868,-2.54569 -0.52443,-1.47497 -0.52443,-3.24493 0,-1.76997 0.55721,-3.24494 0.56814,-1.48589 1.58423,-2.54568 1.02701,-1.07072 2.44735,-1.66071 1.43127,-0.58999 3.14661,-0.58999 1.70441,0 3.00456,0.55721 1.31109,0.54629 2.27255,1.46405 l -0.84128,1.1909 q -0.0874,0.12018 -0.20759,0.20759 -0.12018,0.0874 -0.32777,0.0874 -0.21851,0 -0.50258,-0.19666 -0.27314,-0.20759 -0.71017,-0.44795 -0.4261,-0.2513 -1.08165,-0.44796 -0.64461,-0.20759 -1.617,-0.20759 -1.12535,0 -2.06496,0.39333 -0.93961,0.39332 -1.617,1.1472 -0.67739,0.75387 -1.05979,1.83551 -0.37148,1.08165 -0.37148,2.45829 0,1.38756 0.39333,2.48013 0.39332,1.08165 1.08164,1.83552 0.68832,0.74295 1.61701,1.13627 0.92868,0.39333 1.9994,0.39333 0.65554,0 1.16905,-0.0656 0.52443,-0.0765 0.96146,-0.22944 0.43703,-0.16388 0.81943,-0.40425 0.39332,-0.24036 0.77572,-0.58999 0.21852,-0.19666 0.43703,-0.19666 z"
       style="font-style:normal;font-variant:normal;font-weight:600;font-stretch:normal;font-family:Lato;-inkscape-font-specification:'Lato Semi-Bold';text-align:center;text-anchor:middle;fill:#1a1a1a;fill-opacity:1"
       id="path5954" /><path
       d="m 334.38438,197.99975 q 1.2346,0 2.22884,0.40425 1.00517,0.40425 1.70441,1.1472 0.71017,0.74294 1.09257,1.80274 0.3824,1.05979 0.3824,2.3818 0,1.32201 -0.3824,2.3818 -0.3824,1.05979 -1.09257,1.81367 -0.69924,0.74295 -1.70441,1.1472 -0.99424,0.40425 -2.22884,0.40425 -1.24553,0 -2.2507,-0.40425 -0.99423,-0.40425 -1.7044,-1.1472 -0.71018,-0.75388 -1.09257,-1.81367 -0.3824,-1.05979 -0.3824,-2.3818 0,-1.32201 0.3824,-2.3818 0.38239,-1.0598 1.09257,-1.80274 0.71017,-0.74295 1.7044,-1.1472 1.00517,-0.40425 2.2507,-0.40425 z m 0,9.64739 q 1.50775,0 2.23977,-1.00517 0.74295,-1.01609 0.74295,-2.89531 0,-1.87922 -0.74295,-2.89531 -0.73202,-1.02701 -2.23977,-1.02701 -1.5296,0 -2.27255,1.02701 -0.74294,1.01609 -0.74294,2.89531 0,1.87922 0.74294,2.89531 0.74295,1.00517 2.27255,1.00517 z"
       style="font-style:normal;font-variant:normal;font-weight:600;font-stretch:normal;font-family:Lato;-inkscape-font-specification:'Lato Semi-Bold';text-align:center;text-anchor:middle;fill:#1a1a1a;fill-opacity:1"
       id="path5956" /><path
       d="m 342.02827,209.31877 0,-11.14421 1.42034,0 q 0.48073,0 0.61184,0.44795 l 0.15296,0.97239 q 0.30592,-0.34962 0.63369,-0.63369 0.32777,-0.295 0.69925,-0.50258 0.3824,-0.21852 0.8085,-0.3387 0.43703,-0.12018 0.93961,-0.12018 0.53536,0 0.98331,0.15296 0.44796,0.15296 0.78665,0.43702 0.34963,0.28407 0.60092,0.68832 0.25129,0.40425 0.41517,0.90684 0.25129,-0.57907 0.63369,-0.99424 0.3824,-0.41518 0.85221,-0.6774 0.4698,-0.26221 0.99424,-0.3824 0.53536,-0.1311 1.08164,-0.1311 0.89591,0 1.59515,0.28406 0.71017,0.28407 1.19091,0.83036 0.49165,0.53536 0.74294,1.32201 0.25129,0.78665 0.25129,1.79181 l 0,7.09078 -2.34902,0 0,-7.09078 q 0,-1.17997 -0.51351,-1.76996 -0.50258,-0.60092 -1.49682,-0.60092 -0.44795,0 -0.84128,0.15296 -0.39332,0.15296 -0.68832,0.44796 -0.29499,0.29499 -0.4698,0.74295 -0.16389,0.43702 -0.16389,1.02701 l 0,7.09078 -2.34902,0 0,-7.09078 q 0,-1.22368 -0.49166,-1.79181 -0.49166,-0.57907 -1.44219,-0.57907 -0.65555,0 -1.21276,0.3387 -0.55721,0.32777 -1.02701,0.90683 l 0,8.21613 -2.34903,0 z"
       style="font-style:normal;font-variant:normal;font-weight:600;font-stretch:normal;font-family:Lato;-inkscape-font-specification:'Lato Semi-Bold';text-align:center;text-anchor:middle;fill:#1a1a1a;fill-opacity:1"
       id="path5958" /><path
       d="m 360.20933,209.31877 0,-11.14421 1.42034,0 q 0.48074,0 0.61184,0.44795 l 0.15296,0.97239 q 0.30592,-0.34962 0.63369,-0.63369 0.32778,-0.295 0.69925,-0.50258 0.3824,-0.21852 0.8085,-0.3387 0.43703,-0.12018 0.93961,-0.12018 0.53536,0 0.98331,0.15296 0.44796,0.15296 0.78665,0.43702 0.34963,0.28407 0.60092,0.68832 0.25129,0.40425 0.41517,0.90684 0.2513,-0.57907 0.6337,-0.99424 0.38239,-0.41518 0.8522,-0.6774 0.4698,-0.26221 0.99424,-0.3824 0.53536,-0.1311 1.08164,-0.1311 0.89591,0 1.59516,0.28406 0.71017,0.28407 1.1909,0.83036 0.49165,0.53536 0.74294,1.32201 0.2513,0.78665 0.2513,1.79181 l 0,7.09078 -2.34903,0 0,-7.09078 q 0,-1.17997 -0.51351,-1.76996 -0.50258,-0.60092 -1.49682,-0.60092 -0.44795,0 -0.84128,0.15296 -0.39332,0.15296 -0.68832,0.44796 -0.29499,0.29499 -0.4698,0.74295 -0.16389,0.43702 -0.16389,1.02701 l 0,7.09078 -2.34902,0 0,-7.09078 q 0,-1.22368 -0.49166,-1.79181 -0.49166,-0.57907 -1.44219,-0.57907 -0.65554,0 -1.21276,0.3387 -0.55721,0.32777 -1.02701,0.90683 l 0,8.21613 -2.34903,0 z"
       style="font-style:normal;font-variant:normal;font-weight:600;font-stretch:normal;font-family:Lato;-inkscape-font-specification:'Lato Semi-Bold';text-align:center;text-anchor:middle;fill:#1a1a1a;fill-opacity:1"
       id="path5960" /><path
       d="m 387.78647,198.17456 0,11.14421 -1.42034,0 q -0.46981,0 -0.60092,-0.44795 l -0.17481,-1.03794 q -0.34962,0.37147 -0.74295,0.67739 -0.3824,0.30592 -0.81942,0.52443 -0.43703,0.21852 -0.93962,0.3387 -0.49165,0.12018 -1.05979,0.12018 -0.91776,0 -1.617,-0.30592 -0.69925,-0.30592 -1.17998,-0.86313 -0.4698,-0.55721 -0.71017,-1.33293 -0.24036,-0.78665 -0.24036,-1.72626 l 0,-7.09078 2.34902,0 0,7.09078 q 0,1.12534 0.51351,1.74811 0.52443,0.62276 1.58423,0.62276 0.77572,0 1.44219,-0.34962 0.67739,-0.36055 1.26738,-0.98331 l 0,-8.12872 2.34903,0 z"
       style="font-style:normal;font-variant:normal;font-weight:600;font-stretch:normal;font-family:Lato;-inkscape-font-specification:'Lato Semi-Bold';text-align:center;text-anchor:middle;fill:#1a1a1a;fill-opacity:1"
       id="path5962" /><path
       d="m 392.87784,199.64953 q 0.36055,-0.37148 0.74295,-0.66647 0.39332,-0.30592 0.83035,-0.52443 0.43703,-0.21852 0.92869,-0.3387 0.49165,-0.12018 1.07072,-0.12018 0.91775,0 1.60607,0.30592 0.69925,0.30592 1.16905,0.86313 0.48073,0.55721 0.7211,1.34386 0.24037,0.77572 0.24037,1.71533 l 0,7.09078 -2.3381,0 0,-7.09078 q 0,-1.12535 -0.52444,-1.74811 -0.51351,-0.62277 -1.5733,-0.62277 -0.78665,0 -1.46404,0.36055 -0.66647,0.36055 -1.25646,0.98332 l 0,8.11779 -2.34902,0 0,-11.14421 1.42034,0 q 0.48073,0 0.61184,0.44795 l 0.16388,1.02702 z"
       style="font-style:normal;font-variant:normal;font-weight:600;font-stretch:normal;font-family:Lato;-inkscape-font-specification:'Lato Semi-Bold';text-align:center;text-anchor:middle;fill:#1a1a1a;fill-opacity:1"
       id="path5964" /><path
       d="m 405.42055,198.17456 0,11.14421 -2.34903,0 0,-11.14421 2.34903,0 z m 0.39332,-3.36512 q 0,0.31685 -0.13111,0.60092 -0.12018,0.28406 -0.33869,0.50258 -0.21852,0.20759 -0.51351,0.33869 -0.28407,0.12019 -0.61184,0.12019 -0.31685,0 -0.60092,-0.12019 -0.27314,-0.1311 -0.48073,-0.33869 -0.20758,-0.21852 -0.33869,-0.50258 -0.12019,-0.28407 -0.12019,-0.60092 0,-0.32777 0.12019,-0.61184 0.13111,-0.28407 0.33869,-0.49165 0.20759,-0.21852 0.48073,-0.3387 0.28407,-0.13111 0.60092,-0.13111 0.32777,0 0.61184,0.13111 0.29499,0.12018 0.51351,0.3387 0.21851,0.20758 0.33869,0.49165 0.13111,0.28407 0.13111,0.61184 z"
       style="font-style:normal;font-variant:normal;font-weight:600;font-stretch:normal;font-family:Lato;-inkscape-font-specification:'Lato Semi-Bold';text-align:center;text-anchor:middle;fill:#1a1a1a;fill-opacity:1"
       id="path5966" /><path
       d="m 411.96606,209.49358 q -1.38757,0 -2.14144,-0.77572 -0.74295,-0.78665 -0.74295,-2.20699 l 0,-6.48987 -1.22367,0 q -0.19667,0 -0.3387,-0.12018 -0.14204,-0.13111 -0.14204,-0.3824 l 0,-0.95054 1.80275,-0.26221 0.5135,-3.22309 q 0.0546,-0.18573 0.18574,-0.29499 0.13111,-0.12018 0.34962,-0.12018 l 1.20183,0 0,3.66011 3.09197,0 0,1.69348 -3.09197,0 0,6.32598 q 0,0.60091 0.29499,0.91776 0.295,0.31685 0.78665,0.31685 0.27315,0 0.46981,-0.0656 0.19666,-0.0765 0.3387,-0.15296 0.14203,-0.0874 0.24036,-0.15296 0.10926,-0.0765 0.20759,-0.0765 0.19666,0 0.31684,0.21852 l 0.69925,1.14719 q -0.54629,0.48073 -1.28923,0.74295 -0.74295,0.25129 -1.5296,0.25129 z"
       style="font-style:normal;font-variant:normal;font-weight:600;font-stretch:normal;font-family:Lato;-inkscape-font-specification:'Lato Semi-Bold';text-align:center;text-anchor:middle;fill:#1a1a1a;fill-opacity:1"
       id="path5968" /><path
       d="m 426.26201,198.17456 -6.14024,14.31266 q -0.12019,0.2513 -0.295,0.39333 -0.16388,0.14203 -0.51351,0.14203 l -1.73718,0 2.05403,-4.45768 -4.54509,-10.39034 2.0431,0 q 0.295,0 0.44796,0.14203 0.16388,0.13111 0.24036,0.31685 l 2.65495,6.32598 q 0.0983,0.27314 0.17481,0.54628 0.0874,0.26222 0.16388,0.54629 0.0874,-0.28407 0.17482,-0.55721 0.0874,-0.27315 0.19666,-0.54629 l 2.54569,-6.31505 q 0.0765,-0.19667 0.25129,-0.32777 0.18573,-0.13111 0.40425,-0.13111 l 1.87922,0 z"
       style="font-style:normal;font-variant:normal;font-weight:600;font-stretch:normal;font-family:Lato;-inkscape-font-specification:'Lato Semi-Bold';text-align:center;text-anchor:middle;fill:#1a1a1a;fill-opacity:1"
       id="path5970" /><path
       d="m 437.45301,197.99975 q 1.23461,0 2.22885,0.40425 1.00516,0.40425 1.70441,1.1472 0.71017,0.74294 1.09257,1.80274 0.38239,1.05979 0.38239,2.3818 0,1.32201 -0.38239,2.3818 -0.3824,1.05979 -1.09257,1.81367 -0.69925,0.74295 -1.70441,1.1472 -0.99424,0.40425 -2.22885,0.40425 -1.24553,0 -2.25069,-0.40425 -0.99424,-0.40425 -1.70441,-1.1472 -0.71017,-0.75388 -1.09257,-1.81367 -0.3824,-1.05979 -0.3824,-2.3818 0,-1.32201 0.3824,-2.3818 0.3824,-1.0598 1.09257,-1.80274 0.71017,-0.74295 1.70441,-1.1472 1.00516,-0.40425 2.25069,-0.40425 z m 0,9.64739 q 1.50775,0 2.23977,-1.00517 0.74295,-1.01609 0.74295,-2.89531 0,-1.87922 -0.74295,-2.89531 -0.73202,-1.02701 -2.23977,-1.02701 -1.5296,0 -2.27254,1.02701 -0.74295,1.01609 -0.74295,2.89531 0,1.87922 0.74295,2.89531 0.74294,1.00517 2.27254,1.00517 z"
       style="font-style:normal;font-variant:normal;font-weight:600;font-stretch:normal;font-family:Lato;-inkscape-font-specification:'Lato Semi-Bold';text-align:center;text-anchor:middle;fill:#1a1a1a;fill-opacity:1"
       id="path5972" /><path
       d="m 447.29294,199.64953 q 0.36055,-0.37148 0.74295,-0.66647 0.39332,-0.30592 0.83035,-0.52443 0.43703,-0.21852 0.92869,-0.3387 0.49165,-0.12018 1.07072,-0.12018 0.91775,0 1.60607,0.30592 0.69925,0.30592 1.16905,0.86313 0.48073,0.55721 0.7211,1.34386 0.24037,0.77572 0.24037,1.71533 l 0,7.09078 -2.3381,0 0,-7.09078 q 0,-1.12535 -0.52444,-1.74811 -0.51351,-0.62277 -1.5733,-0.62277 -0.78665,0 -1.46404,0.36055 -0.66647,0.36055 -1.25646,0.98332 l 0,8.11779 -2.34902,0 0,-11.14421 1.42034,0 q 0.48073,0 0.61184,0.44795 l 0.16388,1.02702 z"
       style="font-style:normal;font-variant:normal;font-weight:600;font-stretch:normal;font-family:Lato;-inkscape-font-specification:'Lato Semi-Bold';text-align:center;text-anchor:middle;fill:#1a1a1a;fill-opacity:1"
       id="path5974" /><path
       d="m 471.47257,196.27349 q -0.12019,0.19666 -0.2513,0.29499 -0.1311,0.0874 -0.32777,0.0874 -0.20758,0 -0.4698,-0.17481 -0.25129,-0.17481 -0.63369,-0.3824 -0.37148,-0.21851 -0.88498,-0.39332 -0.51351,-0.18574 -1.22368,-0.18574 -0.65554,0 -1.15813,0.16389 -0.49165,0.16388 -0.83035,0.45888 -0.3387,0.29499 -0.51351,0.69924 -0.16388,0.39333 -0.16388,0.86313 0,0.60092 0.31684,1.00517 0.31685,0.39332 0.83036,0.67739 0.52443,0.28407 1.1909,0.50258 0.66646,0.20759 1.35478,0.44796 0.69925,0.24036 1.36572,0.54628 0.66646,0.30592 1.17997,0.77573 0.52444,0.4698 0.84128,1.14719 0.31685,0.6774 0.31685,1.64978 0,1.04887 -0.36055,1.96663 -0.36055,0.91776 -1.04887,1.60608 -0.67739,0.67739 -1.68256,1.07072 -0.99424,0.39332 -2.27254,0.39332 -0.75388,0 -1.47497,-0.15296 -0.71017,-0.14203 -1.36572,-0.40425 -0.64461,-0.27314 -1.21275,-0.65554 -0.56813,-0.3824 -1.01609,-0.8522 l 0.74295,-1.22368 q 0.0983,-0.15296 0.25129,-0.24037 0.15296,-0.0874 0.3387,-0.0874 0.25129,0 0.55721,0.24036 0.30592,0.22944 0.73202,0.51351 0.43703,0.27314 1.04887,0.51351 0.61184,0.22944 1.46404,0.22944 1.38757,0 2.14144,-0.6774 0.7648,-0.67739 0.7648,-1.86829 0,-0.66647 -0.31685,-1.08165 -0.31684,-0.4261 -0.84128,-0.71017 -0.5135,-0.28406 -1.17997,-0.48073 -0.66647,-0.19666 -1.35479,-0.41517 -0.68832,-0.22944 -1.35479,-0.52444 -0.66646,-0.30592 -1.1909,-0.78665 -0.51351,-0.49165 -0.83035,-1.20182 -0.31685,-0.7211 -0.31685,-1.79182 0,-0.8522 0.32778,-1.64978 0.33869,-0.79758 0.97238,-1.40942 0.64462,-0.62276 1.58423,-0.99423 0.93961,-0.37148 2.14144,-0.37148 1.35478,0 2.48013,0.4261 1.13627,0.42611 1.9557,1.21276 l -0.62276,1.22368 z"
       style="font-style:normal;font-variant:normal;font-weight:600;font-stretch:normal;font-family:Lato;-inkscape-font-specification:'Lato Semi-Bold';text-align:center;text-anchor:middle;fill:#1a1a1a;fill-opacity:1"
       id="path5976" /><path
       d="m 476.93779,193.14874 0,16.17003 -2.34903,0 0,-16.17003 2.34903,0 z"
       style="font-style:normal;font-variant:normal;font-weight:600;font-stretch:normal;font-family:Lato;-inkscape-font-specification:'Lato Semi-Bold';text-align:center;text-anchor:middle;fill:#1a1a1a;fill-opacity:1"
       id="path5978" /><path
       d="m 485.8344,204.44591 q -1.25645,0.0437 -2.11958,0.20759 -0.86313,0.15296 -1.39849,0.40425 -0.53536,0.24036 -0.77573,0.57906 -0.22944,0.3387 -0.22944,0.74295 0,0.39332 0.12019,0.67739 0.1311,0.27314 0.34962,0.45888 0.22944,0.17481 0.52443,0.26222 0.30592,0.0765 0.66647,0.0765 0.91776,0 1.5733,-0.3387 0.66647,-0.34962 1.28923,-1.00516 l 0,-2.06496 z m -6.22765,-4.7199 q 1.89015,-1.75904 4.50139,-1.75904 0.96146,0 1.70441,0.31684 0.75387,0.30592 1.25646,0.87406 0.5135,0.56814 0.77572,1.35479 0.27314,0.77572 0.27314,1.72626 l 0,7.07985 -1.04886,0 q -0.3387,0 -0.51351,-0.0983 -0.17481,-0.10926 -0.29499,-0.4261 l -0.22944,-0.90684 q -0.42611,0.3824 -0.84128,0.68832 -0.41518,0.295 -0.86313,0.50259 -0.43703,0.20758 -0.95054,0.30592 -0.50258,0.10925 -1.11442,0.10925 -0.67739,0 -1.26738,-0.18573 -0.57906,-0.18574 -1.00517,-0.55722 -0.4261,-0.38239 -0.67739,-0.93961 -0.24037,-0.55721 -0.24037,-1.31108 0,-0.64462 0.3387,-1.25645 0.34962,-0.61184 1.13627,-1.09257 0.79758,-0.49166 2.08681,-0.80851 1.30016,-0.31684 3.20123,-0.36054 l 0,-0.74295 q 0,-1.20183 -0.5135,-1.79182 -0.51351,-0.58999 -1.50775,-0.58999 -0.67739,0 -1.13627,0.17482 -0.45888,0.16388 -0.79758,0.36054 -0.3387,0.19667 -0.60091,0.37148 -0.26222,0.16388 -0.55721,0.16388 -0.24037,0 -0.41518,-0.12018 -0.16389,-0.13111 -0.27314,-0.31684 l -0.42611,-0.7648 z"
       style="font-style:normal;font-variant:normal;font-weight:600;font-stretch:normal;font-family:Lato;-inkscape-font-specification:'Lato Semi-Bold';text-align:center;text-anchor:middle;fill:#1a1a1a;fill-opacity:1"
       id="path5980" /><path
       d="m 498.76837,200.3597 q -0.10925,0.14203 -0.20758,0.21851 -0.0983,0.0765 -0.28407,0.0765 -0.18574,0 -0.39333,-0.13111 -0.19666,-0.13111 -0.48073,-0.28407 -0.27314,-0.16388 -0.66647,-0.29499 -0.39332,-0.13111 -0.98331,-0.13111 -0.7648,0 -1.34386,0.27314 -0.56814,0.27315 -0.96146,0.78666 -0.3824,0.50258 -0.57906,1.2346 -0.18574,0.7211 -0.18574,1.62793 0,0.93961 0.20759,1.67163 0.20759,0.73202 0.58998,1.2346 0.39333,0.50259 0.93961,0.7648 0.55722,0.26222 1.24553,0.26222 0.6774,0 1.1035,-0.16388 0.4261,-0.16389 0.71017,-0.36055 0.28407,-0.19667 0.48073,-0.36055 0.20759,-0.16389 0.43703,-0.16389 0.28407,0 0.43703,0.21852 l 0.66647,0.86313 q -0.40426,0.49165 -0.89591,0.83035 -0.49166,0.3387 -1.03794,0.55721 -0.54629,0.20759 -1.13628,0.295 -0.58998,0.0983 -1.1909,0.0983 -1.03794,0 -1.94477,-0.3824 -0.89591,-0.39333 -1.5733,-1.12535 -0.66647,-0.74295 -1.0598,-1.80274 -0.3824,-1.07072 -0.3824,-2.43643 0,-1.23461 0.34963,-2.28347 0.34962,-1.0598 1.01609,-1.82459 0.67739,-0.7648 1.67163,-1.19091 0.99424,-0.43702 2.2944,-0.43702 1.21275,0 2.13051,0.39332 0.92868,0.39333 1.64978,1.11442 l -0.62277,0.85221 z"
       style="font-style:normal;font-variant:normal;font-weight:600;font-stretch:normal;font-family:Lato;-inkscape-font-specification:'Lato Semi-Bold';text-align:center;text-anchor:middle;fill:#1a1a1a;fill-opacity:1"
       id="path5982" /><path
       d="m 503.73887,193.14874 0,9.37425 0.50258,0 q 0.24037,0 0.39333,-0.0656 0.15296,-0.0656 0.31684,-0.27314 l 3.12475,-3.5727 q 0.16389,-0.21852 0.36055,-0.32778 0.19666,-0.10925 0.50258,-0.10925 l 2.13052,0 -3.75845,4.23917 q -0.32777,0.4261 -0.72109,0.67739 0.21851,0.15296 0.3824,0.34962 0.16388,0.18574 0.31684,0.42611 l 4.00974,5.45192 -2.09774,0 q -0.28407,0 -0.49166,-0.0874 -0.19666,-0.0983 -0.34962,-0.34963 l -3.22308,-4.37028 q -0.16389,-0.25129 -0.32777,-0.31684 -0.16389,-0.0765 -0.49166,-0.0765 l -0.57906,0 0,5.20063 -2.34902,0 0,-16.17003 2.34902,0 z"
       style="font-style:normal;font-variant:normal;font-weight:600;font-stretch:normal;font-family:Lato;-inkscape-font-specification:'Lato Semi-Bold';text-align:center;text-anchor:middle;fill:#1a1a1a;fill-opacity:1"
       id="path5984" /><path
       d="m 515.52636,193.58576 0,6.2495 q 0,0.98332 -0.0874,1.93385 -0.0874,0.93961 -0.22944,2.03218 l -1.58422,0 q -0.15296,-1.09257 -0.24037,-2.03218 -0.0765,-0.95053 -0.0765,-1.93385 l 0,-6.2495 2.21792,0 z m -2.66587,14.37822 q 0,-0.31684 0.10926,-0.58998 0.12018,-0.28407 0.32777,-0.49166 0.20758,-0.20759 0.48073,-0.32777 0.27314,-0.12018 0.60091,-0.12018 0.31685,0 0.58999,0.12018 0.28407,0.12018 0.48073,0.32777 0.20759,0.20759 0.32777,0.49166 0.12018,0.27314 0.12018,0.58998 0,0.32778 -0.12018,0.60092 -0.12018,0.27314 -0.32777,0.48073 -0.19666,0.20759 -0.48073,0.31684 -0.27314,0.12019 -0.58999,0.12019 -0.32777,0 -0.60091,-0.12019 -0.27315,-0.10925 -0.48073,-0.31684 -0.20759,-0.20759 -0.32777,-0.48073 -0.10926,-0.27314 -0.10926,-0.60092 z"
       style="font-style:normal;font-variant:normal;font-weight:600;font-stretch:normal;font-family:Lato;-inkscape-font-specification:'Lato Semi-Bold';text-align:center;text-anchor:middle;fill:#1a1a1a;fill-opacity:1"
       id="path5986" /></g></svg>